<?xml version="1.0" encoding="UTF-8"?><svg id="b" xmlns="http://www.w3.org/2000/svg" width="175" height="175" viewBox="0 0 175 175"><g id="c"><g id="d"><rect width="175" height="175" rx="8.6" ry="8.6" style="fill:#c7be9f;"/><path d="m131.05,33.91l-6.16,8.43.16,100.05h-40.38v-.97l8.76-8.43-.16-76.53h-.97l-27.08,66.64h-1.78L31.49,57.91h-.81v10.86c0,34.86,10.54,56.43,30.65,72.8v.81H27.11V50.13l-9.08-16.22v-.97l35.02-.32,23.51,49.62h.81l19.78-49.29h33.89v.97Z" style="fill:#121130;"/><path d="m137.47,130.55c0-6.93,5.2-11.69,12.85-11.69s12.28,4.76,12.28,11.69-4.91,11.84-12.28,11.84-12.85-4.76-12.85-11.84Z" style="fill:#af2a29;"/></g></g></svg>