<?xml version="1.0" encoding="utf-8"?>
<!-- Generator: Adobe Illustrator 27.4.1, SVG Export Plug-In . SVG Version: 6.00 Build 0)  -->
<svg version="1.1" xmlns="http://www.w3.org/2000/svg" xmlns:xlink="http://www.w3.org/1999/xlink" x="0px" y="0px"
	 viewBox="0 0 139.5 6.5" style="enable-background:new 0 0 139.5 6.5;" xml:space="preserve">
<style type="text/css">
	.st0{display:none;}
	.st1{display:inline;fill:#F5F4EB;}
	.st2{fill:#231F33;}
	.st3{fill:#0A0931;}
	.st4{fill-rule:evenodd;clip-rule:evenodd;fill:#231F33;}
</style>
<g id="BACKGROUND_1_" class="st0">
	<rect x="-41.2" y="-89.6" class="st1" width="500" height="500"/>
</g>
<g id="OBJECTS">
	<g>
		<path class="st3" d="M158.5-22.2c-0.5,0-1.1,0.1-1.5-0.4c-0.1-0.1-0.3-0.2-0.5-0.3c0.2-0.1,0.3-0.2,0.5-0.2c0.2-0.1,0.2-0.2,0-0.3
			c-0.5-0.1-0.6-0.4-0.6-0.8c-0.1-1-0.5-1.4-1.6-1.6c0-0.2-0.2-0.3-0.4-0.4c-0.2-0.1-0.4-0.3-0.6-0.4c-0.1-0.1-0.1-0.2,0-0.3
			c0.1,0,0.1-0.1,0.2-0.1c0.2-0.1,0.5-0.1,0.7-0.2c-0.2-0.4-0.5-0.2-0.8-0.2c-0.2,0-0.4-0.1-0.5-0.1c-0.1,0-0.2-0.5,0-0.5
			c0.2-0.1,0.4-0.2,0.5-0.2c0.4,0,0.6-0.2,0.6-0.6c0-0.3,0.1-0.4,0.4-0.6c0.5-0.3,1.1-0.5,1.6-0.4c0-0.2,0.2-0.3,0.3-0.4
			c0.4-0.2,0.4-0.3,0.2-0.5c-0.3-0.2-0.5-0.4-0.9-0.4c-0.2,0-0.5-0.2-0.4-0.3c0.1-0.7-0.3-0.9-0.8-1.1c-0.4-0.2-0.3-0.9-0.8-1
			c0-0.1,0.1-0.3,0.1-0.3c0.3-0.1,0.6-0.1,1-0.1c0.3,0,0.5-0.2,0.5-0.5c0-0.4,0.1-0.8-0.2-1.1c-0.2-0.2-0.3-0.6-0.5-0.8
			c-0.2-0.3-0.1-0.5,0.1-0.7c0.1-0.1,0.1-0.2,0-0.3c0-0.1-0.5-0.1-0.5,0c-0.1,0.6-0.6,0.6-0.9,0.9c-0.2,0.2-0.3,0.1-0.5-0.1
			c-0.3-0.2-0.5-0.5-0.2-0.9c0.4-0.4,0.2-0.9,0.2-1.3c0-0.2-0.2-0.4-0.4-0.4c-0.3,0-0.5,0-0.8,0c0-0.3,0-0.5,0-0.8
			c-0.3,0-0.6,0-1-0.1c-0.2,0-0.2-0.1-0.1-0.3c0.1-0.1,0.3-0.4,0-0.4c-0.6-0.1-0.6-0.4-0.6-0.8c-0.2,0-0.4,0-0.6,0
			c-0.2,0-0.4-0.1-0.5-0.2c0.2-0.1,0.3-0.2,0.5-0.3c0.1,0,0.1-0.1,0.1-0.1c0,0,0-0.1-0.1-0.1c-0.1,0-0.2-0.1-0.4-0.1
			c-0.3,0-0.7,0-1,0c-0.2,0-0.4-0.1-0.4-0.3c-0.1-0.3,0-0.8,0.3-0.8c0.4-0.1,0.6-0.3,0.4-0.7c-0.2-0.3-0.3-0.6-0.3-0.9
			c0-0.1-0.1-0.2-0.1-0.4c-0.2,0.1-0.4,0.2-0.4,0.4c-0.1,0.3-0.2,0.6-0.2,0.9c0,0.1-0.1,0.1-0.1,0.1c0,0-0.1-0.1-0.1-0.1
			c-0.1-0.5-0.6-0.9-0.5-1.4c0-0.3-0.2-0.4-0.3-0.2c-0.4,0.4-1,0.7-0.8,1.5c0,0.1-0.2,0.3-0.3,0.5c-0.3,0.3-0.7,0.3-0.8,0
			c0-0.1,0-0.1-0.1-0.2c-0.3-0.5-0.6-1-0.1-1.6c0.2-0.3-0.1-0.2-0.3-0.3c-0.6-0.3-0.5-0.3-0.4-1.1c0.1-0.5-0.2-1-0.5-1.2
			c-0.4,0.3-0.7,0.1-0.9-0.2c-0.1-0.1-0.3-0.3-0.5-0.1c-0.2,0.2-0.3,0-0.5-0.1c-0.2-0.1-0.3,0.1-0.5,0.2c-0.2,0.1-0.4,0.1-0.5-0.1
			c-0.1-0.1-0.3-0.2-0.5,0c-0.2,0.2-0.4,0.4-0.6,0.5c-0.2,0.2-0.3,0.4-0.6,0.4c-0.6,0-1.2-0.1-1.8-0.1c-0.2,0-0.2-0.2-0.1-0.3
			c0-0.1,0.1-0.3,0.2-0.3c0.2-0.1,0.5-0.1,0.6,0c0.5,0.4,0.9,0.1,1.4-0.1c0.1,0,0.1-0.1,0.1-0.1c-0.1,0-0.1-0.1-0.2-0.1
			c-1.2-0.3-2.5,0.2-3.7-0.3c-0.4,0.5-0.8,0.2-1.2-0.1c-0.1-0.1-0.3,0-0.4,0c-0.9,0-1.7,0-2.6,0c-0.4,0-0.6-0.1-0.9-0.3
			c-0.3-0.2-0.5-0.1-0.6,0.2c-0.1,0.4-0.3,0.6-0.6,0.8c-0.1,0.1-0.3,0.1-0.4,0.1c-0.3-0.1-0.1-0.3,0-0.4c0.2-0.5,0.1-0.7-0.3-0.7
			c-0.5,0-0.9,0-1.4,0c-0.5,0-1,0.1-1.4,0c-1.1-0.4-2.2-0.8-3.4-0.8c-0.6-0.5-1.3-0.3-1.9-0.4c-0.5,0-0.9,0-1.4,0
			c-0.3,0-0.6-0.3-0.9-0.3c-0.4-0.1-0.6,0.4-1.1,0.4c-0.6-0.1-1.2,0-1.8,0c-0.3,0-0.5,0-0.7,0.2c-0.8,0.6-1.8,0.7-2.8,0.6
			c0-0.1,0-0.2,0-0.4c0.3,0,0.7,0,0.9-0.3c0.3-0.4,0.7-0.6,1.2-0.5c0.1,0,0.1-0.2,0.2-0.2c0,0-0.1-0.1-0.1-0.1
			c-0.8,0.2-1.6-0.7-2.4-0.1c-0.4-0.5-0.8-0.2-1.2,0c-0.5-0.5-1.1-0.2-1.7-0.3c-0.4-0.1-0.8,0.1-1,0.4c-0.4,0.5-0.9,0.5-1.4,0.2
			c-0.3-0.3-0.8-0.3-1.1,0c-0.4,0.4-0.7,0.1-1-0.1c-0.2-0.2-0.5-0.1-0.6,0.2c-0.1,0.4-0.4,0.6-0.7,0.3c-0.5-0.3-0.9-0.3-1.5,0
			c-0.2,0.1-0.5-0.3-0.8,0c-0.1,0.1-0.2-0.2-0.3-0.4c-0.1-0.2-0.2-0.3-0.5-0.3c-0.3,0-0.5,0-0.7,0.2c-0.2,0.2-0.5,0.2-0.7,0
			c-0.6-0.5-1.1-0.3-1.6,0.2c-0.2,0.3-0.4,0.2-0.6,0c-0.2-0.2-0.5-0.2-0.7-0.3c-0.5-0.4-1.2,0.1-1.7-0.4c-0.3,0.1-0.7,0.2-1,0.4
			c-0.3,0.2-0.6,0.3-0.9,0c-0.4-0.3-0.9-0.1-1.3-0.2c-0.8,0.7-1.8,0.2-2.7,0.3c-0.9-0.6-1.9-0.3-2.9-0.4c-0.4-0.1-0.7,0.5-1.1,0.3
			c-0.5-0.2-0.9-0.5-1.4,0c-0.3-0.3-0.7-0.3-1.1-0.2c-0.3,0.6-0.8-0.2-1.1,0.2c-0.1,0.2-0.4,0.1-0.5,0c-0.1,0-1.4,0-1.5,0
			c-0.2,0.1-0.4,0.1-0.5,0c-0.3-0.4-0.6,0.1-0.8,0.1c-0.4,0-0.7-0.2-1.1-0.3c-0.3-0.1-0.5,0.1-0.7,0.3c-0.1,0.1-0.3,0.4-0.5,0.4
			c-0.1,0-0.3-0.2-0.5-0.3c-0.3-0.3-0.6-0.5-1-0.1c-0.1,0.1-0.2,0.1-0.3,0c-0.3-0.3-0.4,0.1-0.7,0.1c-0.3,0-0.5-0.3-0.7-0.3
			c-0.8,0-1.7-0.3-2.5,0.3c-0.2,0.1-0.5,0-0.8,0c-0.7,0.2-1.3-0.5-2-0.1c-1.5-0.4-1.5-0.4-3.2,0.1c-0.4,0.1-0.9,0.1-1.2-0.1
			c-0.6-0.4-1.3-0.2-1.9-0.2c-0.5,0.5-1.1,0.3-1.7,0.3c-0.2,0-0.4,0.1-0.5,0.2c-0.4,0.3-0.7,0.2-0.9-0.3c-0.2-0.6-0.8-0.2-1.2-0.5
			c-0.4-0.4-1-0.3-1.5-0.1c-0.6,0.3-1.2,0.6-1.7,0.9c-0.2,0.1-0.5,0.1-0.7,0.1c0-0.2,0-0.4,0-0.6c0-0.2-0.1-0.4-0.2-0.5
			c-0.3-0.2-0.7-0.4-1.1-0.5c-0.2-0.1-0.6,0-0.7,0.2c-0.1,0.1,0.1,0.4,0.1,0.5c0,0.1,0.2,0.2,0.2,0.3c0,0.1,0,0.3-0.1,0.3
			c-0.1,0.1-0.3,0.1-0.4,0.1c-0.2-0.1-0.4-0.3-0.7-0.3c-0.5-0.1-1.1,0.1-1.6-0.1c-0.6-0.2-1.1-0.4-1.7-0.4c-0.1,0-0.1-0.1-0.2-0.1
			c0,0-0.1-0.1-0.1-0.1c0-0.1,0.1-0.1,0.1-0.1c0.1,0,0.3,0,0.4-0.1c0.2-0.3-0.1-0.2-0.2-0.3c-0.1-0.1-0.2-0.1-0.3-0.2
			c-0.3-0.3-0.6-0.3-0.9,0c-0.2,0.2-0.3-0.1-0.5-0.1c-0.4-0.2-0.8-0.2-1.1,0.1c-0.2,0.1-0.3,0.3-0.4,0.4c-0.3,0.3-0.5,0.2-0.8-0.2
			c-0.3-0.5-0.5-0.5-0.7-0.3c-0.5,0.6-1.1,0.7-1.8,0.7c-0.3,0-0.5,0-0.8,0c-0.2,0-0.3-0.2-0.3-0.4c0-0.1-0.1-0.2-0.2-0.3
			c-0.1,0.1-0.2,0.2-0.2,0.3c0,0.3,0,0.7-0.1,1c-0.2,0.4-0.7,0.2-1.1,0.2c-0.5,0-1,0.1-1.4-0.1c-0.3-0.1-0.5-0.2-0.8,0
			c-0.2,0.2-0.6,0.2-0.6,0.6c0,0-0.1,0.1-0.1,0.1c-0.1-0.1-0.2-0.1-0.2-0.2c0-0.1,0-0.3,0-0.4c0-0.1-0.1-0.2-0.1-0.4
			c-0.1,0-0.2,0.1-0.3,0.1c-0.3,0.3-0.6,0.5-0.9,0.8c-0.1,0.1-0.2,0-0.3-0.1c0-0.1,0-0.2,0-0.2c0.2-0.3,0.4-0.5,0.6-0.8
			c0.2-0.3,0-0.3-0.2-0.4c-0.4,0-0.4-0.3-0.5-0.5c-0.1-0.3-0.3-0.1-0.3,0.1c-0.1,0.3-0.2,0.5-0.5,0.5c-0.5,0-0.9,0-1.4,0.1
			c-0.1,0-0.1,0.2,0,0.3c0.1,0.1,0,0.2,0.1,0.3c-0.1,0-0.3,0.1-0.4,0.1c-0.5-0.2-0.5-0.4-0.4-1c0-0.2,0.1-0.4,0-0.6
			c0-0.1-0.1-0.2-0.2-0.3c0,0-0.1,0.1-0.1,0.1c0,0.1,0,0.1-0.1,0.2c-0.1,0.2-0.3,0.6-0.4,0.6c-0.6,0.1-0.7,0.7-1,1.1
			c-0.2,0.2-0.2,0.2-0.6,0c-0.1,0-0.2-0.1-0.4-0.1c-0.3,0-0.4,0.4-0.7,0.2c-0.3-0.2-0.6-0.2-0.9-0.3c-0.2,0-0.4-0.2-0.3-0.4
			c0-0.2,0-0.4,0-0.6c0-0.3,0-0.5-0.4-0.6c-0.3,0-0.7-0.1-0.8,0.4c0,0.1,0,0.5-0.3,0.2c-0.4-0.3-0.9-0.2-1.3-0.2
			c-0.2,0-0.3,0.2-0.3,0.4c-0.5,0-0.4-0.4-0.4-0.7c0-0.2-0.1-0.4-0.3-0.4c-0.2,0-0.4,0.1-0.5,0.2c-0.1,0.1-0.2,0.2-0.3,0.3
			c-0.1,0.6-0.5,0.7-1,0.7c-0.2,0-0.3,0.2-0.3,0.4c0,0.2,0.2,0.3,0.4,0.3c0.1,0,0.3,0,0.4,0c0.1,0,0.2,0.1,0.3,0.2
			c-0.1,0.1-0.2,0.2-0.3,0.2c-0.6,0-1.2,0.1-1.8,0.1c-0.5,0.5-1.1,0.3-1.7,0.4c-0.1,0-0.3,0-0.4,0.1c-0.3,0.2-0.5,0.3-0.9,0.3
			c-0.3,0-0.7,0-0.9-0.3c-0.3-0.3-0.5,0.4-0.8,0C11-50.4,10.7-50,10.4-50c-0.3,0-0.7-0.3-1.1-0.2c-0.3,0.1-0.4,0.3-0.4,0.6
			c-0.1,0.2-0.2,0.2-0.3,0c-0.1-0.5-0.4-0.7-0.8-0.6c-0.3,0-0.5,0-0.8,0c-0.5-0.1-0.8,0.2-1,0.7c-0.3,0.6-0.7,0.6-1.4,0.4
			c-0.2-0.1-0.3-0.2-0.5-0.2c-0.2,0-0.4,0-0.2,0.3C4-48.9,4-48.7,3.8-48.7c-0.4,0.1-0.7,0.4-0.9,0.7c-0.2,0.5-0.4,0.9-0.7,1.4
			c-0.2,0.3-0.5,0.4-0.8,0.2c-0.1-0.1-0.3-0.2-0.5,0c-0.5,0.6-0.5,0.6-1.2,0.3c-0.2-0.1-0.4-0.2-0.7-0.1c-0.3,0.2-0.6,0.3-0.9,0.4
			c-0.5,0.2-0.9,0.5-1,1.1C-3-44.1-3.6-43.7-3.5-43c0.7,0,1.3,0,1.2,1c0,0.1,0.3,0.2,0.5,0.3c0.2,0.1,0.3,0.3,0.2,0.5
			C-1.6-41.1-1.8-41-2-41.1c-0.4-0.2-0.6-0.3-1,0c-0.3,0.2-0.7,0.5-1.2,0.2c-0.6,0.5-1.4,0.2-2.1,0.3c-0.6,0-0.7,0-0.6,0.9
			c0,0.1,0.1,0.2-0.1,0.3c-0.1,0.1-0.3,0.3-0.4,0.4c-0.3,0.3-0.2,0.5,0.1,0.8c0.6,0.4,0.6,0.6,0.1,1c-0.1,0.1-0.2,0.2-0.3,0.2
			c-0.1,0-0.2-0.1-0.4-0.1c0-0.1,0-0.2,0.1-0.3c0-0.1,0.1-0.1,0.1-0.2C-7.8-37.8-8-38-8.1-38.1c-0.1,0.2-0.1,0.4-0.2,0.5
			c-0.2,0.3-0.5,0.3-0.7-0.1c-0.1-0.2-0.2-0.4-0.3-0.4c-0.2-0.1-0.4-0.1-0.6,0c-0.5,0.1-0.7,0.6-0.7,1.1c0,0.4,0.3,0.5,0.7,0.6
			c0.8,0.2,1.6,0.7,2.4,0c0.4,0.4,0.8,0.3,1.2,0c0,0,0.1,0.1,0.1,0.1c0.1,0.8,0.5,0.6,1,0.3c0.2-0.1,0.6,0.2,0.8,0.3
			c0.1,0,0.1,0.1,0.1,0.1c0,0-0.1,0.1-0.1,0.1c-0.4,0.1-0.8,0.2-1.3,0.4c-0.4-0.5-1-0.3-1.5-0.3c-0.6,0.1-1-0.3-1.5-0.4
			c-0.1,0-0.2,0.1-0.3,0.2c0.3,0.3,0.2,0.5,0,0.8c-0.1,0.1,0,0.4,0.2,0.5c0.1,0,0.1,0,0.2,0c0.1,0,0.3,0,0.4,0
			c0.1,0,0.2,0.1,0.3,0.2c-0.1,0.1-0.2,0.2-0.3,0.2c-0.3,0-0.5,0.2-0.4,0.5c0,0.2,0.3,0.3,0.5,0.3c0.2,0,0.4,0,0.6,0
			c0.2,0,0.4,0,0.4,0.3c0,0.1-0.2,0.1-0.3,0.2c-0.2,0.1-0.4,0.1-0.1,0.4c0.3,0.3,0.6,0.6,1,0.2c0.1-0.1,0.2-0.2,0.3-0.1
			c0.3,0.4,0.7,0.2,1.1,0.3c0.3,0,0.5,0.1,0.6,0.4c0,0.3,0.1,0.6-0.2,0.7c-0.7,0.2-0.7,0.8-1,1.3c0.2,0.1,0.3,0.2,0.5,0.3
			c0.1,0.1,0.2,0.1,0.3-0.1c0.1-0.4,0.2-0.6,0.6-0.2c0.3-0.2,0.5-0.4,0.8-0.6c0,0,0.1,0,0.2-0.1c0,0.1,0.1,0.3,0.1,0.4
			c-0.1,0.4-0.3,0.7-0.5,1c-0.2,0.4-0.5,0.5-0.9,0.2c-0.2-0.2-0.7-0.2-0.9,0.1c-0.2,0.4,0.2,0.4,0.4,0.7c0.4,0.4,0.7,1,1.1,1.5
			c0.3,0,0.5,0,0.8,0c-0.1,0.2-0.2,0.3-0.2,0.5c-0.1,0.5,0.3,0.3,0.5,0.4c0.3,0.2,0.6,0.3,0.8,0.5c0.1,0.1,0.1,0.2,0.1,0.3
			c0,0.1-0.1,0.2-0.2,0.3c0,0-0.1,0-0.2,0c-0.3,0-0.6,0-0.7,0.2c-0.1,0.4,0.2,0.6,0.4,0.8c0.2,0.2,0.4,0.5,0.8,0.6
			c0.5,0.2,0.8,0.6,1.1,1c-0.1,0.7,0.4,1.1,0.8,1.5c0.4,0.3,0.5,0.8,0.4,1.2c-0.1,0.8,0.4,1.3,0.5,2c0,0.4,0.6,0.7,1.1,0.6
			c0.2-0.6,0.6-1.1,1.1-1.1c1-0.2,1.8-0.8,2.8-0.8c0,0.2,0,0.4,0.1,0.5c0.1,0.1,0.3,0.2,0.5,0.2c0.4,0,0.8,0,1.2,0
			c0.1,0,0.3,0,0.4,0c0.1,0,0.1,0.1,0.2,0.1C7.9-17.1,7.9-17,7.8-17c-0.8-0.1-1.5,0.4-2.3,0.5c-0.3,0-0.2,1-0.9,0.4
			c-0.6,0.4-1.3,0.6-2,0.8c-0.3,0.1-0.6,0.4-0.6,0.7c0,0.1,0,0.3,0,0.4c-0.2,0.6-0.6,0.9-1.1,0.6c-0.6-0.3-1.4,0.1-1.9-0.5
			c-0.1,0.1-0.2,0.2-0.2,0.3c0,0.2-0.2,0.4-0.4,0.4c-0.3,0-0.5,0-0.8,0c-0.7-0.1-1.3,0-1.3,1c0,0.1-0.3,0.2-0.5,0.3
			c-0.2,0.1-0.2,0.2-0.1,0.3c0,0,0.1,0.1,0.2,0.1c0.3,0,0.5,0.1,0.8-0.1c0.2-0.2,0.5-0.4,0.8-0.6c0.2-0.1,0.5,0.1,0.5,0.4
			c0,0.1,0,0.3,0,0.4c-0.3,0.1-0.6,0.3-0.8,0.4c-0.4,0.2-0.4,0.2-0.2,0.8c0.1,0.2,0.3,0.6,0,0.7C-3.4-9.7-3.4-9.1-3.8-9
			c-0.8,0.3-1.2,0.8-1.4,1.5c-0.1,0.1-0.2,0.1-0.3-0.1C-5.8-8-5.9-8-6.2-7.6C-6.3-7.4-6.3-7-6.1-7c0.7,0.1,0.6,0.6,0.5,1
			c0,0.2-0.4,0.3-0.1,0.7c0.3,0.4,0.2,0.7-0.3,0.8c-0.2,0-0.2,0.2-0.1,0.2c0.4,0.1,0.8,0.3,0.6,0.8c-0.2,0.8,0.4,0.8,0.8,1.1
			c0.3,0.2,0.3,0,0.5-0.1c0.1,0,0.3-0.1,0.4-0.1c0.4,0.4,1,0.2,1.4,0.6c0.1,0.1,0.1,0.5,0.2,0.7c0,0.1,0.1,0.1,0.1,0.2
			C-2.1-1.1-2-1.1-1.9-1.2c0-0.1,0-0.3,0-0.4C-1.8-2-1.6-2.2-1.4-2.1c0.7,0.4,1.5,0.4,2.1,0.8C0.8-1.2,0.8-1,0.9-0.9
			c-0.1,0-0.2,0.1-0.3,0.1C0.2-0.3-0.3,0-1-0.1c-0.3,0-0.5,0.1-0.7,0.3c-0.1,0.1-0.1,0.2-0.1,0.3c0,0,0.1,0.1,0.2,0.1
			c0.3,0,0.7,0,1,0c0.7,0,1.3,0,2,0c0.1,0,0.3,0.1,0.3,0.2c0,0.2,0,0.4-0.1,0.5C1.3,1.6,1.1,1.8,0.9,1.9C0.5,2,0.4,2.3,0.1,2.5
			C0.1,2.6,0.1,3,0.3,3c0.1,0,0.2,0.1,0.4,0.1c0.2,0,0.4,0,0.5,0.1C1.8,3.9,2.2,3,2.8,3c0-0.1,0-0.2-0.1-0.3
			C2.6,2.5,2.4,2.4,2.3,2.3C2.1,2.1,2.1,2,2.3,2c0.1,0,0.3-0.1,0.4,0C3,2.2,3.3,2.6,3.6,2.6c0.5,0.1,0.7-0.5,1.1-0.7
			c0,0,0.1,0,0.2,0c0.1,0.6-0.2,1-0.8,1.2C3.7,3.2,3.8,3.3,4,3.6c0.2,0.5,0.4,0.7,1,0.7c0.3,0,0.4,0.3,0.4,0.6c0,0.1,0,0.3,0.1,0.4
			c0.1,0.1,0.2,0.2,0.3,0.2C5.8,5.5,6,5.4,6,5.3c0.4-0.5,0.4-0.5,0.7-0.2c0.4,0.5,0.9,0.5,1.4,0.1C8.5,5,8.7,5.1,9,5.4
			c0.3,0.2,0.6,0.2,0.9,0c0.2-0.1,0.4-0.2,0.7-0.1c0.7,0.4,1.5,0,2.3,0.5c0.3,0.2,0.6-0.3,0.8-0.5C14,5.1,14.2,5,14.5,5.3
			c0.1,0.1,0.2,0.1,0.3,0c0.8-0.3,1.5-0.5,2.2,0.1c0.2,0.1,0.4,0.1,0.5-0.1c0.3-0.3,1-0.2,1-0.9c0.4-0.3,0.9-0.3,1.3-0.1
			c0.5,0.3,1.1,0.4,1.5,0.9c0.2,0.3,0.6,0.2,0.9,0.1c0.1,0,0.2-0.2,0.3-0.2c1-0.5,1.9-0.8,3-0.2c0.3,0.2,0.9,0.2,1.3-0.1
			c0.4-0.4,0.7-0.1,1,0.2c0.2,0.3,0.4,0.4,0.8,0.1c0.2-0.2,0.6-0.1,1-0.1C29.8,5.1,30,5,30.1,5c0.2-0.1,0-0.6,0.4-0.5
			C30.7,4.5,30.8,4.8,31,5c0.1,0.1,0.3,0.2,0.4,0.1c0.4-0.2,0.8-0.2,1.2,0c0.1,0,0.3-0.1,0.3-0.2C33,4.7,33,4.1,33.5,4.6
			c0.3,0.4,0.7,0.5,1.2,0.5c1.4,0,2.8-0.1,4.2,0c0.5,0,0.9-0.1,1.2-0.5c0.3-0.3,0.7-0.4,1.1-0.2c0.4,0.2,0.7,0.3,1.1,0.3
			c1.5,0,2.9,0,4.4,0c0.2,0,0.4,0,0.6-0.1c0.4-0.3,0.7-0.3,1.1,0c0.2,0.1,0.6,0.2,0.8,0.1c0.4-0.2,0.8-0.5,1.2-0.1
			c1.4-0.5,2.9-0.2,4.3-0.3c0.5,0,1.1,0.1,1.6-0.1c0.8-0.3,1.5-0.6,2.2,0c0,0,0.1-0.1,0.2-0.1c0.3-0.2,0.6-0.3,0.9,0
			c0.2,0.2,0.5,0.2,0.7,0c0.2-0.1,0.5-0.2,0.7-0.2c0.4,0,0.8,0,1.2,0c0.5,0,0.9,0,1.4,0c0.4,0,0.9,0.2,1.2,0c0.5-0.4,0.8,0,1.2,0
			c0.4,0.1,0.6-0.1,0.9-0.3c0.3-0.2,0.6,0.3,0.9,0.2c0.6-0.4,1.2-0.2,1.7-0.3c0.5,0,1,0.1,1.4-0.1c0.5-0.2,0.8-0.3,1.2,0
			c0.5,0.3,1,0.5,1.5-0.1c0.1-0.2,0.5-0.2,0.7-0.1c0.4,0.2,0.8,0,1.2,0c0.4,0,0.8,0.1,1.2,0C77.2,3,77.7,3.2,78,2.8
			c0.4,0.1,0.6,0.4,1.1,0.3c0.5-0.1,0.3-0.8,0.8-0.8c0.3,0,0.7-0.1,0.9-0.3C80.9,2,81,2,81.1,2.2c0,0.1,0,0.3-0.1,0.4
			c-0.1,0.1-0.2,0.1-0.3,0.2c-0.1,0.1-0.2,0.1-0.2,0.2c0.1,0.1,0.2,0.1,0.3,0.2c0.4,0.1,0.7-0.3,1.1-0.3c0.3,0,0.6,0.2,0.9,0.3
			c0.4,0,0.2-0.6,0.6-0.6c0.2,0,0.3,0.3,0.5,0.1c0.3-0.2,0.6-0.4,0.9-0.1c0.2,0.2,0.5,0.2,0.7,0.2c0.8,0,1.6-0.3,2.3,0.3
			c0.1,0.1,0.3,0,0.4,0c0.4-0.2,0.8-0.4,1.2-0.7c0.4,0.4,0.8,0.4,1.3,0.3c0.2,0,0.5,0.1,0.6,0c0.5-0.4,0.9-0.4,1.4,0
			c0.1,0.1,0.4-0.1,0.5-0.2c0.2-0.1,0.5-0.3,0.7,0c0.4,0.3,0.7,0.2,1-0.1c0.2-0.2,0.5-0.6,0.8-0.4c0.3,0.2,0.5,0.3,0.8,0
			c0.3-0.3,0.6-0.6,0.9-0.8c0.1-0.1,0.4,0,0.6,0c0.2,0,0.3,0.2,0.4,0.4c0.2,0,0.5,0,0.6,0.1c0.4,0.5,0.7,0.2,0.9-0.1
			c0.1-0.1,0.2-0.2,0.3-0.2c0.1,0.2,0.1,0.3,0.2,0.5c0.1,0.2,0.1,0.4,0.2,0.6c0.1-0.1,0.2-0.1,0.3-0.2c0.4-0.5,0.8-0.7,1.3-0.2
			c0.2,0.1,0.5,0.1,0.8,0.1c0.4,0,0.6-0.1,0.7-0.5c0-0.2,0.2-0.2,0.2-0.1c0.1,0.1,0.1,0.3,0.2,0.4c1,1,2.2,0.7,3.4,0.6
			c0.1,0,0.2-0.1,0.3-0.2c0.2-0.2,0.5-0.5,0.7-0.7c0.2-0.2,0.3-0.1,0.4,0.2c0.2,0.8,0.4,1,1,0.7c0.3-0.1,0.5-0.2,0.9,0
			c0.2,0.1,0.5,0,0.6-0.3c0.1-0.3,0.4-0.5,0.6-0.3c0.3,0.2,0.5,0.3,0.8,0c0.1-0.1,0.4,0,0.5,0.1c0.5,0.4,1,0.3,1.4-0.1
			c0.5-0.4,0.5-0.4,1.1,0.2c0.2,0.2,0.5,0.2,0.7,0.2c0.4,0,0.4-0.2,0.2-0.5c-0.1-0.1-0.1-0.2,0.1-0.3c0.1,0,0.1,0,0.2,0
			c0.1,0.1,0.2,0.1,0.3,0.2c0.4,0.5,0.4,0.6,0.8,0.4c0.2-0.1,0.4-0.2,0.7-0.1c1.3,0.5,2.3,0.5,3.4-0.1c0.7-0.4,1.1-0.3,1.5,0.2
			c0.1,0.1,0.3,0.1,0.3,0.1c0.4-0.3,0.7-0.2,1.1,0.1c0.5-0.4,1.1-0.3,1.7-0.3c2.1,0,4.3-0.1,6.4,0c0.7,0,1.3-0.1,1.9-0.5
			c0.4-0.2,0.6-0.3,0.8,0.2c0,0.2,0.2,0.1,0.3,0c0.4-0.6,0.4-0.6,0.8-0.4c0.4,0.3,0.8,0.2,1.1,0.2c0.5,0.1,1.1-0.1,1.5,0.3
			c0.1,0.1,0.4,0,0.5-0.1c0.1,0,0.1-0.1,0.2-0.1c0.3-0.3,0.5-0.6,0.9-0.2c0.7-0.2,1.6-0.3,1.8-1.3c0.1-0.2,0.4-0.4,0.5-0.2
			c0.4,0.5,0.8,0,1.2,0c0.9,0,1.6-0.4,2.3-1c0.3-0.3,0.7-0.4,1-0.7c0.4-0.5,0.7-0.1,1-0.1c0.5,0,1.2-0.8,1.2-1.3
			c0-0.3-0.1-0.6-0.4-0.6c-0.3,0-0.7,0-1-0.1c-0.2,0-0.2-0.1-0.1-0.3c0.6-0.6-0.1-1.6,0.6-2.2c-0.2-0.2-0.3-0.4-0.5-0.6
			c-0.2-0.3-0.3-0.3,0.2-0.5c0.5-0.1,0.2-0.3,0.1-0.5c-0.1-0.3,0.4-0.6,0.6-0.5c0.4,0.3,0.9,0.2,1.3,0.2c0.1,0,0.2-0.1,0.2-0.2
			c0,0-0.1-0.1-0.1-0.2c-0.2-0.3-0.5-0.4-0.9-0.4c-0.5-0.1-0.8-0.7-0.5-1c0.5-0.5,0.9-1.2,1.6-1.5c0.4-0.1,0.4-0.6,0.1-0.7
			c-0.3-0.1-0.6-0.3-0.9-0.4c-0.4-0.1-0.4-0.2-0.2-0.5c0-0.1,0.1-0.1,0.1-0.2c-0.1-1,0.2-1.8,0.8-2.5c0.3-0.4,0.6-0.9,0.4-1.5
			c-0.1-0.3-0.3-0.7-0.2-0.8c0.1-0.2,0.5-0.4,0.8-0.5c0.8-0.3,1.5-0.9,2.4-0.9c0.2,0,0.2-0.3,0.2-0.5c0-0.1-0.1-0.1-0.1-0.2
			c-0.1-0.2-0.2-0.3,0.1-0.4c0.5-0.1,1.1,0.1,1.6-0.2c0.2-0.1,0.1-0.6,0.4-0.5c0.2,0,0.5,0.2,0.7,0.3c0.4,0,0.8,0.1,1.1-0.3
			c0.1-0.1,0.2-0.2,0.2-0.3C158.7-22,158.6-22.1,158.5-22.2z M153.4-33.7c0.1,0,0.1,0,0.2,0.1c0.2,0.1,0.3,0.2,0.5,0.3c0,0,0,0,0,0
			l0,0c0,0,0,0,0,0c0,0.2-0.1,0.3-0.3,0.4c-0.2,0-0.4-0.1-0.4-0.3C153.3-33.5,153.4-33.6,153.4-33.7z M-6.1-37.1
			c0,0-0.1-0.1-0.1-0.1c0,0,0-0.1,0.1-0.1c0,0,0.1,0,0.1,0C-6-37.2-6-37.1-6.1-37.1z M-6.9-33.5c-0.1-0.2-0.1-0.3-0.2-0.5
			c0,0,0.1-0.1,0.1-0.1c0,0,0.1,0,0.1,0c0,0,0.1,0.1,0.1,0.1c0,0.1,0,0.1,0,0.2C-6.8-33.6-6.9-33.5-6.9-33.5z M-5.5-33.4
			c-0.2,0-0.4,0-0.6,0c-0.1,0-0.1-0.1-0.2-0.2c0,0,0.1-0.1,0.1-0.1c0.1,0,0.2,0,0.3,0c0.1,0,0.2,0,0.3,0c0.1,0,0.2,0.1,0.3,0.2
			C-5.3-33.5-5.4-33.4-5.5-33.4z M-3.1-39.4c0.6-0.1,0.9,0.4,1.4,0.5c0,0,0.1,0.1,0.1,0.1c0,0.1,0.1,0.1,0.1,0.1c0,0,0,0,0,0
			c0,0-0.1-0.1-0.2,0.1c-0.1,0.1-0.3,0.4-0.4,0.4c-0.4-0.2-0.8-0.4-1.1-0.7c-0.1-0.1-0.1-0.2-0.2-0.3C-3.3-39.3-3.2-39.4-3.1-39.4z
			 M-2-37.5c-0.1,0.1-0.2,0.1-0.2-0.1c0,0,0.1-0.1,0.1-0.1c0,0,0.1,0,0.1,0.1C-2-37.6-2-37.6-2-37.5z M-3-26.2c-0.2,0-0.4,0-0.5,0
			c0,0,0,0,0,0l0,0c0,0,0,0,0,0c0-0.3,0.2-0.4,0.5-0.3c0.1,0,0.1,0.1,0.2,0.2C-2.8-26.3-2.9-26.2-3-26.2z M-2-30.3
			c-0.1,0.2-0.3,0.1-0.5,0.1c-0.1,0-0.1-0.1-0.1-0.1c0,0,0.1-0.1,0.1-0.1c0.2-0.1,0.3-0.1,0.5,0.1C-2-30.4-2-30.4-2-30.3z
			 M-1.2-36.2c0,0.1-0.1,0.2-0.2,0.3c-0.1,0.1-0.3,0-0.4,0.1c-0.6,0.2-0.9-0.3-1.4-0.4c-0.2,0-0.3-0.2-0.1-0.4
			c0.1-0.1,0.4-0.3,0.4-0.3c0.4,0.4,1,0.2,1.5,0.3C-1.2-36.6-1.1-36.4-1.2-36.2z M-0.9-37.1c-0.1,0-0.1-0.1-0.2-0.1
			c0,0,0.1-0.1,0.1-0.1c0,0,0.1,0.1,0.1,0.1C-0.8-37.2-0.8-37.1-0.9-37.1z M-0.9-38.3c0,0-0.1-0.1-0.1-0.1c0,0,0-0.1,0.1-0.1
			c0,0,0.1,0,0.1,0C-0.7-38.4-0.8-38.3-0.9-38.3z M-0.5-23.9c-0.1,0-0.1-0.1-0.2-0.1c0,0,0.1-0.1,0.1-0.1c0,0,0.1,0.1,0.1,0.1
			C-0.4-23.9-0.4-23.9-0.5-23.9z M0.5-43.8C0.5-43.8,0.5-43.8,0.5-43.8C0.5-43.8,0.5-43.8,0.5-43.8c0,0.2-0.2,0.4-0.4,0.4
			c-0.3,0-0.6,0-0.9,0.2C-1-43-1-43.2-1.1-43.4c-0.1-0.2-0.1-0.4-0.3-0.5c-0.1-0.1-0.1-0.2,0.1-0.3c0.4-0.1,0.8-0.1,1.1-0.3
			C0-44.6,0-44.3,0.1-44.1C0.1-44,0.3-43.9,0.5-43.8C0.5-43.8,0.5-43.8,0.5-43.8C0.5-43.8,0.5-43.8,0.5-43.8
			c0.2-0.6,0.5-0.9,1.1-0.8c0.1,0,0.2,0.1,0.3,0.2c0,0,0,0.1-0.1,0.1C1.4-44.2,1.1-43.7,0.5-43.8z M1-40.9c0,0,0.1,0,0.1,0
			c0.1,0.1,0.1,0.2-0.1,0.2c0,0-0.1-0.1-0.1-0.1C1-40.8,1-40.9,1-40.9z M1.5-19.5c-0.1,0.1-0.2,0.1-0.3,0.1c0,0,0,0-0.1-0.1
			C1.1-19.5,1-19.6,1-19.6c0.1-0.1,0.2-0.3,0.4-0.4c0,0,0.1-0.1,0.2-0.1c0,0.1,0.1,0.2,0.1,0.3C1.7-19.6,1.6-19.5,1.5-19.5z
			 M1.9-41.5c0,0-0.1-0.1-0.1-0.1c0,0,0-0.1,0.1-0.1c0,0,0.1,0,0.1,0C2.1-41.6,2-41.5,1.9-41.5z M4.6-47.2c0-0.1,0.1-0.1,0.1-0.1
			c0.6,0.4,1.2-0.3,1.8-0.1c0.1,0,0.1,0,0.2,0c0.1,0,0.2,0.1,0.2,0.1c0,0.1,0,0.2-0.1,0.3c-0.1,0.1-0.3,0.3-0.5,0.3
			c-0.3,0.1-0.6,0-1.3,0c0.1,0-0.2,0.1-0.3-0.2C4.5-46.9,4.5-47.1,4.6-47.2z M3.1-42.9c0.6-0.2,1-0.6,1.7-0.5c0.2,0,0.4,0,0.6,0
			c0,0,0,0,0,0c0.2,0,0.4,0,0.6,0c0.7,0,0.9,0.1,0.9,0.4c0,0.5-0.5,0.3-0.7,0.5c-0.2,0.2-0.5,0.2-0.7,0.2c-0.3,0-0.7,0-1,0
			c-0.6,0.1-1.2,0-1.4-0.1C2.9-42.4,2.9-42.9,3.1-42.9z M5.2-40.4C5.1-40.3,5-40.3,5-40.4c0,0,0.1-0.1,0.1-0.1c0,0,0.1,0,0.1,0
			C5.2-40.4,5.2-40.4,5.2-40.4z M4.8-39.2c0,0-0.1,0.1-0.1,0.1c0,0-0.1-0.1-0.1-0.1c0,0,0.1-0.1,0.1-0.1C4.7-39.3,4.8-39.2,4.8-39.2
			z M2.4-42.7c-0.1,0-0.1-0.1-0.2-0.1c0,0,0.1-0.1,0.1-0.1c0,0,0.1,0.1,0.1,0.1C2.4-42.8,2.4-42.8,2.4-42.7z M3.4-20.2
			c-0.2,0-0.4,0-0.6,0c-0.1,0-0.1-0.1-0.2-0.2c0,0,0.1-0.1,0.1-0.1c0.1,0,0.2,0,0.4,0c0.1,0,0.1,0,0.2,0c0.1,0,0.2,0.1,0.3,0.2
			C3.5-20.3,3.5-20.2,3.4-20.2z M3.3-40.5c0.2-0.1,0.4-0.1,0.5-0.1c0,0,0.1,0.2,0.1,0.2c-0.1,0-0.2,0.1-0.3,0.1
			C3.6-40.3,3.5-40.4,3.3-40.5z M3.8-24c0,0,0.1-0.1,0.1-0.1c0.1,0,0.2-0.1,0.4-0.1c0.4,0,0.6-0.2,0.6-0.6c0,0,0.2-0.1,0.3-0.1
			c0,0,0.1,0.1,0.1,0.1c0.1,0.7-0.1,0.9-1,0.9c-0.1,0-0.2,0-0.4-0.1C3.9-23.9,3.8-23.9,3.8-24z M6.2-18.4c-0.1,0.1-0.3,0.2-0.5,0.2
			c0,0,0,0,0,0.1l0,0c0,0,0,0,0,0c0-0.3,0.1-0.6-0.3-0.8c-0.4-0.1-0.7-0.3-1-0.5c-0.3-0.1-0.2-0.4-0.2-0.7c0-0.2,0.1-0.4,0.3-0.4
			c0.4,0,0.8,0,1.2,0c0.6,0,0.4,0.3,0.2,0.6c-0.1,0.2-0.1,0.4,0.1,0.5C6-19.3,6.1-19.2,6.2-19C6.5-18.8,6.4-18.6,6.2-18.4z
			 M6.9-39.4c-0.1,0-0.2-0.1-0.3-0.1c0,0,0-0.1,0-0.1c0.1,0,0.2-0.1,0.3-0.1c0.1,0.1,0.2,0.1,0.3,0.2C7.1-39.5,7-39.4,6.9-39.4z
			 M-0.6-12C-0.6-12-0.5-12-0.6-12c0.1,0,0.1,0,0.1,0c0.1,0.1,0.1,0.2-0.1,0.2c0,0-0.1-0.1-0.1-0.1C-0.6-12-0.6-12-0.6-12z
			 M-1.9-11.8C-1.9-11.7-1.9-11.7-1.9-11.8c0.1,0.1,0.2,0.1,0.3,0.2c0.1,0.1,0,0.2-0.1,0.1C-1.8-11.5-1.9-11.6-1.9-11.8
			C-1.9-11.7-1.9-11.7-1.9-11.8L-1.9-11.8z M-2.5-7.7c0.2,0,0.3,0.1,0.5,0.2c-0.1,0.1-0.2,0.1-0.3,0.2c-0.1,0-0.2-0.1-0.3-0.1
			C-2.6-7.5-2.5-7.7-2.5-7.7z M-0.2-4.3c0,0,0.1-0.1,0.1-0.1c0,0,0.1,0.1,0.1,0.1C-0.1-4.1-0.2-4.1-0.2-4.3z M-0.1-6.2
			C-0.2-6-0.3-5.9-0.3-5.7c-0.1,0.4-0.5,0.3-0.8,0.3c0,0,0,0,0,0c0,0,0,0,0,0c0,0.4,0,0.8-0.6,0.9c-0.2,0-0.4,0.2-0.6,0.3
			c0,0,0,0,0,0c0,0,0,0,0,0c-0.1,0.4-0.2,0.6-0.5,0.7c-0.1,0-0.2,0.1-0.3,0.1c-0.1,0-0.1,0-0.2-0.1c0,0-0.1-0.1,0-0.1
			C-3.2-4-2.8-4.2-2.3-4.1c0,0,0,0,0,0l0,0c0,0,0,0,0,0c0,0,0,0,0,0c0-0.4-0.1-0.7,0.5-0.8c0.2,0,0.3-0.2,0.3-0.4c0,0,0,0,0,0
			c0,0,0,0,0,0c-0.1,0-0.2,0-0.2-0.1c0,0,0,0,0,0c-0.1-0.2,0.1-0.2,0.3-0.3c0,0,0,0,0,0c0,0,0,0,0,0C-1.6-5.8-1.6-5.9-1.7-6
			c-0.1-0.1-0.1-0.2-0.2-0.3c0.1,0,0.3-0.2,0.3-0.1c0.4,0.2,0.8,0.2,1.2,0c0,0,0.1,0,0.2,0C0.1-6.4,0.1-6.3-0.1-6.2z M1.5-9.6
			c0.3-0.1,0.6-0.1,0.9,0.1C2.3-9.5,2.3-9.3,2.2-9.3c-0.2,0-0.5,0-0.7-0.1c0,0-0.1-0.1-0.1-0.1C1.4-9.6,1.5-9.6,1.5-9.6z M2-7.6
			c0,0,0,0.1,0,0.1c-0.1,0-0.2,0-0.2-0.1c0,0,0.1-0.1,0.1-0.1C1.9-7.6,1.9-7.6,2-7.6z M1.9-0.6c-0.3,0.2-0.6,0.2-0.9,0
			C1-0.7,1-0.8,0.9-0.9c0,0,0,0,0,0l0,0c0,0,0,0,0,0c0.3,0,0.6-0.1,0.8-0.3c0.3-0.2,0.7-0.2,0.7,0C2.3-1,2.1-0.8,1.9-0.6z M8.7-49
			c0,0,0.1,0.1,0.1,0.1c0,0-0.1,0.1-0.1,0.1c0,0-0.1,0-0.1-0.1C8.7-48.8,8.7-48.9,8.7-49z M7.9-45.8c0.2-0.1,0.3-0.1,0.5,0.1
			c0,0.1-0.1,0.2-0.2,0.2c-0.2,0-0.3-0.1-0.5-0.2C7.8-45.7,7.8-45.7,7.9-45.8z M7.8-44.4c-0.1-0.1,0-0.2,0.2-0.1
			c0.1,0,0.1,0.2,0.1,0.3c0,0,0,0,0,0c0,0,0,0,0,0c0.1,0,0.3,0,0.3,0.3c0,0-0.1,0-0.1,0c0-0.1-0.1-0.2-0.1-0.3c0,0,0,0,0,0
			c0,0,0,0,0,0C8-44.3,7.9-44.3,7.8-44.4z M7.5-16.5c0.1,0,0.2,0,0.4,0c0.1,0,0.2,0,0.4,0.1c0,0,0.1,0,0.1,0c0,0,0,0,0.1,0.1
			c0,0-0.1,0.1-0.1,0.1c0,0-0.1,0.1-0.1,0.1c-0.2,0-0.4,0-0.6,0c-0.1,0-0.1-0.1-0.2-0.2C7.4-16.4,7.5-16.5,7.5-16.5z M5-3.6
			c0-0.1,0.2-0.1,0.3-0.1c0,0,0,0,0,0c0,0,0,0,0,0c0-0.2,0.1-0.3,0.3-0.4c0.1,0,0.1,0,0.2,0c0.1,0,0.1,0.1,0.2,0.2
			c0,0-0.1,0.1-0.1,0.1c-0.2,0-0.4,0-0.5,0c0,0,0,0,0,0l0,0l0,0c0,0,0,0,0,0c0,0.1-0.1,0.2-0.1,0.3C5.1-3.3,5-3.4,5-3.6z M5.1-2.9
			c0,0,0.1,0.2,0.2,0.2C5.1-2.5,4.9-2.5,4.7-2.6c-0.1,0-0.1-0.1-0.1-0.1C4.7-2.8,4.9-2.9,5.1-2.9z M4.9,1.9C4.9,1.9,4.9,1.9,4.9,1.9
			L4.9,1.9C4.9,1.9,4.9,1.9,4.9,1.9C4.8,1.6,4.6,1.5,4.4,1.5C4.1,1.6,3.9,1.8,3.7,1.9c0,0-0.1,0-0.2,0c0,0-0.1-0.1-0.1-0.1
			c0.4-0.5,0.8-1,1.4-1.3c0.3,0.4,0.5,0,0.8,0c0.1,0,0.1,0.2,0.1,0.3C5.7,1.3,5.5,1.8,4.9,1.9z M6,3.8C5.9,3.9,5.8,3.8,5.8,3.7
			c0,0,0.1-0.1,0.1-0.1c0,0,0.1,0,0.1,0.1C6,3.7,6,3.7,6,3.8z M6.3-0.2c-0.1,0-0.1-0.2-0.1-0.3c0,0,0,0-0.1,0c0,0,0,0,0,0
			C5.8-0.4,5.5-0.2,5.2-0.2C5.2-0.1,5-0.3,5-0.4c0-0.1,0-0.3,0.1-0.4C5.3-1,5.7-0.9,6.1-0.5c0,0,0,0,0,0c0,0,0,0,0,0.1
			c0.1,0,0.2,0,0.3,0.1C6.5-0.3,6.4-0.1,6.3-0.2z M6.8,3.4C6.7,3.3,6.5,3.3,6.5,3.2c0-0.2,0.1-0.3,0.2-0.5C6.8,2.9,6.8,3,6.9,3.1
			C6.8,3.2,6.8,3.3,6.8,3.4z M8.8,2.1C8.3,2.5,8.7,3.2,8.2,3.6C8.1,3.7,7.8,3.9,7.8,3.7c0-0.1-0.1-0.3-0.1-0.4C8.2,3,8,2.4,8.3,2
			c0.1-0.1,0.3-0.1,0.4-0.1C8.9,2.1,8.8,1.8,8.8,2.1z M9-5.5c-0.2-0.1-0.3-0.3-0.5,0C8.2-5.1,8-4.7,7.7-4.4C7.6-4.2,7.3-4.1,7.1-4.2
			C6.8-4.3,6.6-4.4,6.3-4.5C6-4.8,5.6-5.3,5.7-5.5c0.2-0.4,0.6-0.3,0.9-0.2C7.1-5.7,7.2-6,7.4-6.4c0.2-0.4,0.4-0.4,0.9-0.2
			c0.2,0.1,0.4,0,0.6,0.1c0.4,0.1,0.4,0.2,0.4,0.8C9.3-5.6,9.3-5.3,9-5.5z M9.5,3c0,0-0.1-0.1-0.1-0.1c0,0,0-0.1,0.1-0.1
			c0,0,0.1,0,0.1,0C9.7,2.9,9.6,3,9.5,3z M10.7,1.9c-0.1,0.1-0.2,0.3-0.5,0.2C10,2.1,9.9,2,9.7,1.9c0,0,0,0,0,0c0,0,0,0-0.1,0
			c0,0.1-0.1,0.2-0.1,0.3c-0.1,0.1-0.2,0-0.1-0.1C9.5,2,9.5,2,9.6,2c0,0,0.1,0,0.1,0c0,0,0,0,0-0.1c0,0,0,0,0,0
			c0-0.2,0.1-0.3,0.3-0.4c0.1,0,0.3,0,0.5,0c0.1,0,0.2,0.1,0.4,0.1C10.8,1.7,10.8,1.9,10.7,1.9z M11.1-39.5c0,0-0.1-0.1-0.1-0.1
			c0,0,0.1-0.1,0.1-0.1c0,0,0.1,0.1,0.1,0.1C11.2-39.6,11.1-39.5,11.1-39.5z M11-43.2c0,0,0-0.1,0-0.1c0,0,0.1,0,0.1,0
			c0,0.1,0,0.2-0.1,0.2C11.1-43.1,11-43.1,11-43.2z M10.3-47.1c-0.1-0.1-0.2-0.2-0.3-0.3c-0.1-0.1-0.1-0.2-0.2-0.3
			c0,0,0.1-0.1,0.2-0.1c0.4,0,0.9,0,1.3,0c0,0,0,0,0,0c0,0,0,0,0.1,0c0-0.1,0-0.2,0.1-0.3c0.1-0.1,0.2,0,0.1,0.1
			c0,0.1-0.2,0.1-0.3,0.1c0,0,0,0,0,0.1c0,0,0,0-0.1,0C11.2-47.3,10.5-47.4,10.3-47.1z M11.6-45.1C11.6-45.1,11.5-45.1,11.6-45.1
			c-0.3,0-0.2-0.1,0-0.2c0,0,0,0,0.1,0C11.6-45.3,11.6-45.2,11.6-45.1C11.6-45.2,11.6-45.2,11.6-45.1z M11.8-46.7
			c-0.1,0-0.2,0-0.2-0.1c-0.1,0-0.1-0.1-0.2-0.1l0,0l0,0c0,0,0,0,0.1-0.1c0,0,0,0,0.1,0c0.2-0.1,0.3-0.1,0.5,0.1
			C11.9-46.8,11.9-46.7,11.8-46.7z M12.7,0c0,0,0.1,0.1,0.1,0.1c0,0-0.1,0.1-0.1,0.1C12.5,0.1,12.5,0,12.7,0z M13.2,1.7
			c0,0.1-0.1,0.1-0.2,0.1c0,0,0,0,0,0.1c0,0,0,0-0.1,0c0,0.1-0.1,0.2-0.1,0.3c0,0-0.1,0-0.1,0c0-0.2,0.1-0.2,0.2-0.2c0,0,0,0,0,0
			c0,0,0,0,0.1,0c0-0.1,0-0.2,0.1-0.2C13.2,1.5,13.3,1.6,13.2,1.7z M16.3-49.5c0,0-0.1-0.1-0.1-0.1c0,0,0-0.1,0.1-0.1
			c0,0,0.1,0,0.1,0C16.5-49.7,16.5-49.6,16.3-49.5z M16.8,4.6c-0.1,0.1-0.2,0.1-0.2-0.1c0,0,0.1-0.1,0.1-0.1c0,0,0.1,0,0.1,0.1
			C16.8,4.5,16.8,4.5,16.8,4.6z M16.8-48c-0.1,0.1-0.2,0.1-0.2-0.1c0,0,0.1-0.1,0.1-0.1c0,0,0.1,0,0.1,0.1C16.8-48,16.8-48,16.8-48z
			 M17.5-39.1c0,0-0.1-0.1-0.1-0.1c0,0,0-0.1,0.1-0.1c0,0,0.1,0,0.1,0C17.7-39.2,17.7-39.1,17.5-39.1z M17.9-48.1c0,0,0.1,0,0.1,0
			c0,0.1,0,0.2-0.1,0.2c0,0-0.1-0.1-0.1-0.1C17.8-48,17.9-48.1,17.9-48.1z M20.4,1.8c-0.1,0-0.1-0.1-0.2-0.1c0,0,0.1-0.1,0.1-0.1
			c0,0,0.1,0.1,0.1,0.1C20.4,1.7,20.4,1.7,20.4,1.8z M20.1-41.4c-0.1,0-0.3,0-0.4,0c0,0,0,0,0,0c0,0,0,0,0,0c0,0.1,0,0.3,0,0.4
			c0,0,0,0,0,0c0,0,0,0,0,0c0.1,0,0.2,0,0.3,0c0.1,0,0.2,0.1,0.3,0.1c0.1,0.1-0.2,0.3-0.4,0.2c-0.2,0-0.3-0.2-0.3-0.4c0,0,0,0,0,0
			c0,0,0,0,0,0c-0.1,0.1-0.2,0.1-0.3,0.2c-0.2,0.2,0,0.7-0.6,0.4c-0.3-0.2-0.6-0.2-0.9-0.2c-0.2,0-0.1-0.1,0-0.3
			c0.2-0.3,0.4-0.5,0.8-0.1c0.3-0.2,0.6-0.4,1-0.3c0,0,0,0,0,0c0,0,0,0,0,0c-0.1-0.2-0.2-0.3-0.3-0.5c-0.1-0.2-0.1-0.4,0-0.5
			c0.1-0.2,0.4-0.2,0.7,0c0.1,0.1,0.2,0.2,0.3,0.3C20.6-41.8,20.5-41.5,20.1-41.4z M20.8-47.1c-0.1,0-0.1-0.1-0.2-0.1
			c0,0,0.1-0.1,0.1-0.1c0,0,0.1,0.1,0.1,0.1C20.8-47.2,20.8-47.2,20.8-47.1z M22.7-49.9c-0.1,0-0.1,0-0.2,0c-0.2,0-0.3-0.2-0.4-0.4
			c0-0.2-0.2-0.3-0.4-0.3c-0.2,0-0.3,0.1-0.4,0.3c0,0.1,0,0.3,0,0.4c-0.1,0.4-0.1,0.4-0.5,0.2c-0.1-0.1-0.2-0.1-0.3-0.1c0,0,0,0,0,0
			c0,0,0,0-0.1,0c0,0.1,0,0.2-0.1,0.2c-0.1,0.1-0.2,0-0.1-0.1c0-0.1,0.2-0.1,0.2-0.1c0,0,0,0,0,0c0,0,0,0,0,0
			c-0.2-0.5-0.7-0.9-1.2-1.2c0,0,0,0,0,0c0,0,0,0,0,0c0,0.3-0.2,0.4-0.5,0.4c-0.2,0-0.3-0.2-0.3-0.4c0-0.1,0-0.1,0-0.2
			c0.1-0.2,0.1-0.2,0.3,0c0.1,0.1,0.3,0.2,0.4,0.2c0,0,0,0,0,0c0,0,0,0,0,0c0.1-0.3,0.3-0.5,0.4-0.8c0,0,0,0,0,0l0,0c0,0,0,0,0,0
			c0.5,0.3,1,0.4,1.6,0.4c0.6-0.1,1,0.2,1.2,0.8c0.1,0.2,0.2,0.4,0.3,0.7C22.9-50,22.8-49.9,22.7-49.9z M23.9-48.7
			c0,0-0.1-0.1-0.1-0.1c0-0.1,0.1-0.1,0.1-0.1c0,0.1,0.1,0.1,0.1,0.1C24-48.8,24-48.7,23.9-48.7z M23.9-49.5c0,0-0.1-0.1-0.1-0.1
			c-0.1-0.3,0.2-0.6,0.5-0.6c0.1,0,0.1,0.1,0.1,0.1C24.5-49.9,24.1-49.5,23.9-49.5z M26.9-50.6c-0.1,0.1-0.1,0.2-0.2,0.3
			c-0.1-0.1-0.2-0.2-0.2-0.3c0-0.2,0-0.4,0-0.6c0-0.1,0.1-0.1,0.2-0.1c0,0,0.1,0.1,0.1,0.1c0,0.1,0,0.2,0,0.4c0,0,0,0,0,0
			C27-50.7,27-50.7,26.9-50.6z M30-51.4c0,0,0.1,0.1,0.1,0.1c0,0-0.1,0.1-0.1,0.1c0,0-0.1,0-0.1-0.1C29.9-51.2,30-51.3,30-51.4z
			 M30.1-50c-0.4,0.3-1,0-1.3,0.5c-0.1-0.1-0.1-0.2-0.1-0.2c0-0.1,0-0.2,0-0.2c0.4-0.3,0.8-0.6,1.3-0.7c0.1,0,0.2,0.1,0.2,0.2
			C30.1-50.2,30.1-50.1,30.1-50z M30.4,3.4c-0.1,0.1-0.2,0.1-0.2-0.1c0,0,0.1-0.1,0.1-0.1c0,0,0,0,0.1,0s0,0,0.1,0
			C30.5,3.3,30.5,3.3,30.4,3.4C30.5,3.3,30.5,3.4,30.4,3.4z M33.6-50.3L33.6-50.3L33.6-50.3c-0.1,0-0.1-0.1-0.2-0.1
			c0,0,0.1-0.1,0.1-0.1c0,0,0.1,0.1,0.1,0.1C33.7-50.4,33.6-50.4,33.6-50.3z M39.3-50.4c-0.1,0.1-0.4,0.1-0.5,0.1
			c-0.2-0.1-0.3-0.4-0.5-0.6c0.2-0.1,0.3-0.2,0.4-0.2c0.2,0,0.3,0,0.4,0.1C39.4-51,39.5-50.5,39.3-50.4z M43.5,3.9
			c-0.3,0.1-0.6,0-0.9,0c0,0,0,0,0,0c0,0,0,0,0,0c0,0.1-0.1,0.2-0.1,0.3c-0.2,0.1-0.2-0.1-0.2-0.3c0,0,0,0,0,0c0,0,0,0,0-0.1
			c-0.1,0-0.2-0.1-0.3-0.1c-0.1-0.1,0-0.2,0.2-0.1c0.1,0,0.1,0.2,0.1,0.3c0,0,0,0,0.1,0c0,0,0,0,0,0c0.1,0,0.2,0,0.4,0c0,0,0,0,0,0
			c0,0,0,0,0,0c0.1-0.4,0.4-0.6,0.7-0.7c0.2-0.1,0.4,0.1,0.4,0.3C43.7,3.6,43.6,3.8,43.5,3.9z M44.1-50.4c-0.1,0-0.1,0.1-0.2,0.1
			c0,0-0.1-0.1-0.1-0.1c0,0,0.1-0.1,0.1-0.1C44.1-50.5,44.1-50.5,44.1-50.4L44.1-50.4L44.1-50.4z M45.2-50.3
			c-0.1,0.1-0.2,0.1-0.3,0.1c0,0-0.1-0.1-0.1-0.1s-0.1-0.1-0.1-0.1c0.1-0.1,0.2-0.3,0.4-0.4c0,0,0.1-0.1,0.2-0.1
			c0,0.1,0.1,0.2,0.1,0.3C45.4-50.5,45.3-50.4,45.2-50.3z M48.7-49.3c0.1,0,0.3-0.1,0.4-0.1c0.1,0,0.1,0.1,0.2,0.2
			c-0.1,0-0.2,0.1-0.4,0.1C48.9-49.1,48.8-49.2,48.7-49.3z M49.3-48c-0.1,0.1-0.2,0.1-0.2-0.1c0,0,0.1-0.1,0.1-0.1
			c0,0,0.1,0,0.1,0.1C49.3-48.1,49.3-48,49.3-48z M49.6-50.7c0,0-0.1,0-0.1-0.1c0-0.1,0.1-0.1,0.1-0.2c0,0,0.1,0.1,0.1,0.1
			C49.7-50.8,49.7-50.8,49.6-50.7z M50.5-50.3c0,0-0.1,0-0.1,0c0-0.2,0.1-0.2,0.2-0.2c0,0,0,0,0,0l0,0c0,0,0,0-0.1,0
			C50.5-50.5,50.5-50.4,50.5-50.3z M52.7-49.5c-0.6,0-1.2,0-1.7,0.4c-0.1,0-0.2-0.1-0.3-0.1c0.1-0.1,0.1-0.2,0.2-0.3
			c0.1-0.1,0.3-0.3,0.5-0.3c0.3-0.1,0.5,0,0.8,0c0,0,0,0,0,0c0.2,0,0.4,0,0.6,0c0.1,0,0.2,0.1,0.1,0.1
			C52.9-49.6,52.8-49.5,52.7-49.5z M52.9-50.4c-0.1,0-0.2-0.1-0.2-0.2c0-0.2,0.1-0.3,0.2-0.5c0,0,0.1,0.1,0.1,0.1
			C53-50.7,53.1-50.5,52.9-50.4z M55.6-48.7c0,0-0.1-0.1-0.1-0.1c0,0,0-0.1,0.1-0.1c0,0,0.1,0,0.1,0C55.8-48.8,55.8-48.8,55.6-48.7z
			 M57.4-48.8c-0.1,0.1-0.2,0.1-0.3,0c-0.1-0.1-0.2-0.2-0.3-0.3c0,0,0-0.1-0.1-0.2c0.1,0,0.1,0,0.2-0.1c0.1,0,0.1,0,0.2,0
			c0.2,0,0.4,0.2,0.3,0.4C57.4-48.9,57.4-48.9,57.4-48.8z M59.7,1.8c0,0-0.1,0-0.1-0.1c0-0.1,0.1-0.1,0.1-0.2c0,0,0.1,0.1,0.1,0.1
			C59.8,1.7,59.7,1.8,59.7,1.8z M68.1,1.8c-0.3,0.1-0.5,0-0.6-0.3c0-0.1,0-0.2,0.1-0.3c0,0,0.2,0,0.3,0.1C68,1.4,68,1.5,68.1,1.6
			C68.3,1.7,68.2,1.8,68.1,1.8z M72.3-48.7C72.3-48.6,72.3-48.6,72.3-48.7C72.3-48.6,72.3-48.6,72.3-48.7c-0.1,0.3-0.2,0.4-0.4,0.4
			c0,0,0,0,0,0c0,0,0,0,0,0c0,0.3-0.2,0.4-0.5,0.4c-0.2,0-0.4-0.1-0.5-0.1c0,0,0-0.1,0-0.1c0-0.1,0.1-0.1,0.1-0.1c0.3,0,0.6,0,0.9,0
			c0,0,0,0,0,0c0,0,0,0,0,0C71.9-48.5,72-48.6,72.3-48.7C72.3-48.6,72.3-48.6,72.3-48.7C72.3-48.7,72.3-48.7,72.3-48.7
			c0-0.1,0.1-0.2,0.1-0.3c0,0,0.1,0,0.1,0C72.6-48.7,72.5-48.7,72.3-48.7z M80.5,0.6c-0.1,0-0.1-0.1-0.2-0.1c0,0,0.1-0.1,0.1-0.1
			c0,0,0.1,0.1,0.1,0.1C80.6,0.5,80.6,0.6,80.5,0.6z M86.1,2.2c-0.2-0.1-0.2-0.2,0-0.3c0,0,0.1,0.1,0.1,0.1
			C86.2,2.2,86.1,2.2,86.1,2.2z M91.7-4c0,0,0.1,0.1,0.1,0.1c-0.1,0.2-0.2,0.2-0.3,0C91.6-3.9,91.7-4,91.7-4z M91.8-0.3
			c-0.2,0.1-0.3-0.1-0.4-0.2c-0.1-0.1-0.2-0.3-0.2-0.4c0,0,0,0-0.1,0c0,0,0,0,0,0c-0.3,0-0.7,0.1-0.8-0.3c-0.1-0.3-0.2-0.4-0.5-0.4
			c-0.1,0-0.3,0-0.4,0c-0.3-0.1-0.7-0.6-0.5-0.7c0.2-0.1,0.6-0.2,0.7-0.1c0.6,0.4,1.4,0.4,2,0.8c0.1,0.1,0.1,0.2,0.2,0.2
			c-0.1,0-0.2,0.1-0.3,0.1c-0.2,0.1-0.3,0.2-0.3,0.4c0,0,0,0,0,0c0,0,0,0,0,0c0.1,0,0.2,0,0.3,0c0.3,0,0.4,0.2,0.4,0.5
			C91.9-0.4,91.9-0.3,91.8-0.3z M94.7,0.8C94.7,0.8,94.7,0.8,94.7,0.8c0,0.3,0,0.5,0,0.8c0,0.1-0.1,0.1-0.2,0.2c0,0-0.1-0.1-0.1-0.1
			c0-0.6,0-1.3,0-1.9c0-0.1,0.1-0.1,0.1-0.2c0.1,0.1,0.2,0.2,0.2,0.3C94.8,0.1,94.7,0.5,94.7,0.8z M95.8,1L95.8,1L95.8,1
			c-0.1,0-0.1-0.1-0.2-0.1c0,0,0.1-0.1,0.1-0.1c0,0,0.1,0.1,0.1,0.1C95.8,0.9,95.8,1,95.8,1z M96.9,0.6c-0.2-0.1-0.2-0.2,0-0.3
			c0,0,0.1,0.1,0.1,0.1C97,0.5,97,0.6,96.9,0.6z M102.4,0.9c0,0,0.1-0.1,0.1-0.1c0,0,0.1,0.1,0.1,0.1C102.6,1.1,102.5,1.1,102.4,0.9
			z M104.2,0.6c-0.1,0.1-0.2,0.1-0.2-0.1c0,0,0.1-0.1,0.1-0.1c0,0,0.1,0,0.1,0C104.3,0.5,104.3,0.5,104.2,0.6z M107.4-50.7
			c-0.1,0-0.1-0.1-0.2-0.1c0,0,0.1-0.1,0.1-0.1c0,0,0.1,0.1,0.1,0.1C107.5-50.8,107.4-50.8,107.4-50.7z M108.6,0.2L108.6,0.2
			L108.6,0.2c-0.1,0-0.1-0.1-0.2-0.1c0,0,0.1-0.1,0.1-0.1c0,0,0.1,0.1,0.1,0.1C108.7,0.1,108.7,0.1,108.6,0.2z M111-50.5
			c0.1,0.1,0.1,0.2,0.1,0.3c0,0,0,0,0,0l0,0c0,0,0,0,0,0c-0.1,0-0.2-0.1-0.3-0.1C110.8-50.5,110.9-50.6,111-50.5z M111.2-49.8
			c0,0.1-0.1,0.2-0.1,0.3c-0.1,0.1-0.2,0-0.1-0.1C110.9-49.8,111.1-49.8,111.2-49.8C111.2-49.8,111.2-49.8,111.2-49.8L111.2-49.8
			C111.2-49.8,111.2-49.8,111.2-49.8z M113.4-4.2c0,0-0.1-0.1-0.1-0.1l0,0h0c0.1,0,0.1-0.1,0.1-0.1c0.1,0,0.1,0.1,0.1,0.1
			C113.5-4.3,113.4-4.2,113.4-4.2z M115.2-49.9c-0.1,0-0.2-0.1-0.3-0.1c0.1-0.1,0.1-0.2,0.2-0.2c0.2,0,0.3,0.1,0.5,0.2
			C115.4-50,115.3-49.9,115.2-49.9z M116.7-3.4c-0.2,0.1-0.4,0.1-0.5,0c-0.2-0.1-0.2-0.3-0.1-0.5c0-0.1,0.1-0.1,0.1-0.2
			c0.2,0.2,0.4,0.4,0.5,0.6C116.7-3.5,116.7-3.4,116.7-3.4z M117.4-1.4c0,0-0.1-0.1-0.1-0.1c0,0,0-0.1,0-0.1c0,0,0.1,0,0.1,0h0
			C117.4-1.5,117.4-1.4,117.4-1.4z M117.7-46.7c-0.1,0-0.3,0-0.4,0c-0.1-0.2-0.2-0.5-0.4-0.7c-0.2-0.3,0.1-0.4,0.1-0.7
			c0.1-0.3,0.2-0.6,0.5-0.8c0.1-0.1,0.4-0.2,0.5-0.1c0.2,0,0.6,0.6,0.6,0.7C118.5-47.7,118.4-47,117.7-46.7z M119.8,0.6
			c-0.1,0-0.1,0.1-0.2,0.1c-0.1,0-0.2-0.1-0.3-0.1c0,0,0-0.1,0.1-0.1c0.1-0.1,0.3-0.3,0.4-0.4c0,0,0.1,0,0.2,0.1c0,0,0.1,0,0.1,0
			c0,0.1,0,0.2,0,0.3C119.9,0.5,119.9,0.6,119.8,0.6z M121,0.6c0,0-0.1-0.1-0.1-0.1c0,0,0-0.1,0.1-0.1c0,0,0.1,0,0.1,0
			C121.2,0.5,121.1,0.6,121,0.6z M121.8,0.2c0,0-0.1-0.1-0.1-0.1c0,0,0-0.1,0-0.1c0,0,0.1,0,0.1,0C122,0.1,121.9,0.2,121.8,0.2z
			 M122-2.1c-0.1,0-0.1,0-0.3,0c-0.1,0-0.2,0-0.3,0c-0.1,0-0.1-0.1-0.1-0.1c0.1-0.1,0.1-0.2,0.2-0.3c0.2,0,0.4,0,0.6,0
			c0.1,0,0.2,0.1,0.3,0.2C122.2-2.2,122.1-2.2,122-2.1z M123.7-1.4c-0.3,0.1-0.5-0.1-0.5-0.4c0-0.2,0.1-0.3,0.3-0.3
			c0.2,0,0.3,0.1,0.4,0.3C124-1.6,123.9-1.4,123.7-1.4z M124.1-2.5c-0.1,0.1-0.3,0-0.3-0.1c0-0.1,0.1-0.2,0.2-0.2
			c0.1,0,0.2,0.1,0.4,0.1C124.2-2.7,124.1-2.6,124.1-2.5z M125.8-49c0.1,0,0.1,0.1,0.2,0.1c0.1,0.1,0.3,0.2,0.5,0.3
			c-0.1,0.1-0.2,0.3-0.3,0.3c-0.3,0-0.5,0-0.5-0.4C125.7-48.8,125.7-48.9,125.8-49z M128.6-4.8c-0.3,0.5-0.9,0.1-1.2,0.5
			c-0.2,0.3-0.3,0.7-0.7,0.9c-0.3,0.1-0.6,0.1-0.8,0.1c-0.8,0-0.5-0.3-0.3-0.6c-0.2-0.1-0.3-0.2-0.5-0.2c-0.2-0.1-0.2-0.2-0.1-0.3
			c0.1-0.1,0.3-0.4,0.4-0.4c0.4-0.1,0.9-0.1,1.4-0.1c0.4,0,0.7-0.6,1.3-0.4c0.1,0,0.3,0,0.4,0c0.1,0,0.2,0.1,0.4,0.1
			C128.7-5,128.6-4.9,128.6-4.8z M130.5-48.4c0,0,0.1-0.1,0.1-0.1c0,0,0.1,0,0.1,0.1c0,0,0,0.1,0,0.1
			C130.6-48.3,130.6-48.3,130.5-48.4z M131.3-46.8c-0.2-0.1-0.4-0.1-0.5-0.2c-0.1,0-0.1-0.2-0.2-0.2c0.1,0,0.2-0.1,0.3-0.1
			c0.1,0,0.1,0,0.2,0c0.2,0,0.3,0.1,0.4,0.1c0.2,0.1,0.2,0.2,0.2,0.3C131.6-46.8,131.5-46.7,131.3-46.8z M131.9-3.8
			c0,0-0.1,0-0.1-0.1c0-0.1,0.1-0.1,0.1-0.2c0,0,0.1,0.1,0.1,0.1C132-3.9,131.9-3.8,131.9-3.8z M135.2-47
			C135.2-47,135.2-47,135.2-47L135.2-47c-0.1-0.1-0.2-0.1-0.3-0.2c0.2-0.1,0.3-0.1,0.5-0.2c0,0,0.1,0.2,0.1,0.2
			C135.4-47.1,135.3-47.1,135.2-47z M139.4-47.2C139.3-47.2,139.3-47.2,139.4-47.2c0-0.3,0.6-0.6,0.8-0.6c0,0,0.1,0.1,0.1,0.1
			c0,0,0,0.1,0,0.1c-0.1,0.2-0.2,0.3-0.3,0.4c-0.1,0.1-0.2,0.1-0.4,0.2C139.5-47.1,139.4-47.1,139.4-47.2z M141.7,0.3
			c-0.6,0.1-1.2-0.1-1.7,0.2c-0.1,0-0.1,0.1-0.2,0.1c-0.1-0.1-0.2-0.1-0.2-0.2c0-0.1,0-0.3,0.1-0.3c0.5-0.2,1-0.2,1.4-0.5
			c0.2-0.1,0.4,0.2,0.6,0.4c0,0,0.1,0.1,0.1,0.2C141.9,0.1,141.8,0.3,141.7,0.3z M143.5-1.4c-0.2-0.1-0.2-0.2,0-0.3
			c0,0,0.1,0.1,0.1,0.1C143.5-1.5,143.5-1.4,143.5-1.4z M152.7-30.9c0.2-0.1,0.3-0.1,0.5,0.1c0,0.1-0.1,0.2-0.1,0.2
			c-0.2,0-0.3-0.1-0.5-0.2C152.6-30.8,152.6-30.9,152.7-30.9z M151.9-38.7c-0.1,0.1-0.2,0-0.1-0.1c0-0.1,0.2-0.1,0.2-0.1
			c0,0,0,0,0-0.1l0,0c0,0,0,0-0.1,0C152-38.9,152-38.8,151.9-38.7z M152.3-22.3c0,0-0.2-0.2-0.2-0.2c0-0.1,0-0.2,0.1-0.4
			c0.1-0.2,0.2-0.3,0.3-0.5c0,0,0,0,0,0c0,0,0,0,0-0.1c-0.1,0-0.2,0-0.2-0.1c-0.1-0.1,0-0.2,0.1-0.1c0.1,0,0.1,0.1,0.1,0.2
			c0,0,0,0,0.1,0c0,0,0,0,0,0c0.2,0,0.4,0.1,0.4,0.3C152.9-22.6,152.6-22.5,152.3-22.3z M153.5-23.1L153.5-23.1L153.5-23.1
			c-0.1,0-0.1-0.1-0.2-0.1c0,0,0.1-0.1,0.1-0.1c0,0,0.1,0.1,0.1,0.1C153.6-23.1,153.6-23.1,153.5-23.1z M153.6-24.4
			c-0.2,0.2-0.8,0.3-1,0c-0.1-0.1-0.2-0.4,0-0.5c0.2-0.2,0.3-0.3,0.6-0.4c0.1-0.1,0.5,0.5,0.5,0.7C153.7-24.5,153.7-24.4,153.6-24.4
			z M154.7-25.5c-0.1,0.1-0.2,0-0.1-0.1c0-0.1,0.2-0.1,0.3-0.1c0,0,0,0,0,0l0,0c0,0,0,0,0,0C154.8-25.6,154.8-25.5,154.7-25.5z
			 M155.8-22.2c-0.3,0.1-0.5-0.1-0.5-0.4c0-0.2,0.1-0.3,0.3-0.3c0.2,0,0.3,0.1,0.4,0.3C156.1-22.4,156-22.3,155.8-22.2z"/>
		<path class="st3" d="M98.4,1.5C98.4,1.5,98.4,1.5,98.4,1.5C98.3,1.5,98.3,1.5,98.4,1.5L98.4,1.5z"/>
		<path class="st3" d="M1.6,4.3c-0.2,0-0.3,0.1-0.3,0.4c0,0.2,0.1,0.3,0.3,0.3c0.3,0,0.5-0.2,0.4-0.5C2,4.4,1.8,4.3,1.6,4.3z"/>
		<path class="st3" d="M98.3,1.5C98.3,1.5,98.3,1.5,98.3,1.5L98.3,1.5C98.3,1.5,98.3,1.5,98.3,1.5z"/>
		<path class="st3" d="M97.7,1.6c0.1,0.1,0.1,0.2,0.2,0.2c0.3,0.1,0.5-0.1,0.5-0.3c-0.2,0-0.4,0-0.5,0C97.7,1.5,97.7,1.6,97.7,1.6z"
			/>
		<path class="st3" d="M19.7,5c0,0-0.1-0.1-0.2-0.1c-0.2,0.1-0.1,0.3-0.1,0.5c0,0.1,0.1,0.1,0.1,0.1C19.6,5.3,19.7,5.1,19.7,5z"/>
		<path class="st3" d="M3.1,4.4c0,0-0.1,0.1-0.1,0.1c0.1,0,0.1,0.1,0.2,0.1c0,0,0-0.1,0.1-0.1C3.2,4.5,3.1,4.4,3.1,4.4z"/>
	</g>
	<rect x="93.9" y="-1.2" class="st3" width="1.2" height="3.1"/>
</g>
</svg>
