<?xml version="1.0" encoding="utf-8"?>
<!-- Generator: Adobe Illustrator 27.4.1, SVG Export Plug-In . SVG Version: 6.00 Build 0)  -->
<svg version="1.1" xmlns="http://www.w3.org/2000/svg" xmlns:xlink="http://www.w3.org/1999/xlink" x="0px" y="0px"
	 viewBox="0 0 93 24.6" style="enable-background:new 0 0 93 24.6;" xml:space="preserve">
<style type="text/css">
	.st0{display:none;}
	.st1{display:inline;fill:#F5F4EB;}
	.st2{fill:#231F33;}
	.st3{fill:#0A0931;}
	.st4{fill-rule:evenodd;clip-rule:evenodd;fill:#231F33;}
</style>
<g id="BACKGROUND_1_" class="st0">
	<rect x="-366.6" y="-350.5" class="st1" width="500" height="500"/>
</g>
<g id="OBJECTS">
	<g>
		<path class="st3" d="M4.1,17.8c0.5-0.6,0.6-0.7,1.2-1.2c0-0.1-0.1-0.1-0.4,0.1c-0.2,0.3-1.1,1.2-1.5,1.7C3.7,18,4,17.8,4.1,17.8z"
			/>
		<path class="st3" d="M8.3,13.9c-0.1,0-0.4,0.2-0.5,0.3c0,0-0.1,0.1,0,0.1C8,14.2,8.1,14.1,8.3,13.9z"/>
		<path class="st3" d="M9.5,12.9c-0.4,0.3-1.1,0.9-1,0.9C8.7,13.5,9.4,13.1,9.5,12.9z"/>
		<path class="st3" d="M13.8,9c0.2-0.2,0.4-0.3,0.6-0.3C14.5,8.5,13.7,9,13.8,9z"/>
		<path class="st3" d="M15.9,8.6c0.2-0.1,0.7-0.4,0.7-0.5C16.4,8.2,16,8.4,15.9,8.6z"/>
		<path class="st3" d="M21,9.9c-0.3,0.2-0.5,0.3-0.6,0.4c0.1,0,0.1,0,0.1,0c0.2-0.1,0.4-0.2,0.4-0.2C20.2,10.4,21.2,9.9,21,9.9z"/>
		<path class="st3" d="M18.5,6.5c0,0,0.2-0.1,0.3-0.2c0-0.1-0.4,0.1-0.7,0.2c-0.3,0.1-0.5,0.3-0.5,0.4C18,6.7,18,6.6,18.2,6.5
			C18.2,6.6,18.3,6.6,18.5,6.5z"/>
		<path class="st3" d="M24.8,3.8c-0.2,0.1-0.3,0.1-0.5,0.2c0.2,0.1,0.9-0.3,1.2-0.3C25.1,3.8,25.4,3.7,24.8,3.8c0.1,0.1,0.4,0,0.6,0
			c0.2-0.1,0.9-0.4,1.1-0.4c0.2-0.1,0,0-0.1-0.1c-0.3,0.1-1.2,0.4-0.8,0.2c0.3,0,1-0.4,1.4-0.4c-0.2,0.1-0.2,0.1-0.2,0.2
			c0.5-0.2,0.4-0.1,0.6-0.3c0.4-0.1-0.2,0.2,0.3,0c0.4-0.1-0.1,0,0.6-0.2c-0.2,0.1,1.3-0.3,1.4-0.4c-0.6,0.1-0.8,0.2-1.1,0.3
			c-1.8,0.3-4.4,1.1-6.5,2.1c-0.2,0-0.6,0.2-0.8,0.2C20.7,5.4,19,6,19,6.1c1-0.5,2.7-1.2,4.1-1.7C23.8,4.1,24.5,3.8,24.8,3.8z"/>
		<path class="st3" d="M27.6,7.5c0.1-0.2-1,0.3-0.5,0c-0.5,0.2-1,0.3-1.3,0.5c0.6-0.2,0.3,0,0.2,0c0.2-0.1,0.4-0.1,0.5-0.1
			c0.2-0.1,0-0.1,0.1-0.2c0.4-0.1,0.4,0,0.8-0.1c0.4-0.2,0.5-0.2,0.9-0.3c-0.1-0.1,0.8-0.3,1.1-0.4c0,0,0.2,0,0.2,0
			c0.3-0.1,0.8-0.2,1.2-0.3c0,0,0.1-0.1,0.2-0.1c0.7-0.1,1.4-0.2,2-0.4C33.4,6,34,5.9,34.5,5.9l0,0c0,0,0,0-0.1,0
			C33.8,5.9,33.3,6,32.8,6c-0.5,0.1-1,0.2-1.4,0.3c-1,0.2-2,0.5-3.4,0.9C27.8,7.3,27.8,7.4,27.6,7.5z"/>
		<path class="st3" d="M27.1,7.8L27.1,7.8c0.4-0.1,0.4-0.1,0.7-0.2c-0.1-0.1-0.2,0-0.5,0.1C27.4,7.8,27.3,7.8,27.1,7.8z"/>
		<path class="st3" d="M30.6,6.8C30.1,6.9,30,6.9,29.6,7C29.6,7.2,30.6,6.8,30.6,6.8z"/>
		<path class="st3" d="M34.7,5.8c0.5-0.1,0.7-0.1,0.9,0C35.9,5.6,34.7,5.6,34.7,5.8z"/>
		<path class="st3" d="M34.3,5c0.4-0.1,0.9-0.1,1.2-0.2C35,4.9,34.6,4.9,34.3,5z"/>
		<path class="st3" d="M36.8,5.2c-0.3,0-0.6,0.1-0.7,0.2C36.4,5.3,37,5.3,36.8,5.2z"/>
		<path class="st3" d="M40.8,5.2c-0.2-0.2-0.8,0-1.3,0C39.4,5.4,40.2,5.1,40.8,5.2z"/>
		<path class="st3" d="M40.1,6c0.1,0,0.8,0,0.8-0.1C40.8,5.9,40.2,5.9,40.1,6z"/>
		<path class="st3" d="M42,5.5c0,0-0.1,0-0.2,0c0,0.1,0.3,0.1,0.5,0.1c0-0.1,0.2-0.1-0.2-0.1C42.1,5.4,42.1,5.5,42,5.5z"/>
		<path class="st3" d="M42.5,5.2c0.3-0.1,1,0.1,1.8,0c-0.1-0.1-1.4,0-1-0.2c-0.7,0.1-0.9,0.1-1.7,0.1C41.6,5.2,42.2,5.1,42.5,5.2z"
			/>
		<path class="st3" d="M43.1,4.6c0.4-0.1,0.6,0,0.7-0.1C43.5,4.5,43.1,4.6,43.1,4.6z"/>
		<path class="st3" d="M43.4,5c0.3,0,0.7,0.1,1,0C44,5.1,43.6,5,43.4,5z"/>
		<path class="st3" d="M45.5,6c-0.2,0-0.6,0-0.6,0C45.1,6,45.6,6.1,45.5,6z"/>
		<path class="st3" d="M47.1,10.1c-0.3,0-0.9-0.1-1,0C46.6,10,47,10.2,47.1,10.1z"/>
		<path class="st3" d="M46.1,5.3c-0.2,0-0.6,0-0.7,0C45.6,5.4,46.2,5.4,46.1,5.3z"/>
		<path class="st3" d="M47.3,10.1c0.4,0,0.2,0.1,0.5,0.1C48.3,10.2,47.2,10,47.3,10.1z"/>
		<path class="st3" d="M49.2,10.4c0.6-0.1,1.7,0.2,2.4,0.3c-0.4-0.1-1.3-0.3-2-0.4c-0.4-0.1-1.1-0.2-1.2-0.1c0.1,0,0.3,0,0.2,0.1
			C49,10.4,48.8,10.2,49.2,10.4C49.2,10.4,49,10.4,49.2,10.4z"/>
		<path class="st3" d="M47.8,6.1c0.2,0,0.3,0.1,0.7,0.1C48.5,6.1,47.8,6,47.8,6.1z"/>
		<path class="st3" d="M48.1,2.7c0.3,0.1-0.7,0-0.7,0c0.5,0,0.7,0.1,1.1,0.1C48.4,2.8,48.4,2.7,48.1,2.7z"/>
		<path class="st3" d="M49,6.2c-0.2,0-0.4,0-0.5,0c0.2,0,0.5,0.1,0.7,0.1C49.2,6.2,49.1,6.2,49,6.2z"/>
		<path class="st3" d="M51.6,12.1C51.6,12.1,51.6,12.1,51.6,12.1c0.1,0.1,0.3,0.1,0.4,0.1c0,0,0,0,0,0
			C51.9,12.1,51.7,12.1,51.6,12.1C51.6,12.1,51.6,12.1,51.6,12.1z"/>
		<path class="st3" d="M52.5,12.3c-0.1,0-0.2,0-0.3-0.1c0,0,0,0,0,0C52.3,12.2,52.4,12.3,52.5,12.3z"/>
		<path class="st3" d="M50.1,5.2c0.2,0-0.3-0.1-0.4-0.2c0.1,0.1,0,0.1-0.1,0.1C50,5.1,49.9,5.1,50.1,5.2z"/>
		<path class="st3" d="M50.9,6.2c-0.4-0.1-0.4,0-0.5,0C50.8,6.3,51.1,6.4,50.9,6.2z"/>
		<path class="st3" d="M50.8,5.2c-0.3-0.1,0.2,0,0.1-0.1c-0.2,0-0.3-0.1-0.5-0.1c0,0.1,0,0.1-0.1,0.2C50.6,5.2,50.8,5.3,50.8,5.2z"
			/>
		<path class="st3" d="M51.2,4.7c-0.3,0-0.6-0.1-0.7,0c0.4,0,0.4,0.1,0.6,0.1C51.1,4.7,51.1,4.7,51.2,4.7z"/>
		<path class="st3" d="M53.4,5.2c-0.1-0.1,0.8,0.1,0.5,0c-0.6-0.1-0.3-0.3-0.7-0.2C53.5,5.1,53.1,5.1,53.4,5.2z"/>
		<path class="st3" d="M53.8,5.5c-0.1-0.1-0.2-0.2-0.5-0.2C53.3,5.4,53.5,5.4,53.8,5.5z"/>
		<path class="st3" d="M54.6,9.9c0-0.1-0.2-0.1-0.5-0.2C54,9.8,54.3,9.8,54.6,9.9z"/>
		<path class="st3" d="M55.2,5.6c-0.5-0.1-1.3-0.3-1.4-0.2c0.6,0.1,0.7,0.1,1.2,0.3C54.9,5.6,55.1,5.6,55.2,5.6z"/>
		<path class="st3" d="M54.3,6.3c0.4,0,0.8,0.2,0.9,0.2C54.9,6.4,54.4,6.2,54.3,6.3z"/>
		<path class="st3" d="M59.2,7.8c-0.3-0.1-0.2-0.1-0.6-0.2l0,0.1C59,7.7,59.1,7.9,59.2,7.8z"/>
		<path class="st3" d="M60.8,8c0,0-0.1-0.1-0.1-0.1c-0.4,0-1.6-0.6-1.7-0.5c1.1,0.4,1.2,0.4,2.4,0.9C61.3,8.1,61.2,8.1,60.8,8z"/>
		<path class="st3" d="M62.5,8.8c-0.1-0.2-0.7-0.4-1.1-0.6C61.5,8.4,62.1,8.6,62.5,8.8z"/>
		<path class="st3" d="M63.6,3.7c0.1-0.1-1.6-0.6-1.2-0.5C63,3.5,63,3.5,63.6,3.7z"/>
		<path class="st3" d="M63.3,9.8c0.4,0.1,1,0.5,1.2,0.5c-0.1-0.1-0.1-0.1-0.1-0.1C64,10.1,63.5,9.8,63.3,9.8z"/>
		<path class="st3" d="M64.3,8.7c0.1,0-0.1-0.1-0.1-0.2c0.1,0.1,0.3,0.1,0.2,0C63.9,8.3,63.9,8.5,64.3,8.7z"/>
		<path class="st3" d="M64,11.9c0.3,0.1,0.7,0.4,0.8,0.4C64.7,12.2,64,11.8,64,11.9z"/>
		<path class="st3" d="M65.3,10.4c-0.5-0.2,0-0.2-0.3-0.3C65,10.2,64.5,10,64.4,10C64.7,10.1,65,10.4,65.3,10.4z"/>
		<path class="st3" d="M65.1,4.8C65.6,5,66,5.2,66.4,5.4C66.4,5.3,65.1,4.7,65.1,4.8z"/>
		<path class="st3" d="M65.6,12.4c0.2,0,0.6,0.2,0.7,0.2c-0.5-0.3-0.8-0.4-1.3-0.5C65.4,12.3,65.3,12.3,65.6,12.4z"/>
		<path class="st3" d="M65.3,10.5c0.2,0.1,0.7,0.4,1.1,0.5C66.1,10.9,65.7,10.7,65.3,10.5z"/>
		<path class="st3" d="M66,10.7c0,0,0.2,0,0.2,0L66,10.7c0-0.1,0-0.1-0.1-0.2c0.1,0.1-0.4-0.1-0.3,0c0.4,0.3,0.6,0.3,1.1,0.5
			c0,0,0,0.1,0.1,0.1c0-0.1,0-0.1,0.1-0.1C66.4,10.8,66.3,10.8,66,10.7z"/>
		<path class="st3" d="M65.6,10.2c0.4,0.2,1.1,0.6,1.4,0.7C66.5,10.6,66,10.3,65.6,10.2z"/>
		<path class="st3" d="M67.3,6.3c0,0.1-0.1,0-0.4-0.1l0,0.1C67.3,6.5,67.7,6.6,67.3,6.3z"/>
		<path class="st3" d="M68.1,6.5c0.2,0,0.2,0.2,0.6,0.3c-0.1-0.1,0.4,0.1,0-0.1c-0.2,0-0.5-0.2-0.7-0.3l0,0.1
			C67.9,6.4,68,6.4,68.1,6.5z"/>
		<path class="st3" d="M67.3,14.7c0,0,0-0.1-0.1-0.2c-0.1-0.1-0.3-0.2-0.3-0.1C67.3,14.6,67,14.6,67.3,14.7z"/>
		<path class="st3" d="M68.3,10.4c-0.5-0.3-0.2,0-0.1,0.1C68.4,10.6,68,10.3,68.3,10.4z"/>
		<path class="st3" d="M69,12.5c-0.2-0.1-0.4-0.2-0.4-0.2c0.5,0.4-0.3-0.1-0.3-0.1C68.7,12.5,69,12.6,69,12.5z"/>
		<path class="st3" d="M69.8,2.9c0.2,0.2,1.7,0.9,2.1,1.1C71,3.6,70.2,3.2,69.8,2.9z"/>
		<path class="st3" d="M67.2,19.2c-0.1,0-0.1-0.1-0.2-0.1c0,0,0,0,0,0.1C67.1,19.2,67.1,19.2,67.2,19.2c0,0.1,0,0.1,0.1,0.1
			C67.2,19.3,67.2,19.2,67.2,19.2z"/>
		<path class="st3" d="M71.3,12.4c-0.2-0.3-0.9-0.8-1.4-1c0.2,0.2,0.7,0.5,0.9,0.7c0.4,0.1-0.3-0.2-0.4-0.4c0.1,0.1,0.1,0.1,0.2,0.1
			C70.8,12,70.9,12.1,71.3,12.4z"/>
		<path class="st3" d="M69.8,15.1c-0.1-0.2-0.3-0.3-0.5-0.5c-0.1,0.1,0.3,0.2,0.1,0.3C69.6,15,69.7,15.1,69.8,15.1z"/>
		<path class="st3" d="M70.3,11.9l0.3,0.2c-0.1,0,0.1,0.2,0.2,0.2c-0.1,0-0.1-0.1-0.1-0.1c0.2,0.1,0.3,0.1,0.3,0.1
			C70.8,12.2,70.4,11.8,70.3,11.9z"/>
		<path class="st3" d="M72.7,9c-0.3-0.2-0.9-0.7-1-0.6C72,8.6,72.5,9,72.7,9z"/>
		<path class="st3" d="M71.7,12.6c0.1,0.1,0.7,0.5,0.9,0.6c-0.1-0.1-0.1-0.1-0.1-0.2C72,12.6,72,12.7,71.7,12.6z"/>
		<path class="st3" d="M70.6,19.5c0.2,0.1,0.2,0.2,0.2,0.2c0.2,0.1,0-0.1-0.1-0.3C70.7,19.5,70.6,19.4,70.6,19.5z"/>
		<path class="st3" d="M74.9,11.4c-0.1-0.1-0.5-0.4-0.6-0.5C74.2,11,74.8,11.5,74.9,11.4z"/>
		<path class="st3" d="M72.9,16c0.3,0.1,0.2,0.2,0.6,0.4c-0.2-0.2-0.5-0.6-0.6-0.5C72.9,16,72.9,16,72.9,16z"/>
		<path class="st3" d="M73.7,14c0.3,0.2,0.4,0.3,0.3,0.3c0.4,0.2,0.5,0.5,0.9,0.7C74.8,14.8,73.9,14,73.7,14z"/>
		<path class="st3" d="M73.1,19.7c-0.2-0.1-0.5-0.5-0.7-0.5C72.5,19.4,73,19.8,73.1,19.7z"/>
		<path class="st3" d="M72.9,18.5c0.3,0.2,0.2,0.2,0.4,0.4l0-0.1c0,0,0,0-0.1-0.1C73.2,18.8,72.9,18.4,72.9,18.5z"/>
		<path class="st3" d="M74.8,15.1c0.1,0.1,1.1,0.9,0.9,0.6c-0.1,0-0.4-0.3-0.4-0.3c0.1,0.1,0.3,0.2,0.4,0.2
			c-0.2-0.1-0.6-0.6-0.8-0.6C75.5,15.5,74.6,14.9,74.8,15.1z"/>
		<path class="st3" d="M75.7,16.3c-0.4-0.3-0.7-0.6-0.8-0.5c0.4,0.3,0.7,0.6,0.4,0.5C75.9,16.7,75.2,16,75.7,16.3z"/>
		<path class="st3" d="M73.9,19.1c0.3,0.2,0.2,0.4,0.6,0.6c-0.2-0.2-0.3-0.2-0.2-0.3C74.2,19.3,73.6,18.9,73.9,19.1z"/>
		<path class="st3" d="M74.6,19.2c-0.3-0.2-0.3-0.3-0.4-0.4c0,0-0.2-0.1-0.2-0.1C74.2,18.9,74.5,19.3,74.6,19.2z"/>
		<path class="st3" d="M76.7,17.6c-0.5-0.3-0.6-0.6-0.9-0.8c0,0,0,0.1,0.1,0.2c0.1,0,0.3,0.3,0.5,0.5C76.3,17.3,76.8,17.7,76.7,17.6
			z"/>
		<path class="st3" d="M75.2,19.2l0.4,0.4c0-0.1,0.3,0.1,0.3,0.1c-0.2-0.2-0.1-0.2-0.4-0.4c-0.1,0-0.1,0,0,0.1
			C75.3,19.3,75.2,19.1,75.2,19.2z"/>
		<path class="st3" d="M79.9,15.1c0-0.1,0.6,0.3,0.3,0.2c0.3,0.3,0.1,0,0.3,0.2c0.1,0.3,0.4,0.3,0.5,0.6c0-0.1,0.1,0,0.1,0
			c-0.7-0.7-1.3-1.1-1.7-1.6c-0.3-0.1-1.1-0.9-1.3-1c0.5,0.4,1,0.9,1.6,1.3C80,15,79.5,14.7,79.9,15.1z"/>
		<path class="st3" d="M77.4,17c-0.2-0.2-0.3-0.3-0.4-0.3c0.2,0.2,0.1,0.2,0.3,0.4L77.4,17z"/>
		<path class="st3" d="M78.5,16.7c0,0.1-0.1-0.1-0.2-0.1c0.1,0.1,0.6,0.6,0.7,0.6C78.6,16.9,78.7,16.9,78.5,16.7z"/>
		<path class="st3" d="M80.1,15.9c-0.3-0.3-0.8-0.7-1-0.7C79.3,15.3,80,15.9,80.1,15.9z"/>
		<path class="st3" d="M78.9,16.5c0.3,0.2,0.2,0.3,0.4,0.5c0,0,0.1,0,0.1,0C79.2,16.8,79.1,16.5,78.9,16.5z"/>
		<path class="st3" d="M78.5,18.7c-0.2-0.2,0-0.2-0.3-0.4C78.1,18.3,78.4,18.7,78.5,18.7z"/>
		<path class="st3" d="M80.5,14.8c-0.1-0.1-0.1-0.1-0.1-0.1c-0.2-0.2-0.4-0.3-0.5-0.4C80.2,14.5,80.4,14.8,80.5,14.8z"/>
		<path class="st3" d="M80.3,14.8c-0.1,0-0.3-0.2-0.4-0.1c0.3,0.3,0.5,0.4,0.6,0.4C80.4,15,80.5,15,80.3,14.8z"/>
		<path class="st3" d="M76.7,21.9l0.3,0.3c0-0.1,0-0.1-0.2-0.3C76.7,21.9,76.9,22.1,76.7,21.9C76.7,21.9,76.7,21.9,76.7,21.9z"/>
		<path class="st3" d="M79.4,18.7c-0.2-0.2-0.4-0.4-0.5-0.5c0.3,0.2,0.2,0.2,0.3,0.4C79.1,18.5,79.3,18.7,79.4,18.7z"/>
		<path class="st3" d="M79.7,17.4c0,0-0.3-0.2-0.3-0.2c0.3,0.2,0.2,0.4,0.4,0.5C79.5,17.4,79.9,17.6,79.7,17.4z"/>
		<path class="st3" d="M81.1,16.8c0,0.1-0.7-0.7-0.9-0.7c0.5,0.5,1.4,1.4,1.9,1.7c-0.2-0.3-0.6-0.5-0.9-0.9
			C81.2,16.9,81.2,16.9,81.1,16.8z"/>
		<path class="st3" d="M79.3,18.9c0.2,0.2,0.4,0.4,0.6,0.6C80,19.4,79.5,18.9,79.3,18.9z"/>
		<path class="st3" d="M79.1,19.6c0.3,0.3,0.4,0.4,0.5,0.4C79.5,19.8,79.1,19.4,79.1,19.6z"/>
		<path class="st3" d="M80.8,17.8c0-0.1-0.4-0.6-0.5-0.6C80.4,17.4,80.5,17.5,80.8,17.8z"/>
		<path class="st3" d="M81.2,16.4c0.3,0.3,0.6,0.6,0.7,0.6C81.6,16.6,81.4,16.4,81.2,16.4z"/>
		<path class="st3" d="M81.3,21.8c0.1,0-0.6-0.7-0.7-0.7C80.9,21.4,81,21.4,81.3,21.8z"/>
		<path class="st3" d="M82.9,17.7c0,0.1-0.2-0.1-0.2,0C83,18.1,83.1,17.9,82.9,17.7z"/>
		<path class="st3" d="M85.2,14.7c0.4,0.3,0.2,0.3,0.6,0.6C85.9,15.3,85.3,14.7,85.2,14.7z"/>
		<path class="st3" d="M84.5,20.3c-0.3-0.3-0.4-0.5-0.8-0.9c0,0-0.2-0.1-0.2-0.1C84,19.8,84.1,20,84.5,20.3z"/>
		<path class="st3" d="M84.6,19.3c-0.2-0.2-0.4-0.4-0.6-0.5C84.3,19.1,84.6,19.5,84.6,19.3z"/>
		<path class="st3" d="M82.2,24.1c0.2,0-0.3-0.6-0.5-0.7C81.9,23.7,82,23.8,82.2,24.1z"/>
		<path class="st3" d="M84.6,21.9c-0.3-0.4-0.5-0.8-0.8-1C83.8,21,84.4,21.7,84.6,21.9z"/>
		<path class="st3" d="M85.1,21.2l-0.7-0.8C84.4,20.6,85,21.3,85.1,21.2z"/>
		<path class="st3" d="M85.4,20.7c0.1,0,0.3,0.2,0.4,0.3c-0.4-0.5-0.9-1-1.1-1C85,20.4,85.3,20.4,85.4,20.7z"/>
		<path class="st3" d="M87.1,16.7c0.3,0.3,0.4,0.5,0.6,0.7C87.9,17.5,87.1,16.6,87.1,16.7z"/>
		<path class="st3" d="M86.3,21.3c0-0.1,0.2,0.2,0.2,0.1c-0.4-0.5-0.6-0.8-1-1C85.8,20.6,86.2,20.9,86.3,21.3z"/>
		<path class="st3" d="M86.4,21.7c-0.1,0-0.4-0.4-0.5-0.4c0.1,0.1,0.1,0.1,0.1,0.1c0.4,0.5,0,0,0.3,0.4c0.3,0.2,0.1-0.1,0.5,0.4
			C86.8,22.2,86.4,21.8,86.4,21.7z"/>
		<path class="st3" d="M84.4,24.5c0.3,0.4,0.4,0.4,0.5,0.7C85.1,25.2,84.3,24.3,84.4,24.5z"/>
		<path class="st3" d="M85.9,23.9c0,0,0,0.1-0.1,0c-0.1-0.1-0.2-0.3-0.3-0.3c0.2,0.3,0.4,0.5,0.7,0.7C86.1,24.1,86.2,24.1,85.9,23.9
			z"/>
		<path class="st3" d="M86.8,22.4c0.3,0.3,0.3,0.5,0.5,0.6l-0.2-0.4c0.2,0.2,0.3,0.4,0.4,0.4c-0.2-0.3-0.4-0.3-0.5-0.6
			C86.9,22.4,86.8,22.3,86.8,22.4z"/>
		<path class="st3" d="M87.3,23.3c0,0,0,0,0.1,0.1c0.1,0.1,0.1,0.3,0.2,0.3c-0.1-0.2,0-0.2-0.3-0.6C87.3,23.2,87.2,23.2,87.3,23.3z"
			/>
		<path class="st3" d="M88,23.4c-0.1-0.1-0.2-0.3-0.2-0.3c0.2,0.3,0.1,0.3,0.2,0.5C88.1,23.6,88.1,23.5,88,23.4z"/>
		<path class="st3" d="M87.7,23.9c0.1,0.2,0.4,0.6,0.5,0.6c-0.2-0.2,0-0.2-0.2-0.4C88,24.3,87.7,23.7,87.7,23.9z"/>
		<path class="st3" d="M87.5,24.6c0.1,0,0.3,0.3,0.3,0.4C87.9,25.1,87.2,24.2,87.5,24.6z"/>
		<path class="st3" d="M88.3,24.5c0.1,0.1,0.2,0.3,0.2,0.3c-0.1-0.2,0-0.1-0.1-0.3c-0.2-0.2-0.4-0.1-0.1,0.1
			C88.3,24.6,88.3,24.5,88.3,24.5z"/>
		<path class="st3" d="M90.6,24.3c0,0.1,0.2,0.6,0.4,0.7C90.8,24.8,90.8,24.6,90.6,24.3z"/>
		<path class="st3" d="M7.1,14.7c-0.1,0.1-0.9,0.9-0.6,0.7C6.7,15.1,7,14.9,7.1,14.7z"/>
		<path class="st3" d="M22.9,9.1c0-0.1-0.4,0.1-0.6,0.2c0.2,0-0.2,0.2-0.2,0.3C22.4,9.3,22.6,9.2,22.9,9.1z"/>
		<path class="st3" d="M36.8,5.4c-0.2,0-0.3,0-0.4,0c0.1,0-0.1,0.2,0.2,0.1c0.2-0.1,0.9-0.1,1-0.2C37.3,5.3,36.8,5.4,36.8,5.4
			c0.2-0.1,0.4-0.1,0.4-0.2C36.8,5.3,36.6,5.4,36.8,5.4z"/>
		<path class="st3" d="M40,0.6c0,0,0-0.1,0.1-0.1c0.1,0,0.2,0,0.3,0c-0.1-0.1-0.7,0-0.8,0C39.8,0.5,39.7,0.6,40,0.6z"/>
		<path class="st3" d="M47.5,4.5c-0.6-0.1,0.2-0.2-0.4-0.2C47,4.4,47.3,4.6,47.5,4.5z"/>
		<path class="st3" d="M50.2,3c-0.7-0.1-1-0.1-1.4-0.2c0,0.1-0.3,0-0.2,0.1C48.9,2.8,50.2,3.2,50.2,3z"/>
		<path class="st3" d="M51.1,5.1c0.1,0.1,0.3,0.1,0,0.2c0.2,0.1,0.5,0.1,0.6,0.2c-0.1,0-0.1,0,0,0c0.2,0,0.2-0.1,0.5,0
			c0.6,0.2,1.4,0.3,1.9,0.5c0.1-0.1-0.3-0.1-0.4-0.2c0.1,0,0.1,0,0.1,0c0.3,0.1,0.3,0.2,0.6,0.3c0-0.1,0.4,0.1,0.6,0.1
			c-0.3-0.1-0.9-0.2-0.9-0.3C54.3,5.9,54.8,6,55,6c-0.3-0.1-0.5-0.1-0.6-0.2c0.4,0,0.7,0.2,0.8,0.2c-0.4-0.1-1.1-0.4-1.8-0.6
			c-0.7-0.2-1.3-0.4-1.7-0.4c0.2,0.1,0.7,0.1,0.6,0.2c-0.5-0.1-0.3-0.1-0.2,0c-0.3-0.1-0.2-0.1-0.6-0.2C51.6,5.2,51.4,5.3,51.1,5.1z
			"/>
		<path class="st3" d="M52.9,6.6c-0.3,0.1-1.3-0.1-1.5,0.1c0.3,0,0.5,0.2,0.6,0.1C51.3,6.5,53.2,6.7,52.9,6.6z"/>
		<path class="st3" d="M54.4,6.4c-0.7-0.4-2.1-0.5-2.4-0.6c0,0.1-0.5,0-0.1,0.1c0.3-0.1,1.7,0.2,2.1,0.4C54.1,6.3,54.5,6.5,54.4,6.4
			z"/>
		<path class="st3" d="M54.6,9.9c0.3,0.1,0.6,0.1,0.8,0.1C55,10,54.7,9.8,54.6,9.8C54.7,9.9,55,9.9,55,10C54.7,10,54.7,9.9,54.6,9.9
			z"/>
		<path class="st3" d="M55.2,6.7c0-0.2-0.9-0.2-0.6-0.1C54.6,6.5,55,6.7,55.2,6.7z"/>
		<path class="st3" d="M55.1,6.2c1.1,0.3,2,0.6,3.1,0.9c-0.3-0.2,0.2,0,0-0.1c-1-0.2-1.5-0.4-2.1-0.7c0,0.1-0.2,0.1-0.5,0
			c0,0,0-0.1-0.1-0.1C55.3,6.1,55.1,6.1,55.1,6.2z"/>
		<path class="st3" d="M65.9,14.1c0.3,0.1,0.2,0.2,0.4,0.3c0.1-0.1-0.6-0.4-0.4-0.5c-0.5-0.3-1.1-0.6-1.7-0.9
			c-0.7-0.3-1.3-0.6-1.9-0.9c-0.3-0.1-0.1,0-0.2,0c-0.2-0.2-0.4-0.2-0.7-0.3c0,0.1-0.2,0-0.3,0c0-0.1-0.3-0.1-0.2-0.2
			c0.1,0,0.5,0.2,0.5,0.1c-0.2-0.1-0.6-0.3-0.6-0.3c0.1,0.1,0.1,0.2-0.1,0.2c0.6,0.3,1.3,0.5,1.8,0.6c-0.1,0-0.1-0.1,0,0
			c0,0.1,0.3,0.2,0.3,0.2c-0.1,0-0.5-0.2-0.6-0.2c0.2,0.1,0.1,0.1,0,0.1c1.2,0.4,1.8,0.8,2.6,1c-0.1-0.1-0.3-0.1-0.3-0.2
			c0.3,0.1,0.5,0.3,0.6,0.4c0,0.1-0.4,0.1-0.2,0.1c0.1-0.1,0.8,0.1,1.1,0.4c0.1,0-0.3-0.2-0.2-0.2C65.7,13.8,65.7,13.9,65.9,14.1
			C65.9,14,65.8,14,65.9,14.1z"/>
		<path class="st3" d="M78.4,23.2C78.4,23.2,78.4,23.2,78.4,23.2C78.4,23.2,78.4,23.2,78.4,23.2C78.4,23.2,78.4,23.2,78.4,23.2z"/>
		<path class="st3" d="M78.3,23.2C78.3,23.2,78.3,23.2,78.3,23.2c-0.2-0.2-0.3-0.3-0.4-0.4c0,0-0.1,0-0.1,0
			C78,22.9,78.2,23.1,78.3,23.2z"/>
		<path class="st3" d="M102.3,56.2c0-0.5,0-1-0.1-1.2c0.1-0.7,0-1.8,0-2.5c-0.1-0.2-0.2-1.4-0.3-2c-0.1,0,0,0.2-0.1,0.2
			c0-0.4-0.1-0.3-0.1-0.5c-0.1-0.8,0-0.8-0.2-1.4c0,0.2,0.2,0.1,0.1,0c-0.2,0.1-0.4-1.2-0.5-2c-0.1,0.2-0.1-0.5-0.2-0.6
			c-0.1,0,0,0.4,0,0.6c0,0,0.1,0.1,0.1,0.2c0.1,0.6,0,0.9,0,1.4c-0.1-0.4-0.1-0.8-0.2-0.8c0.2,1.2,0.2,1.5,0.4,2.7
			c-0.1,0,0,0.4-0.1,0.5c0.1,0.5,0.1,0.6,0.2,1c0,0.3,0,0.8,0,1.3c0,0.5,0,1.1,0,1.5c0.1,0.5,0.2,1.2,0.1,1.5c0,0.4,0.1,0.3,0.1,0.7
			c0,0.3-0.2,0-0.2,0.3c0.1,0,0,0.4,0.1,0.6c-0.1,0.3-0.1,1-0.2,1.2c0-0.4-0.1-1.4-0.2-0.9c0.3,0.7,0.1,2.9-0.2,3.3
			c0,0.5,0.1-0.3,0.1,0.1c-0.1,0.4-0.1,0.7-0.3,0.7l0-0.5c-0.2,0-0.3,0.9-0.4,1.7c-0.2-0.4,0.1-1.5,0.2-2.8c-0.1-0.2-0.1,0-0.2,0.3
			c0-0.4,0-1,0.1-1.6c0-0.6,0.1-1.1,0-1.5c0,0.3,0,0.7-0.1,1.2c0-1.2,0.1-2.1,0.1-3c0-0.9,0-1.8-0.1-2.9c0,0,0.1,0.2,0.1,0.2
			c-0.1-0.6-0.2-0.7-0.2-1.3c0,0,0.1,0,0.1-0.2c0,0,0-0.3,0-0.4c-0.1-0.1,0,0.5-0.1,0.4C100,51,100,50,99.8,48.9c0-0.3,0-0.9,0-1.3
			c-0.1-0.1-0.1,0.2-0.3-0.3c0.1-0.3,0.1-1,0.3-0.2c0-0.2,0.1-0.1,0-0.3c-0.1,0.1-0.3-0.7-0.4-1.4c-0.1,0.2-0.3-0.8-0.2-0.9
			c-0.1-0.1-0.2-0.3-0.3-0.7c0-0.6,0.2,0.3,0.3,0.3c-0.1-0.3-0.2-1-0.3-1.2c0.2,0.8-0.2-0.6-0.1,0.1c0.1,0.3,0.1,0.1,0.2,0.5
			c-0.1,0.1-0.2-0.1-0.3-0.4c-0.1-0.5,0.1-0.6,0.1-0.7c-0.1-0.3-0.2-0.9-0.4-1.3c0.3,0.6,0.4,1.5,0.2,1.3c-0.1-0.5,0.1-0.2,0-0.5
			c-0.1-0.2-0.4-1.1-0.2-0.9c-0.2-0.5-0.2-0.4-0.2-0.1c-0.2-0.6-0.1-0.6,0-0.3c-0.1-0.3,0-0.3-0.1-0.5c-0.2-0.2-0.1,0.3-0.2,0.1
			c-0.1-0.3,0-0.3,0-0.5c-0.2-0.4-0.3-0.6-0.5-1.2c0.1-0.4-0.3-0.8-0.3-1.4c0,0.1,0,0.3-0.1-0.1c-0.1-0.3,0-0.2,0-0.4
			c0,0.1-0.1,0.1-0.2-0.2c0,0,0,0,0-0.1c0,0,0.1,0.3,0.2,0.2c-0.7-1.5-0.8-1.8-1.1-2.9c-0.2-0.1-0.5-0.8-0.6-1.2
			c0,0.2-0.2-0.1-0.2-0.1c0.3,0.6,0.1,0.3,0,0.3c0.2,0.5,0.3,0.6,0.5,1.1c0.1-0.1,0.2,0.4,0.3,0.5c0,0.1,0.1,0.4,0.1,0.6
			c0.1,0,0.4,0.8,0.4,0.9c-0.1-0.1-0.4-0.9-0.4-0.7c0.3,0.5,0.2,0.5,0,0.2c0.3,0.6,0.4,1,0.5,1.3c-0.1-0.3-0.3-0.4-0.6-0.4
			c-0.1-0.4-0.3-0.7-0.3-0.6c0.1,0.2,0.2,0.4,0.3,0.6c-0.1,0-0.2,0-0.3,0c0,0,0-0.1,0-0.1c0,0,0,0,0,0.1c0,0,0,0,0,0c0,0,0,0,0,0
			c0-0.1-0.1-0.3-0.2-0.5c-0.1,0,0.1,0.3,0.1,0.5c0,0,0,0,0,0c-0.1-0.3-0.1-0.1-0.1,0c0,0,0,0,0,0C95,36.1,95,35.8,95,35.7
			c0,0.2-0.3-0.2-0.1,0.3c0.1,0.1,0.1,0.2,0.2,0.5c-0.2,0-0.3,0-0.4-0.1c-0.1-0.2-0.1-0.3-0.2-0.5c0,0,0,0.1,0,0.2
			c0,0,0-0.1-0.1-0.1c-0.1-0.3-0.3-0.7-0.6-1c-0.1-0.2-0.3-0.7-0.4-0.8c0,0.1-0.2,0.2,0.1,0.4c-0.1-0.2,0.1,0,0.1,0.1
			c0,0.1,0.1,0.1,0.1,0.2c-0.1-0.2-0.3-0.3-0.5-0.4c0,0-0.1,0-0.1-0.1c-0.5-0.7-0.7-1.4-1.1-2.3c-0.1,0-0.2-0.4-0.3-0.5
			c0,0.1,0.2,0.5,0.1,0.3c-0.3-0.5-0.2-0.7-0.5-1.1c0.1,0,0.1-0.1,0-0.3c-0.1,0.1-0.3-0.5-0.2-0.1c-0.1-0.3-0.2-0.4-0.4-0.6
			c0.7,1.4,1.4,2.8,2.1,4.3c-0.1-0.1-0.2-0.2-0.2-0.3c-0.2-0.4-0.4-0.4-0.7-0.4c-0.1-0.1-0.1-0.3-0.2-0.4c0.1-0.1,0.2-0.2,0.2-0.2
			c0-0.1,0-0.1-0.2-0.1c-0.1,0-0.2,0-0.3-0.1c-0.3-0.5-0.6-0.9-0.8-1.3c0-0.1,0.2,0.2,0.2,0.1c-0.2-0.4-0.2-0.2-0.4-0.5
			c-0.2-0.6-0.5-1.4-0.9-1.8c0.1,0.2,0.2,0.4,0.2,0.5c-0.2-0.3-0.7-1-0.9-1.5c0.1,0.1,0.1,0,0.3,0.2c0,0.1,0.1,0.3,0.2,0.5
			c0-0.1,0.2,0.2,0.3,0.2c-0.2-0.4-0.2-0.1-0.4-0.5c0-0.1,0.1,0.1,0.1-0.1c-0.1-0.1-0.6-0.8-0.5-0.5c-0.1-0.4-0.8-1.1-0.9-1.5
			c0.1,0,0.3,0.6,0.4,0.5c-0.1-0.2-0.4-0.6-0.6-0.8c-0.1,0,0.2,0.2,0.1,0.2c0,0.2-0.8-0.9-0.6-0.6c0.5,0.5,1,1.5,1.1,1.5
			c0.1,0.3,0.4,0.8,0.4,1c-0.2-0.4-0.2-0.3-0.6-0.9c0-0.1-0.4-1.1-0.5-0.9c0.3,0.3,0.3,0.5,0.3,0.6c-0.2-0.4-0.4-0.4-0.6-0.8
			c0,0.2,0.6,0.9,0.7,1c0,0-0.1-0.1-0.1,0c0.9,1.3,1.4,2.2,1.9,3.4c0.1-0.1-0.4-0.8-0.3-0.9c0.1,0.1,0.1,0.1,0.1,0.2
			c0,0.1,0.1,0.4,0.4,0.8c-0.1,0,0,0.3,0.1,0.5c0.3,0.3,0.6,0.9,0.8,1.5c-0.2,0-0.3,0.1-0.3,0.4c0,0.1,0,0.1,0,0.2
			c0,0.1,0,0.4-0.3,0.5S90,33.4,90,33.1c-0.1-0.3-0.2-0.4-0.3-0.6c-0.1-0.2-0.2-0.3-0.3-0.4c0.1,0.1,0.1,0.2,0.1,0.2c0,0,0,0-0.1,0
			c-0.3-0.6-0.7-1.5-1-1.7c0.1,0,0.1,0.1,0.2,0.1c-0.1-0.2-0.1-0.2-0.1-0.4c-0.2-0.2,0.1,0.2-0.1,0c-0.3-0.4-0.1-0.3,0-0.1
			c-0.2-0.4-0.2-0.1-0.4-0.5c0.2-0.1-0.3-0.5-0.3-0.7c-0.2-0.2-0.3-0.5-0.6-0.9c-0.2-0.1,0.3,0.5,0.3,0.6c-0.1-0.1-0.1-0.1-0.2-0.2
			c0,0.2,0,0.3,0.1,0.6c0.1-0.1,0.2,0.3,0.4,0.6c-0.1-0.1-0.1-0.1,0,0.2c0-0.1,0.2,0.3,0.2,0.2c-0.1-0.2-0.3-0.5-0.2-0.5
			c-0.1-0.1-0.2-0.2-0.3-0.4c0-0.1,0.1,0.1,0.1,0c0,0-0.1-0.1-0.1-0.2c0.1,0.1,0.4,0.7,0.3,0.6c0.6,0.9,0.9,1.6,1.4,2.7
			c0,0-0.1,0-0.1,0c-0.1-0.2-0.2-0.4-0.2-0.4c0.1,0.2,0,0.1-0.1,0.1c0.1,0.1,0.1,0.2,0.2,0.3c-0.1,0-0.2,0-0.2-0.1
			c-0.1,0-0.3,0.1-0.3,0.2c-0.1-0.2-0.2-0.4-0.3-0.7c0.1,0,0.2,0,0.3,0c0.1,0,0.1-0.1,0.2-0.1c0-0.1,0-0.1,0-0.2
			c-0.1-0.1-0.3-0.3-0.4-0.3c-0.1,0-0.2,0-0.3,0c-0.1-0.3-0.3-0.6-0.5-0.9c-0.1-0.1,0.1,0.3-0.1,0.1c-0.2-0.4-0.3-0.4-0.6-0.9
			c0.1,0.1,0.1,0.1,0-0.2c-0.3-0.3-0.3-0.6-0.4-0.6c-0.2-0.3-0.1-0.3-0.2-0.5c-0.1-0.1-0.1,0-0.2-0.1c0.2,0.4,0.5,0.9,0.4,0.9
			c0.2,0.2,0.6,0.8,0.7,1c-0.1-0.1-0.6-0.8-1-1.3l-0.1,0.1c-0.2-0.3-0.2-0.5-0.3-0.5c0.2,0.5,0.6,0.6,1,1.3c-0.3-0.5-0.1,0-0.3-0.2
			c0.4,0.6,1,2.2,0.3,0.9c-0.1,0,0,0.2,0.2,0.5c0-0.1,0.1,0,0.2,0.2c0.1,0,0-0.2,0.2,0c0,0,0,0.1,0,0.1c-0.1,0-0.3,0-0.4-0.1
			c-0.6-0.8-0.8-1.6-1.6-2.5c0-0.1-0.1-0.4-0.3-0.6c0,0.1,0.1,0.3,0,0.5c0.3,0.4,0.9,1.3,1,1.6c-0.1-0.2-0.4-0.6-0.5-0.8
			c0,0,0,0.1-0.1,0c-0.3-0.6-0.8-1.2-1.2-1.7c-0.4-0.6-0.8-1.1-1.2-1.6c0.1,0.2-0.1,0.1,0.1,0.3c0.3,0.2,0.7,0.7,0.8,1.1
			c0.2,0.3,0.6,0.7,0.9,1.1c0.3,0.4,0.6,0.8,0.8,1.2c-0.1,0.2,0.5,1.1,0.3,1c0.1,0.1,0.2,0.3,0.3,0.5c0,0,0,0,0,0
			c-0.5,0.1-1,0.2-1.1-0.4c0,0-0.1-0.1-0.1-0.1c-0.1,0-0.1,0.1-0.2,0.1c0,0,0,0,0,0c0-0.1,0-0.2-0.1-0.3c0,0-0.4-0.4-0.4-0.5
			c0-0.1,0.2,0.2,0.2,0.2c0-0.1-0.1-0.2-0.1-0.2C83.9,29.9,84,30,84,30c-0.3-0.4-0.7-0.8-0.8-1.2c0.2,0.4,0.2,0.1,0.3,0.3
			c0.2,0.5,0.8,1.1,0.9,1.3c-0.4-0.6-0.2-0.6-0.4-1c0.3,0.3,0.1,0.2,0.3,0.5c0.2,0,0-0.4-0.1-0.7c0.2,0.3,0.2,0.1,0.2,0.2
			c-0.1-0.3-0.5-0.8-0.2-0.6c-0.2-0.3-0.5-0.7-0.5-0.8c0.2,0.1,0.6,0.8,0.6,0.7c-0.7-0.7-1-1.3-1.4-2c-0.4-0.6-0.7-1.3-1.4-1.9
			c0.2,0-0.1-0.3-0.2-0.5c0.2,0.1,0.4,0.2,0.7,0.4c0.1,0.2,0.2,0.2,0.4,0.5c0.2,0.3-0.1,0.1,0.2,0.4c0,0,0-0.1,0-0.2
			c0.3,0.4,0.4,0.6,0.9,1.2c0.2,0.1,0.4,0.3,0.3,0.1c-0.5-0.6-0.6-0.9-1.2-1.4c0.2,0.2-0.1-0.5-0.3-0.6c0.1,0.1,0.3,0.3,0.3,0.4
			c0,0,0,0.1-0.1,0c-0.3-0.4-0.6-0.6-0.5-0.7c0.1,0.1,0.3,0.4,0.3,0.3c-0.3-0.3,0,0-0.2-0.3c-0.2-0.2-0.9-0.8-1-1.1l0-0.1
			c0.3,0.4,0.7,0.5,0.4,0.4c-0.5-0.7-0.9-0.8-1.1-0.8c-0.2-0.2,0-0.2-0.2-0.4c-0.1,0.1-0.5-0.3-0.8-0.5c0.1,0.1,0.2,0.4,0,0.2
			c-0.2-0.3-0.6-0.7-1-1c-0.4-0.4-0.7-0.7-0.9-0.9c0.1,0,0.3,0.2,0-0.1c-0.1,0.1-0.7-0.7-1-0.8c-0.1,0,0.3,0.4,0.2,0.4
			c-0.4-0.4-0.4-0.2-0.7-0.4c-0.3-0.4-1.5-1.4-1.9-1.6c0.1,0.2,0.5,0.4,0.6,0.6c-0.2-0.1-0.2,0.1-0.4,0c-0.1-0.2-0.6-0.5-0.8-0.6
			c0.3,0.3,0.4,0.4,0.1,0.2c0.7,0.6,1.2,0.9,2,1.6c0,0,0.1,0,0.2,0c0,0.1,0.4,0.3,0.4,0.4c0,0.1-0.5-0.4-0.6-0.3
			c0.3,0.2,1.1,0.8,0.9,0.9l0.4,0.4c0.1-0.2,1.1,0.9,0.7,0.7c0.4,0.4,1,1,0.9,1.1c-0.5-0.5-0.8-0.9-1.3-1.3c0.2,0.2,0.1,0.2,0.4,0.4
			c0-0.1,0.2,0.1,0.3,0.2c0,0.1,0.3,0.4,0.4,0.5c-0.1,0,0.1,0.2,0.1,0.3c-0.4-0.3-0.8-0.8-1.1-1.2c-0.1,0,0.5,0.5,0.4,0.6
			c0,0-0.2-0.2-0.3-0.2c0.1,0.1,0.6,0.6,0.6,0.7c-0.2-0.2-0.5-0.5-0.6-0.5c-0.2-0.3-0.5-0.6-0.7-0.8c0.1,0.2-0.5-0.3-0.6-0.2
			c0.4,0.3,1.1,0.7,1.3,1.2c0.4,0.4,1,1,1.2,1.3c-0.2-0.2-0.4-0.3-0.5-0.3c0,0.1,0.1,0.1,0.1,0.2c0.2,0.2,0.4,0.4,0.6,0.6
			c0.1,0.1,0.1,0.2,0.2,0.2c0,0,0.1,0,0.1,0.1c0.1,0.2,0.3,0.5,0,0.3c-0.1-0.1-0.2-0.3-0.3-0.4c-0.4-0.3-0.8-0.6-1.1-1.1
			c0,0,0,0,0.1,0c0,0,0,0,0,0c-0.1-0.1-0.3-0.3-0.4-0.4c-0.2,0-0.4-0.4-0.7-0.7c0,0,0.1,0,0.1,0.1c-0.1-0.2-0.3-0.3-0.4-0.5
			c0.2,0.2,0.5,0.4,0.7,0.7c0.1,0.1,0.3,0.3,0.4,0.4c-0.1-0.1-0.1-0.1-0.2-0.1c-0.3-0.4-0.3-0.5-0.7-0.8c0.3,0.2,0.1,0.1,0,0.1
			c-0.2-0.3-0.2-0.2-0.6-0.6c-0.1,0.1-0.8-0.7-0.9-0.6c0.9,0.6,1.7,1.5,2.2,2.3c0.2,0.2-0.1-0.2,0.1,0c0.1,0.1,0.2,0.2,0.2,0.3
			c-0.3-0.1,0,0.1,0.1,0.5c-0.5-0.4-0.2-0.4-0.5-0.7c-0.2-0.2-0.6-0.4-0.7-0.6c0,0,0.1,0.1,0.2,0.1c-0.1-0.1-0.2-0.2-0.3-0.4
			c0,0.1-0.1,0.1-0.2-0.1c0-0.2-0.1-0.4-0.5-0.8c-0.1,0,0.1,0.2,0,0.1c-0.2-0.2-0.4-0.4-0.6-0.6c0,0,0,0,0,0c0.1,0,0.1,0.1,0.2,0.2
			c0.1,0.2-0.3-0.2-0.3-0.2c-0.1,0.1,0.6,0.5,0.4,0.5c-0.3-0.3-0.5-0.5-0.8-0.7c-0.1-0.1-0.1-0.1,0-0.1c0,0,0,0,0-0.1
			c0.1-0.1,0.3,0.2,0.4,0.1c0,0-0.1-0.1-0.1-0.1c-0.2-0.1-0.4-0.3-0.7-0.5c0.1-0.1-0.8-0.6-0.7-0.8c0,0-0.1,0-0.2-0.1
			c-0.2,0.1,1.1,1,1.3,1.4c-0.5-0.4-0.3-0.2-0.1,0c-0.7-0.4-1.3-1.4-1.4-1.3c-0.2-0.2-0.7-0.7-0.7-0.6c0.4,0.4,0.1,0.1,0,0.2
			c0.1,0.1,0.6,0.4,0.7,0.6c0,0-0.6-0.5-0.4-0.2c0.4,0.3,0.4,0.3,0.6,0.4c0.1,0.1,0.1,0.2,0.2,0.3c0.1,0.1,0-0.1,0.3,0.1
			c0,0.4,1.2,1.1,1.6,1.7c-0.6-0.5-1.2-1-1.7-1.4c-0.5-0.5-1-0.9-1.5-1.2c0.1,0.1,0.1,0.1,0,0.1l-0.3-0.2c0.1,0,0-0.1,0-0.2
			c-0.4-0.2-0.3-0.4-0.7-0.6c-0.4-0.2-1-0.6-1.6-1.1c-0.2-0.1-0.4-0.3-0.6-0.4c0,0-0.1,0-0.1,0.1c0.3,0.2,0.6,0.4,0.9,0.6
			c-0.1,0.2,1.3,1.1,1.6,1.5c0,0,0-0.1,0.1,0c0.2,0.2,0.1,0.3,0.4,0.4c0.1,0-0.3-0.3-0.2-0.3c0.5,0.3,1.3,0.9,1.7,1.3
			c-0.3-0.3-0.5-0.3-0.4-0.2c0.2,0.1,0.4,0.2,0.7,0.5c-0.1,0-0.1,0-0.2,0c0.4,0.4,1,0.7,1.3,1.1c0,0-0.1,0-0.2-0.1
			c-0.6-0.5-1.5-1.4-1.9-1.5c0.6,0.5,1.3,1.2,2.1,1.8c-0.1,0.1,1.1,0.9,1.2,1.3c0.4,0.4,1,0.9,1.5,1.5c0.5,0.6,0.9,1.1,1.2,1.5
			C79,25.9,79,25.9,79,26c0.2,0.2,0.4,0.4,0.5,0.4c-0.1-0.1-0.2-0.2-0.1-0.2c0.5,0.6,0.6,0.8,0.9,1.1c-0.1,0-0.1-0.1-0.2-0.1
			c0.1,0.1,0.1,0.1,0.2,0.2c0.4,0.1,0.8,0.6,1.3,1.2c-0.2-0.1-0.4-0.2-0.5-0.3c0,0.1,0.1,0.3,0.2,0.4c0.2,0.1,0-0.2,0.2,0.1
			c0.4,0.6,0.4,0.6,0.8,1.1c0-0.1,0-0.2,0-0.3c0.2,0.3,0.3,0.3,0.5,0.5c-0.2,0.5,0.4,0.3,0.6,0.8c-0.4,0-0.9-0.4-1.1-0.9
			c0.1,0.2,0.2,0.5,0.1,0.3c0.2,0.3,0.3,0.5,0.4,0.7c0,0,0,0,0,0c0.1,0.2,0.2,0.5,0.5,0.7c0,0.4-0.3-0.6-0.4-0.3
			c-0.1-0.2-0.2-0.4-0.3-0.5c-0.2,0-0.4,0.1-0.6,0.2c0.1,0.3,0.3,0.7,0.7,0.9c-0.3,0-0.6-0.4-0.9-0.6c0.1-0.1,0.1-0.2,0-0.3
			c0,0,0,0,0,0c-0.1,0-0.2,0.1-0.3,0.1c-0.1,0-0.1,0-0.2,0c-0.1,0-0.3-0.1-0.4-0.2c0.1,0.1,0.1,0.2,0,0.4c-0.1-0.2-0.2-0.3-0.3-0.5
			c-0.7-0.3-1.4-0.7-2.2-0.7c0,0,0,0,0,0c-0.2,0.1-0.3-0.3-0.5-0.5c-0.3-0.2-0.7-0.3-0.9-0.5C76.6,29,76.4,29,76.2,29
			c0.2,0.2,0.3,0.3,0.3,0.4c-0.1,0.2-0.4-0.3-0.6-0.1c0-0.2-0.1-0.3-0.1-0.3c-0.4,0-0.7,0-1-0.3c0,0.2,0,0.5,0.4,0.5
			c-0.1,0.2,0.3,0.5,0.2,0.6c0.2,0.2-0.1-0.3,0.2-0.2c-0.1,0.5-0.2,0.6,0.2,1.1c0.1,0.1,0.3,0,0.2-0.1c0.2,0.4,0.8,0.8,1.2,1.2
			c-0.1,0.1-0.2,0-0.2,0.1C77,31.9,77,32,77,32.1c0.1,0.1,0.1,0,0.1,0c0.8,0.7,1.7,1.5,2.3,2.6c0.1,0.1,0.3,0.1,0.2,0.3
			c0.2,0.2,0.1-0.4,0.4,0.1c0,0.2-0.1,0-0.2,0.2c0.1,0.3,0.4,0.2,0.3,0.4c-0.2,0.2-0.3-0.6-0.6-0.6c-0.1,0-0.1,0.1,0,0.3
			c-0.2,0.1-0.4-0.4-0.5-0.6c0.1-0.1,0.3,0.2,0.4,0.2c-0.1-0.3-0.1-0.5-0.4-0.7c0,0.1,0.1,0.2,0,0.3c-0.4-0.1-0.2-0.4-0.3-0.6
			c-0.2-0.2-0.1,0.2-0.2,0.3c0.1,0.1,0.3,0.5,0.4,0.4c-0.1,0.3-0.8-0.8-0.9-1c0.2-0.1,0.3,0.2,0.5,0.3c0.1-0.2-0.4-0.3-0.2-0.5
			c-0.2-0.1-0.3,0.1-0.5,0.1c-0.5-0.6-1.4-1.5-1.8-1.9c0.2-0.1,0.1-0.1,0.3-0.3c-0.1-0.2-0.3,0-0.4,0.1c0-0.3-0.3-0.1-0.5-0.3
			c0.1-0.1,0.2,0,0.3-0.2c-0.3-0.2-0.3-0.1-0.4,0.1c-0.6-0.6-1.3-1.3-2.1-2c-0.4-0.4-0.8-0.7-1.2-1.1c-0.5-0.3-0.9-0.7-1.4-1
			l0.1-0.1c-0.1,0.1-0.3,0.1-0.4,0.2c0,0-0.1,0-0.1,0c0,0,0.1,0,0.1,0.1c-0.1,0.2-0.4,0.1-0.6,0c-0.2-0.1-0.3-0.2-0.4-0.4
			c-0.2,0-0.5,0-0.6,0.1c-0.3,0.3-0.7,0.4-1,0.4c0.2,0.1,0.3,0.1,0.5,0.3c-0.2,0.1-0.4-0.2-0.6,0c-0.1-0.1,0-0.2,0-0.3
			c-0.1,0-0.2,0-0.3,0c-0.4,0-0.4-0.1-0.3-0.4c-0.1-0.1-0.2-0.2-0.4-0.1c-0.2-0.2-0.4-0.4-0.5-0.4c0,0-0.1,0.1-0.2,0.1
			c0,0,0.1,0,0,0.1c-0.5,0.4-0.1,0.5,0.6,0.5c-0.4,0-0.4,0.4-0.4,0.7c-0.3-0.2-0.2-0.3-0.2-0.5c-0.2,0-0.4,0.1-0.6,0
			c-0.1-0.1,0.2-0.3-0.1-0.4c-0.3,0-0.5,0.4-0.8,0c0.1-0.1,0.2,0.1,0.3,0c-0.3-0.4-0.4-0.2-0.5,0c-0.3-0.2-0.1-0.2,0-0.3
			c-0.2,0.1-0.5-0.1-0.7,0c0,0.1,0.2,0.2,0.3,0.3c-0.1,0-0.2,0.1-0.4,0c0.1,0.3,0.1,0.4-0.2,0.5c0,0.1,0,0.1,0,0.2
			c0.1,0.1,0.3,0.1,0.4,0.1c0.1,0.1-0.2,0.3,0.2,0.4c-0.3,0.1-0.2,0.3-0.5,0.4c-0.1-0.4-0.1-0.1-0.2,0c-0.3,0.1-0.6-0.3-0.9-0.1
			c-0.1-0.2-0.1-0.4,0-0.7c-0.1-0.1-0.2,0-0.3-0.1c0,0.2,0.1,0.3-0.1,0.5c-0.4-0.2-0.5-0.6-0.9-0.4c0-0.1,0-0.2,0-0.3
			c-1.2-0.6-2-0.8-2.9-1.2c-0.4,0-0.8-0.1-1.2-0.3c-1.2-0.1-2.4-0.6-3.6-0.6c-0.1,0.1-0.2,0.1-0.3,0.1c0,0-0.1-0.1-0.1-0.1
			c-1,0-1.8-0.1-2.8-0.2c-0.5,0-1,0-1.3,0.2c-0.3,0.2-0.5,0.1-0.7,0c-0.7-0.4-1-0.4-1.8-0.2c-0.3,0.1-0.8-0.2-1-0.3
			c-0.5,0.4-1.2,0.2-1.7,0.5c-0.5,0.2-0.6,0.1-1.1-0.1c-0.5-0.2-1.4-0.5-2.1-0.2c-0.7,0.3-1.4,0.2-2.1,0.1c-0.7,0-1.5-0.3-2.1-0.1
			c-0.6,0.2-1.2,0.2-1.8,0.3c-0.3,0-0.5,0.1-0.8,0.1c0,0.1,0.1,0.1,0.1,0.3c-0.2,0-0.2-0.1-0.4-0.2c-0.2,0-0.5,0.1-0.7,0.2
			c-0.4,0.1-0.8,0.2-1.1,0.1c0,0.1-0.1,0.2-0.2,0.2c0-0.1,0.1-0.2,0.1-0.2c-0.3,0-0.5,0-0.8-0.1c-0.3,0.3-0.6,0.8-0.9,0.8
			c0-0.2,0.2-0.4,0.4-0.5c0-0.1-0.2,0-0.2-0.1c-0.2,0.1-0.2,0.2-0.4,0.3c-0.4-0.1-0.4,0-0.6-0.1c0,0,0,0,0,0
			c-0.3,0.1-0.5,0.2-0.8,0.2c0,0-0.1,0-0.1,0c-0.1,0-0.2,0-0.2,0c0,0,0.1,0.1,0.1,0.1c-0.2,0.2-0.6,0.2-0.5,0.5
			c-0.1,0-0.1-0.1,0-0.1c-0.1-0.1-0.4,0.1-0.3-0.2c0.1-0.2,0.2,0,0.4-0.1c0-0.1-0.1-0.1-0.1-0.2c-0.1,0-0.1,0-0.2,0
			c-0.1,0.1-0.1,0.2-0.3,0.1c0,0.4-0.1,0.6-0.5,0.6c0-0.3,0.2-0.4,0.3-0.6c0,0-0.1-0.1-0.1-0.2c0,0,0,0,0,0c0,0.1-0.1,0.3-0.2,0.4
			c-0.2,0-0.2-0.1-0.3-0.3c-0.1,0.2-0.2,0.4-0.4,0.3c0,0.1,0,0.3,0.2,0.3c0,0.2-0.2,0.1-0.2-0.1c-0.1,0-0.1,0.3-0.2,0.1
			c0,0.1,0.3,0.5-0.1,0.6c0.1,0.2,0.4-0.1,0.6,0c0.1-0.1,0.1-0.2,0.1-0.3c0.2,0.1,0.1,0.1,0.3,0c0.1,0.3-0.3,0.3-0.1,0.6
			c-0.2,0.1-0.2-0.2-0.2-0.3c-0.3,0.2-0.3,0.2-0.5,0.4c0.1,0.1,0.2,0,0.2,0.2c-0.3,0-0.6,0-0.8,0.2c0.1-0.2,0.1-0.1,0-0.3
			c0,0.2-0.3,0.2-0.2,0.4c-0.1,0-0.2-0.2-0.3-0.3c-0.3,0.2-0.8,0.3-1.1,0.1c-0.1,0.1,0.2,0.4,0.3,0.3c0,0.3-0.5,0.3-0.4-0.1
			c-0.2,0.1-0.4,0.2-0.5,0.3c0.2,0.1,0.2-0.2,0.3,0c-0.2,0.3-0.7,0.5-1.3,0.6c0.4,0-0.3,0.3-0.2,0.6c-0.2,0-0.2-0.2-0.3-0.2
			c0-0.1,0.1,0,0.3-0.2c-0.1-0.2-0.6,0.2-0.7,0.3c0.1,0.1,0.1-0.2,0.4-0.1c-0.1,0.4-0.4,0.5-0.7,0.7c-0.1-0.1-0.1-0.3-0.2-0.2
			c0-0.1,0.3,0,0.1-0.3c-0.1,0-0.2,0.1-0.3,0.1c-0.2,0,0.1-0.2-0.1-0.4c-0.1,0.4-0.3,0.3-0.3,0.7c-0.4,0.2-0.8,0.7-1.1,0.3
			c-0.1,0.1,0.1,0.3,0.1,0.4c-0.2,0-0.4,0-0.4-0.2c-0.2,0.1-0.1,0.2-0.3,0.2c-0.2-0.1,0-0.2-0.1-0.4c-0.2,0.1-0.1,0.3,0,0.5
			c0.1,0.2,0.2-0.3,0.2,0c0.1,0.1-0.2,0.3-0.3,0.1c-0.1,0.1,0,0.2-0.2,0.3c-0.3,0.2-0.4-0.1-0.6,0c0.2,0,0.4,0.3,0.4,0.2
			c0.3,0.1-0.4,0.5-0.6,0.4c-0.1-0.1,0.3,0,0.3-0.2c-0.3,0-0.4,0.5-0.8,0.2c-0.2,0.2,0.2,0.2,0.1,0.4c-0.2,0-0.3-0.1-0.5,0
			c0.1,0.2-0.2,0.2-0.1,0.4c-0.5,0.2-0.8,0.3-1.1,0.7c0-0.1,0-0.2-0.1-0.3c-0.1,0.6-1.1,0.9-1.6,1.4c-0.1,0.1,0.1,0.2-0.2,0.1
			c0,0.1,0,0.1-0.1,0.2c0.1,0,0.2,0,0.3,0c-0.2,0.2-0.8,0.4-0.7,0.9c-0.3,0-0.7,0.1-0.7,0.5c-0.5,0-1.2,0.7-1.6,1.2
			c0-0.1,0-0.2,0-0.3c-0.1,0.2-0.3,0.2-0.4,0.3c-0.1,0.1,0.1,0,0.1,0.2C9.8,38,9,38.1,8.7,38.6c-0.1-0.1-0.2-0.2-0.3-0.2
			c-0.1,0.3-0.4,0.2-0.2,0.4c-0.1,0.1-0.2-0.1-0.3,0c-0.1,0.2,0.3,0,0.4,0.2c-0.2,0-0.1,0.2-0.4,0.3c-0.2-0.6-0.6,0.4-1,0.6
			c0.2-0.1,0.3,0.1,0.5,0c0.1,0.1-0.1,0.1-0.2,0.1c-0.4,0.4-0.1,0.5-0.5,0.5c0,0.1,0.1,0,0.2,0.1C6.6,41,6.4,40.9,6.3,41
			c0.1,0.1,0.1,0.5-0.3,0.4c0,0.1-0.1,0.4-0.3,0.2c-0.1,0.1,0.1,0.2,0,0.4C5.8,42,5.9,41.7,6,41.7c0.3,0.4,0.6,0.3,0.8,0.6
			c-0.7,0.1-1.5,0-2.1,0.1c0,0-0.1,0.1-0.1,0.1c0.1,0,0.4-0.1,0.2,0.2c0.1,0,0.2-0.2,0.3,0c0.2-0.2,0-0.3,0.2-0.3
			c0.1,0.1,0,0.3-0.1,0.4c0.1,0,0.5,0,0.5,0.2c0.2,0,0.6-0.2,0.6,0.1c-0.1,0.1-0.3,0.3-0.4,0.4c-0.4-0.3-0.7,0.1-1-0.3
			c-0.2,0.1-0.4,0.1-0.6,0c-0.1,0.3-0.4,0.5-0.3,0.7c0.2,0,0.1-0.3,0.3-0.3c0.3,0.1,0.4,0.7,0.7,0.5c0.2,0.2-0.1,0.2-0.2,0.4
			C4.4,44.3,4.3,44,4,44.3c0-0.1,0.1-0.1,0-0.3c-0.2,0.1-0.5,0.1-0.8,0.2c0,0.1,0.2,0.1,0.2,0.3c-0.2,0.1-0.4,0.3-0.1,0.5
			c0.1,0.1,0.2-0.3,0.3-0.3C4,44.5,4,45.2,4.3,44.9c-0.1,0.2,0,0.3,0.3,0.4c-0.1,0.1-0.1,0.2-0.1,0.2c-0.5,0.1-2-0.6-1.5,0.4
			c0.3,0,0.4,0.1,0.6,0.4c0.2-0.1,0.6-0.2,0.7,0.2c-0.9,0.5-2.1-0.7-2.8,0.2c-0.1,0.2,0.2,0.2,0.2,0.4c0.5-0.1,1.3,0.5,1.9,0.5
			c-0.4,0.5-0.7-0.3-1.1,0.2c-0.5-0.3-0.8,0-1.3-0.3c-0.1,0.1,0,0.2-0.1,0.3c0-0.1,0-0.2-0.1-0.2c-0.2,0.1-0.4,0.2-0.6,0.5
			c0.4,0.3,0.8,0,1.1,0.4c0.4-0.2,0.6,0,1,0.3c-0.5,0.4-1.6,0.1-1.8-0.1c-0.1,0-0.2,0.1-0.3,0.2c-0.2-0.3-0.6-0.2-0.9-0.3
			c-0.1,0.8-0.3,1.4-1,2c0,0,0,0-0.1,0.1c0.5,0.1,1.1-0.1,1.3,0c0.3,0.1,0.1,0.2,0.5,0.1c-0.1,0.3-0.4,0.3-0.5,0.7
			c-0.2,0,0-0.3-0.1-0.4c-0.2,0-0.5,0.3-0.6,0c-0.1,0,0,0.2-0.2,0.3c-0.2-0.2-0.2,0-0.4,0.1c0,0.1,0,0.2-0.2,0.2
			c-0.3,0.1-0.3,0.1-0.6,0.1c-0.3,0-0.5,0.4-0.7,0.7c-0.2,0.3,0,0.6,0.2,0.7c0.2,0.1,0.3,0,0.4,0.2c0.1,0.1,0.2,0.2,0.2,0.4
			c0,0.1,0.1,0.3-0.1,0.4c-0.2,0.1-0.6,0.1-1,0.3s-0.6,0.8-0.5,1.2c0.1,0.4,0.4,0.5,0.4,0.8c0.1,0.3-0.5,0.4-0.5,0.7
			c0,0.3-0.2,0.5-0.2,0.8c0,1,0.4,1.9,0.2,2.9c0,0.1,0.3,0.3,0.3,0.6c0.1,0.2,0,0.4-0.2,0.3c-0.3-0.1-0.3-0.2-0.5,0.1
			c-0.2,0.3-0.2,0.8-0.2,1.2c0.1,0.4,0.3,0.7,0.5,1c-0.2,0.2-0.6,0.4-0.7,0.6c-0.2,0.2-0.2,0.4-0.2,0.6c0,0.1,0,0.2,0,0.2
			c0.1,0.6,0.3,1.1,0,1.7c-0.3,0.6,0.1,1.1,0.1,1.7c0,0.1,0,0.2,0,0.2c-0.4,0.6-0.2,1.4-0.1,1.9c0.1,0.5,0.2,0.7,0,1.1
			c-0.2,0.4,0,0.8,0,1.3c0,0.4-0.4,0.8-0.3,1.2c0.1,0.4,0.2,0.5,0.5,0.6c0.3,0.1,0.2,0,0.5,0c0.2,0.1,0.4,0.1,0.4,0.4
			c0,0.3-0.5,0.7-0.7,0.7c-0.2,0-0.3-0.1-0.4,0c-0.2,0.8,0,1.4,0.7,1.9c0.2,0.2,0.6,0.1,0.7,0.4c0.1,0.3,0.1,0.7-0.1,1
			c-0.2,0.3-0.2,0.4,0.1,0.8c0.3,0.3,0.5,0.9,0.3,1.4c-0.2,0.5-0.1,0.9,0.3,1.2c0.2,0.1,0.2,0.2,0.1,0.3c-0.4,0.6,0.1,0.9,0,1.5
			c-0.1-0.1-0.1-0.2-0.2-0.2l0.1,0.4c0,0,0,0,0,0c-0.4-0.6-0.4-0.8-0.6-1.1c0.1,0.2,0,0.2,0.1,0.3c-0.1-0.3-0.4-0.7-0.5-0.7
			c0.2,0.2,0.3,0.4,0.3,0.6c-0.3-0.5-0.1,0.5,0.1,0.6c-0.5-0.9,0.2-0.2-0.1-0.3c0.2,0.4,0.1,0.1,0.3,0.4c0,0.5-0.5-0.5-0.8-0.7
			c0.2,0.2,0.4,0.6,0.5,0.9C-3.6,85-3.2,86-2.6,86.8c-0.3-0.5-0.3-0.4-0.5-0.4c0.3,0.5,0.2,0.5,0.2,0.7c0.2,0.3,0.3,0.4,0.5,0.7
			c0.1,0.1,0.1-0.1,0.3,0.2c0.2,0.3,0.6,0.9,0.3,0.6c0,0,0.1,0.1,0.1,0.1c0,0,0,0,0,0c-0.2,0.4-0.2,0.6,0.3,0.6
			c0.5,0.6,0.7,1.4,0.7,2.1c0,0.1,0,0.2,0,0.3c-0.3-0.4-0.6-0.6-0.4-0.3c0.1,0,0.3,0.2,0.3,0.4l0,0c0,0.3,0.1,0.5,0.4,0.6
			c0,0,0,0.1,0.1,0.1c-0.1-0.3,0.4,0.4,0.4,0.3c-0.1-0.1-0.2-0.3-0.4-0.4c0.1,0,0.2,0,0.4,0c0.4,0,0.7,0.2,0.8,0.6
			c0.2,0,0.4,0,0.6-0.1c0.2,0.2,0.3,0.3,0.2,0.2c-0.1-0.1-0.1-0.1-0.1-0.2c0,0,0,0,0.1,0c0,0,0.1,0.1,0.1,0.1c0,0,0,0-0.1-0.1
			c0.1,0,0.2,0,0.4,0c0.2,0.3,0.4,0.4,0.6,0.5c0,0.2,0,0.4,0,0.7L2.4,94c-0.1,0,0.1,0.3,0.2,0.4c0,0.2,0,0.3,0,0.5
			c0.2-0.1,0.3-0.2,0.4-0.3c0,0,0,0,0,0l0,0c0,0,0.1,0,0.1-0.1C3.5,95,3.5,94.8,3.8,95c0.1,0.2,0.3,0.3,0.5,0.4c0,0.1-0.1,0.1,0,0.2
			c0.1-0.1,0.1-0.1,0.3,0c0.2,0.2,0.1,0.2,0.2,0.3c0,0,0.2,0.1,0.3,0.2c0.1,0,0.4,0.2,0-0.2c-0.2-0.1,0.2,0.3,0,0.1
			c-0.3-0.3-0.2-0.3-0.3-0.5c0.2,0.1,0.9,0.9,1.1,1c-0.1-0.1-0.1-0.2,0.1,0c0,0.1-0.2-0.1-0.2,0.1c0.4,0.4,0.6,0.4,0.9,0.7
			c0,0,0.1,0.1,0.1,0.2c-0.3-0.2,1.1,0.8,1.4,1c0,0,0.1,0.1,0.1,0.1c-0.2-0.1-0.3-0.1-0.5-0.2c-0.3-0.2-0.5-0.5-0.7-0.6
			c0.4,0.3,0.6,0.6,0.8,0.8c-0.5-0.4-0.3-0.1-0.7-0.3c-0.2-0.2-0.7-0.9-0.6-0.7C6.7,97.9,6.7,98,6.7,98c-0.6-0.5-0.9-0.9-1.3-1.1
			c0.3,0.3,0.7,0.6,1.1,1c-0.1,0-0.3-0.2-0.6-0.4c-0.2-0.2-0.4-0.4-0.5-0.6C5,96.7,5.3,97.2,5,96.9c0.2,0.2,0.7,0.8,1,0.9
			c-0.3-0.2-0.3-0.3-0.5-0.5c1,0.7,1.1,1.2,1,1.2C6.7,98.8,6.9,99,7,99.2c0,0.1-0.8-0.6-0.8-0.4c0.2,0.2,0.4,0.2,0.4,0.3
			c-0.4-0.3,0.1,0.3-0.5-0.2l0-0.1c-0.5-0.5-0.2,0.1-0.6-0.2c-0.1-0.1-0.5-0.5-0.5-0.4c-0.1,0,0.6,0.5,0.4,0.4c0,0-0.3-0.2-0.3-0.2
			c0.3,0.3-0.2,0-0.1,0.1c0.3,0.2,0.6,0.5,0.7,0.7c0-0.2,0.3,0.2,0.1-0.2c0.2,0.2,0.5,0.5,0.3,0.4c1,0.8,1.8,1.5,2.6,2.1
			c0.1,0.2,0.4,0.5,0.5,0.6c0,0.1-0.4-0.3-0.5-0.2c0.1,0.1,0.1,0.1,0,0.1c0.4,0.3,0.6,0.5,0.8,0.8c-0.6-0.5-0.5-0.2-1-0.6
			c0.1-0.1-0.7-0.7-0.9-0.8c0.3,0.4,0.9,0.7,0.9,0.9c-0.3-0.2-0.8-0.6-0.9-0.6c0.6,0.4,0.7,0.7,1,1c-0.2-0.1-1.6-1.4-1.8-1.4
			c0.7,0.6,1,1,1.1,1.2c0.3,0.3,0.6,0.3,0.7,0.5c-0.5-0.4,0.3,0.4,0.4,0.4c-0.3-0.2-0.2-0.3,0.2-0.1c-0.2-0.1,0,0.2,0.1,0.3
			c0.8,0.5,1.4,1,1.9,1.2c-0.4-0.2-0.4-0.3-0.7-0.4c-0.3-0.3-0.1-0.3-0.6-0.7c0.5,0.3,0.5,0.3,0.8,0.5c0.1,0.1-0.3-0.1,0.1,0.2
			c0.4,0.1,1,0.6,1.4,0.9c0.6,0.4,2.7,1.3,2.7,1.6c0.2,0.1,0.3,0.1,0.4,0.2c0.4,0.2-0.3-0.2-0.1-0.1c0.1,0.1,0.1,0.1,0.2,0.1
			c0.1,0.1,0.4,0.4,0.6,0.4c0.3,0,2.2,1,2.9,1.2c0.1,0.1,0.8,0.5,1,0.5c-0.1,0-0.4-0.3-0.1-0.1c0.3,0.1,0.5,0.3,0.6,0.3
			c-0.1,0-0.1-0.1,0,0c0.5,0.2,0.5,0.4,0.7,0.5c0.1,0.1-0.6-0.1-0.3,0.1c0.3,0,1.5,0.7,1.8,0.9c-0.5-0.2-0.9-0.2-1.5-0.5
			c-0.2,0-0.4,0-0.9-0.2c0.2,0,0-0.1-0.2-0.2c0.1,0.2-0.1,0.1-0.1,0c0,0.1-0.5-0.2-0.5-0.1c0.6,0.3,0.8,0.3,1.3,0.5
			c-0.6-0.1-1.6-0.7-1.9-0.6c-0.7-0.3-1-0.4-1.4-0.7c0.3,0.3-0.6-0.3-0.7-0.3c-0.1,0.1,0.4,0.3,0.2,0.3c0.3,0.1,0.7,0.3,0.7,0.4
			c-0.7-0.3-1.2-0.6-1.7-0.8c0.2,0.2-0.5-0.1-0.6-0.2c0.1,0.1,0.1,0.1,0,0.1c0.3,0.2,0.4,0.3,0.6,0.4c-0.5-0.2,0.1,0.1,0.1,0.2
			c-0.1,0-0.6-0.3-0.5-0.2c0.2,0.1,0.9,0.6,1,0.5c-0.6-0.3-0.1-0.2,0.3-0.1c0.3,0.3,1.4,0.7,1.6,1c0.1,0,0.2,0,0.4,0.1
			c0.6,0.3,1,0.5,0.6,0.5c0.3,0.1,0.4,0.2,0.5,0.3c-0.2,0-1-0.4-1-0.5c-0.3-0.1-0.4-0.1-0.6-0.3c-0.2,0-0.4,0-0.5-0.1
			c-0.6-0.3-0.6-0.3-1.1-0.5l0,0.2c0.3,0.2,0.5,0.2,0.6,0.3c-0.4-0.2-0.7-0.2-0.4,0c-0.2-0.1-0.3-0.1-0.5-0.2c0.2,0.2,0.4,0.3,0,0.2
			c0.3,0.2,0.5,0.3,0.5,0.3c0.2,0.1,0.3,0.1,0.5,0.2c0,0,0,0.1,0.1,0.2c-0.4-0.2-0.5-0.1-0.8-0.1c0.1,0.1,0.1,0.1,0.1,0.1
			c0.5,0.2,0.6,0.4,0.9,0.4c0.2,0.2,0.1,0.2,0,0.2c-0.2-0.1-0.5-0.3-0.5-0.2c0.5,0.2,1,0.4,1.3,0.5c0.2,0.1,0.8,0.4,0.4,0.3
			c0.2,0.2,0.6,0.3,0.9,0.4c-0.1,0.1,0.8,0.4,0.4,0.3c0.5,0.2,0.1-0.1,0.5,0.1c0.3,0.2,1,0.5,1.8,0.8c0.8,0.2,1.6,0.5,2.3,0.6
			c-0.1,0-0.3-0.1-0.3-0.1c1.2,0.4,2.7,1,3.6,1c0.3,0.1-0.2,0,0.2,0.2c0,0,0.2,0,0.3,0.1c-0.1,0-0.2,0-0.1,0
			c-0.4-0.1-0.5-0.2-0.5-0.1c0.9,0.3,2,0.5,3,0.7c1,0.2,2,0.4,2.9,0.5c0.4,0.1,0.8,0,1,0.2c0,0-0.2-0.1-0.3-0.1c0.2,0,0.4,0,0.7,0
			c0.2,0.1,1.3,0.2,2,0.2c1.7,0.2,3,0.1,4.1,0.3c0.5,0,1.4,0,2.4,0c0.9,0,1.9,0,2.4-0.2c0.2,0,0.3,0,0.3,0c0.6,0,0.2-0.1,0.8-0.2
			c0.3,0,0.2,0.1,0.5,0c0.4-0.1,0.7-0.1,0.5-0.2c0.4,0,0.5,0.1,0.9,0.1c0.2-0.1,0.8-0.1,1.1-0.1c1.8-0.3,4.3-0.6,6.5-1.3
			c-0.5,0.1-1.3,0.3-0.8,0.1c-0.5,0.2-1.3,0.3-1.7,0.5c-0.5,0-1.3,0.2-1.8,0.4c-0.4,0-0.5,0-1,0.1c0-0.1-0.2,0-0.3,0
			c0.8-0.3,1.9-0.3,3.2-0.6c-1.6,0.2-2.4,0.4-3.9,0.6c0-0.1-0.1-0.1-0.3-0.1c-0.6,0.2-3.2,0.4-3.8,0.3c-1,0.1-1.9,0.3-2.7,0.1
			c0.2,0.1-1.7,0.2-1.8,0c0,0,0.4,0,0.4,0c-0.4,0-1.1,0.1-1.4-0.1c-0.4,0.2-2.4-0.2-3.2,0c-0.4-0.1-0.5-0.1-0.3-0.2
			c-0.6,0-0.8,0-1.7-0.1c-0.7-0.3-3.4-0.5-4.1-0.8c0.8,0.1,2,0.3,3.3,0.5c1.3,0.1,2.6,0.3,3.6,0.2c-0.8,0-1.7-0.2-2.2-0.2
			c0.1-0.2-1.1-0.2-1.2-0.3c1.1,0.2,3.2,0.2,3.7,0.5c0-0.1-0.5-0.1-0.6-0.2c1.1,0,1.8,0.3,2.8,0.2c-0.1,0.1,0,0.1,0.2,0.1
			c1.2,0,2.5,0.1,3.2,0c0.5,0,1,0.1,1.4,0.1c0.4,0,0.7-0.1,1.1-0.1c0.3,0,1.4,0,1,0c0.6,0,1.5-0.1,1.9-0.2c0,0.1,1.2-0.2,1.2-0.1
			c0.5-0.1,0.5-0.2,1.2-0.3c0.2,0,0.4,0.1,0.9,0c1.1-0.3,2.1-0.5,3.7-0.8c0,0-0.1-0.1,0.1-0.1c1.1-0.3,2-0.7,2.7-0.7
			c0.4-0.3,1.1-0.3,1.6-0.5c0.7-0.2,2-0.9,2.1-0.7c0.2-0.1,0.1-0.1,0.5-0.3c0,0.1,0.4-0.1,0.6-0.1c0.2-0.3,1.2-0.6,1.8-0.8
			c0,0,0.1,0,0.1,0c0.1,0.1,0.2,0.3,0.3,0.4c-0.6,0.3-1.1,0.5-1.4,0.7c-0.1,0-0.5,0.2-0.6,0.1c0.2-0.1,0.5-0.2,0.5-0.2
			c-0.4,0.2-0.4,0.1-0.7,0.2c0.4,0,0.5-0.1,0.6,0.1c0-0.2,0.9-0.6,1.7-0.9c0.2,0.2,0.5,0.2,0.9,0.2c0.6-0.1,1-0.2,1.7-0.1
			c0.7,0.1,1-0.4,1.6-0.6c0.2,0,0.4,0,0.5,0.1c0.5,0.2,0.7-0.3,0.6-0.6s-0.1-0.3-0.1-0.5c0-0.6,0.2-0.6,0.7-0.6
			c0.2,0,0.6,0.2,0.7,0.1c0.3-0.4,0.8-0.4,1.3-0.6c0.7,0.5,0.9,0,1.6,0c0.5-1,1.7-0.5,2.4-1.3c0.7,0.6,1-0.3,1.6,0
			c0.5,0.3,0.4-0.5,0.9-0.2c0.5,0.3,0.7-0.1,1.1-0.4c0.4-0.3,0.8-0.4,1.1-0.7c0,0,0.2,0.1,0.3,0.2c0.2,0.3,0.7,0.7,1,0.4
			c0.8-0.9,1.6-1.3,1.9-2.6c0.1-0.2,0.4-0.5,0.6-0.7c0.6-0.5,1.2-1.4,1.6-2c0.4-0.5,0.4-0.9,0.4-1.4c0-0.5,0-0.4,0.3-0.7
			c0.3-0.3,0.7-1,0.8-1.5c0.1-0.5,0-0.4-0.3-0.4c-0.3-0.1-0.4,0-0.4-0.4c0.1-0.4,0.3-0.8,0.3-1c0.1-0.2,0-0.2,0-0.2
			c0-0.1-0.1-0.1-0.2-0.1c-0.4,0.1-0.5,0.5-0.8,0.8c-0.7,0.8-1.4,1.3-2,2.3c-0.5,0.9-1.3,1.8-2,2.7c-0.3,0.4-0.7,0.4-1.1,0.5
			c-0.1-0.3,0.1-0.7,0.3-0.9c0.5-0.7,0.9-1.2,1.4-1.9c0.2-0.2,0.2-0.4,0.2-0.7c0-0.2,0-0.4,0-0.6c0.2-0.2,0.2-0.3,0.5-0.7
			c0.2-0.2,0.3-0.1,0.6-0.5c0-0.1,0.1-0.3,0.5-0.6c0.1,0,0.2-0.1,0.1,0c1.1-1.4,1.4-1.6,2.5-2.8c-0.1,0-0.2,0,0.1-0.4
			c0,0.2,0.8-0.8,1.1-1.2c0-0.1-0.5,0.6-0.5,0.4c0.3-0.4,0.5-0.5,0.5-0.7c0.2-0.1,0.1,0.1,0.4-0.3c-0.1,0-0.2,0,0.1-0.4
			c0,0.1,0.2-0.1,0.2-0.1c1.1-1.8,2.8-4.1,4.1-6.6c0-0.1,0.1-0.2,0.1-0.3c0.2-0.4,0.5-0.7,0.6-1.1c0.5-0.9,1-1.8,1.1-2.5
			c0.8-1.5,1.1-2.6,1.7-4.1c0.2-0.3,0.3-0.6,0.4-0.9c-0.1,0.2-0.1,0,0-0.1c0.1-0.2,0.2-0.4,0.3-0.7c0-0.1,0-0.3,0.1-0.5
			c0.4-0.4,0.2-1.3,0.7-2.3c0-0.4,0.1-0.8,0.3-1.3c0.1-0.5,0.2-1,0.4-1.6c0.3-1.1,0.4-2.1,0.4-2.7c-0.1,0.6,0,0.6-0.1,1.1
			c-0.2-0.9,0.3-2.2,0.4-3.8c0,0-0.1,0.1-0.1,0.2c0-0.5,0.1-1.8,0.3-2.2c-0.1-0.8,0.2-2.8,0.2-4c0.1-0.1,0.1-0.4,0-0.4
			c0-0.1,0.1-0.1,0.2-0.3C102.3,57.1,102.3,56.7,102.3,56.2z M95.4,33.5c-0.1,0-0.2-0.4-0.2-0.5c0.1,0.1,0.2,0.3,0.1,0.1
			c0.1,0.1,0.3,0.5,0.4,0.7C95.6,34.1,95.2,33.1,95.4,33.5z M89.7,29.4c0.1,0,0.2,0.3,0.2,0l0.1,0.2c0,0,0,0.1,0,0.1
			C90,29.6,89.9,29.7,89.7,29.4z M83.8,29.5c-0.1-0.1-0.3-0.5-0.4-0.7c0,0,0.1,0.1,0.2,0.3c0.1,0.1,0.1,0,0.2,0.1
			C83.9,29.2,83.7,29.2,83.8,29.5C84.1,29.9,83.6,29.1,83.8,29.5z M83.8,28.8c0.4,0.5-0.1,0.1-0.3-0.3c0-0.1,0.3,0.3,0.3,0.4
			C83.9,28.9,83.9,28.9,83.8,28.8z M83.3,28C83.4,28.1,83.5,28.1,83.3,28c0.4,0.3,0.1,0.1,0.2,0.4c-0.1-0.1-0.3-0.4-0.4-0.6
			C83.2,27.8,83.3,28,83.3,28z M78.5,22.9c0.2,0.1,0.6,0.6,0.6,0.7C78.9,23.3,78.5,23.1,78.5,22.9z M71.7,18.6
			c-0.3-0.3-0.6-0.5-0.7-0.6c0.3,0.1,0.4,0.3,0.7,0.5L71.7,18.6z M76.1,21.4c0.1,0.1,0.3,0.3,0.5,0.5C76.5,22,75.9,21.5,76.1,21.4z
			 M76.4,22.4c0-0.1,0.6,0.4,0.5,0.4C76.9,23,76.6,22.6,76.4,22.4z M77.5,23.9c0.1,0,0.6,0.5,0.7,0.7C78.1,24.8,77.6,24.1,77.5,23.9
			z M76.2,30.5c-0.2-0.3-0.5-0.6-0.6-1c0.4,0.1,0.5,0.4,0.9,0.7L76.2,30.5z M77.3,30.5c-0.2-0.4-0.3,0.1-0.5-0.2
			c0.4-0.1,0-0.4-0.1-0.6c0.3,0.1,0.5,0,0.8,0.4C77.2,30.2,77.6,30.4,77.3,30.5z M-2.6,52c0.1-0.2,0.2-0.3,0.3-0.2
			C-2.3,52-2.4,52.1-2.6,52z M-4.3,73.6c0,0-0.1,0-0.1-0.1c0,0,0.1-0.2,0.1-0.2c0,0,0.1,0.1,0.1,0.1C-4.1,73.5-4.2,73.6-4.3,73.6z
			 M-2.7,75.1c0.1,0,0.1,0.1,0.1,0.1c0,0.1,0.1,0.2,0.1,0.3C-2.6,75.3-2.7,75.2-2.7,75.1z M-2.5,71.6c-0.2,0-0.2-0.2-0.2-0.3
			c0-0.1,0-0.1,0-0.2c0-0.1,0-0.2,0.1-0.2c0,0,0,0,0,0c0,0,0,0,0,0c0,0,0,0,0,0c0,0,0,0,0,0c0.2,0,0.2,0.2,0.2,0.3
			C-2.3,71.4-2.3,71.6-2.5,71.6z M-2.3,75.9c0.1,0,0.2,0,0.2,0.1c0.1,0.2,0.1,0.4,0.1,0.6C-2.1,76.3-2.2,76.1-2.3,75.9z M-2,86.2
			C-2.1,86-2.1,86-2.1,85.9C-2.1,86-2,86.1-2,86.2z M-2,86.5c-0.1-0.1-0.1-0.2-0.2-0.3C-2.1,86.3-2.1,86.4-2,86.5
			C-2,86.5-2,86.5-2,86.5z M-2,86.3C-2,86.3-2,86.3-2,86.3C-2,86.3-2,86.4-2,86.4C-2,86.3-2,86.3-2,86.3z M-0.9,52.2
			c0-0.2-0.7,0-0.5-0.4c0.1,0.1,0.5-0.1,0.4,0.2c0.3,0,0-0.2,0.2-0.4C-0.6,51.8-0.7,51.9-0.9,52.2z M-0.4,73.7
			c-0.1,0-0.2-0.4-0.2-0.5c0-0.1,0.2-0.2,0.2-0.2c0.1,0,0.2,0.3,0.2,0.3c0,0,0,0,0,0C-0.3,73.5-0.3,73.7-0.4,73.7z M-0.7,49.6
			c-0.1,0-0.1-0.1,0-0.1c0,0.1,0.1-0.4,0.5-0.2l-0.2,0.5C-0.5,49.7-0.5,49.4-0.7,49.6z M-0.6,50.1c0.1-0.2,0.2-0.2,0.3-0.4
			C0,49.8-0.3,50.2-0.6,50.1z M0.9,51c-0.3,0-0.2-0.4-0.1-0.4C1,50.6,1,50.8,0.9,51z M0.8,50.2c-0.5,0-0.6-0.6-1-0.6
			c0.2-0.9,1.5-0.2,1.9,0.1C1.4,50,1,49.8,0.8,50.2z M2.1,93C2.1,93,2.2,93,2.1,93C2.2,93,2.2,93,2.1,93C2.2,93,2.2,93.1,2.1,93
			C2.2,93,2.2,93,2.1,93z M5,44.2c0.2,0.1,0.3,0,0.4,0C5.7,44.5,4.7,44.7,5,44.2z M5,45.4c-0.1,0.2-0.2,0-0.3,0.2
			c-0.1-0.1,0-0.2-0.1-0.2C4.7,45.2,4.9,45.3,5,45.4z M3.1,94.5C3.2,94.5,3.2,94.5,3.1,94.5c0.1,0,0.2,0.1,0.3,0.2
			C3.4,94.8,3.2,94.6,3.1,94.5z M3.8,95c0,0,0,0-0.1-0.1l-0.2-0.2c0.2,0.1,0,0,0.1-0.1c-0.2-0.1-0.2-0.2-0.3-0.3
			c0,0,0.1-0.1,0.1-0.1c0.2,0.2,0.3,0.4,0.2,0.4c0.2,0.1,0.2,0.2,0.5,0.5c-0.1,0-0.1-0.1-0.3-0.2C3.7,94.9,3.8,94.9,3.8,95z
			 M3.9,94.8C4.2,95,4.1,95,4.4,95.3C4.3,95.3,3.8,94.8,3.9,94.8z M4.4,95.5C4.3,95.6,3.7,94.8,4.4,95.5L4.4,95.5z M5.4,59.3
			C5,59.8,5.2,60.6,4.8,61c-0.4,0.4-0.7,0.7-0.9,1.3c0,0.1-0.3,0-0.4,0c-0.1-0.1-0.2-0.3-0.2-0.4c0.1-0.7,0.4-1.1,0.9-1.5
			c0.2-0.1,0.3-0.3,0.3-0.5c-0.2-0.8,0.2-0.9,0.7-1.3c0.1-0.2,0.2,0,0.3,0.1c0.1,0.1,0,0.1,0.1,0.2C5.5,59,5.5,59.3,5.4,59.3z
			 M5.5,57.8c-0.1,0-0.1,0-0.1-0.2c0-0.2,0.5-0.8,0.7-0.7c0.2,0.1,0.2,0.2,0.3,0.3c0.1,0.1,0,0.1,0,0.1c0,0,0,0.1,0,0.1
			C6.2,57.9,5.8,58,5.5,57.8z M7.2,91.7C7.2,91.7,7.2,91.7,7.2,91.7C7,91.4,7,91.4,7,91.5C7,91.6,7.1,91.7,7.2,91.7
			c0,0.1-0.1,0.1-0.1,0.1c-0.1-0.1-0.1-0.1-0.2-0.2c0,0,0.1,0.1,0.2,0.2c0,0,0,0,0,0c-0.3-0.2-0.5-0.3-0.7-0.6c0,0,0,0,0.1,0
			c0.1,0,0.2-0.1,0.3-0.2C7,91.3,7.1,91.5,7.2,91.7C7.3,91.6,7.3,91.7,7.2,91.7z M7.5,39.9c0-0.1-0.1-0.2-0.2-0.3
			C7.5,39.3,7.7,39.7,7.5,39.9z M6.4,99.6c-0.2-0.2-0.4-0.3-0.5-0.5c0-0.1,0.3,0.2,0.3,0.2C6.4,99.5,6.5,99.6,6.4,99.6z M6.9,99.8
			c0.3,0.2,0.3,0.3,0.5,0.5C7.3,100.3,6.8,99.8,6.9,99.8z M7.9,102.2c0.3,0.3,0.4,0.4,0.6,0.6C8.4,102.8,7.7,102.1,7.9,102.2z
			 M10.1,101.4c-0.1-0.1-0.3-0.2-0.3-0.3C10,101.1,10.1,101.2,10.1,101.4z M9.7,100.6C9.7,100.6,9.7,100.6,9.7,100.6
			C9.6,100.5,9.7,100.6,9.7,100.6C9.8,100.6,9.7,100.6,9.7,100.6z M9.6,101.1C9.6,101.1,9.6,101,9.6,101.1
			C9.6,101,9.6,101,9.6,101.1C9.7,101.1,9.8,101.2,9.6,101.1z M10,100.5C9.9,100.5,9.9,100.5,10,100.5c-0.3-0.2-0.4-0.2-0.7-0.4
			C9.3,100,9.6,100.3,10,100.5z M9.5,100.6C9.4,100.6,9.4,100.6,9.5,100.6C9.4,100.6,9.4,100.6,9.5,100.6
			C9.4,100.6,9.4,100.6,9.5,100.6z M8.8,100.3c0.3,0.2,0.4,0.3,0.4,0.4c0,0,0,0,0,0c0,0,0,0,0,0l-0.4-0.3L8.8,100.3z M8.6,99.1
			l0,0.1C8.5,99.1,8.4,99,8.4,99C8.1,98.8,8.4,98.8,8.6,99.1z M8.3,100.3c0.1,0,0.4,0.2,0.4,0.1c0.3,0.2,0.1,0.1,0.4,0.4
			c0,0,0,0-0.1,0c0,0-0.1,0-0.1,0c0,0,0.1,0,0.1,0.1c0,0,0,0,0,0c0,0,0,0,0,0C8.8,100.6,8.6,100.5,8.3,100.3z M9.4,102.2
			C9,102,9.1,102,8.9,101.8C9,101.8,9.6,102.2,9.4,102.2z M8.8,102.6c-0.1-0.1-0.1,0-0.1,0c-0.3-0.2-0.3-0.3-0.5-0.5
			c0-0.1,1.1,0.8,0.8,0.5c0.1,0,0.4,0.3,0.4,0.4C9.2,103,8.7,102.7,8.8,102.6z M8.9,103c0-0.1,0.1,0,0.2,0.1
			c-0.1-0.1-0.2-0.2-0.3-0.3c0-0.1,0.4,0.2,0.6,0.4C9.2,103.1,9.3,103.3,8.9,103z M10,104c-0.1,0-0.8-0.5-0.7-0.5
			C9.7,103.7,9.8,103.9,10,104z M10.1,101.5c-0.3-0.2-0.6-0.3-0.8-0.4C9.5,101.2,9.8,101.4,10.1,101.5c-0.1,0.1-0.1,0.1-0.1,0.2
			c-0.4-0.2-1-0.7-1.2-0.8c-0.1-0.2,0.2,0.1,0.4,0.3c0-0.1-0.1-0.1-0.2-0.2c0,0,0,0,0,0c0.1,0,0.2,0,0.3,0.1
			C9.7,101.1,9.9,101.3,10.1,101.5C10.1,101.5,10.1,101.5,10.1,101.5z M13.1,87.7c0,0,0.1,0,0.1,0c0.1,0,0,0.2-0.1,0.2
			C13,88,13,87.9,13,87.8C13,87.8,13,87.7,13.1,87.7z M12,89.6c0.1,0.1,0,0.2,0.2,0.3c0,0.1-0.2-0.1-0.3-0.2
			C12,89.6,12,89.6,12,89.6z M11.9,89.7c0.1,0.1,0.1,0.2,0.2,0.3c0,0,0-0.1,0.1,0c0.1,0.2,0.3,0.5,0.4,0.7
			C12.1,90.2,12.2,90.1,11.9,89.7C11.9,89.8,11.9,89.7,11.9,89.7z M11.2,101.9c-0.1,0-0.1-0.1-0.1-0.2c0,0,0.1,0,0.1,0.1
			c0,0-0.1-0.1-0.1-0.1c0,0,0,0,0,0c0,0-0.1,0-0.1,0c0,0,0-0.1,0-0.1c0,0-0.1,0-0.1,0c-0.1,0-0.1-0.1-0.2-0.1c0-0.1,0-0.1,0.1-0.1
			c0,0,0.1,0.1,0.1,0.1c0,0,0,0.1,0,0.1c0,0,0,0-0.1,0c0,0,0,0,0.1,0c0,0,0,0.1,0,0.1c0,0,0.1,0,0.1,0s0,0.1,0,0.1
			c0,0,0.1,0,0.2,0.1c0,0,0.1,0.1,0.1,0.1c0,0,0,0,0,0C11.5,101.8,11.3,101.9,11.2,101.9z M12.9,92c-0.1-0.1-0.2-0.2-0.4-0.3
			c0-0.2-0.2-0.5-0.5-0.9c-0.2-0.1,0.1,0.2-0.2,0c-0.1-0.1-0.3-0.4-0.3-0.4c0.2,0.2,0.3,0.4,0.3,0.3c-0.2-0.2-0.3-0.3-0.4-0.4
			c0,0,0.1-0.1,0.1-0.1c0.2,0.2,0.5,0.4,0.6,0.6c0,0-0.2-0.2-0.2,0c0.2,0.2,0.4,0.3,0.7,0.6c0.1,0,0.1,0,0.1-0.1
			c-0.1-0.1-0.2-0.2-0.2-0.2c0-0.1,0.3,0.1,0.6,0.3C13,91.5,12.9,91.7,12.9,92z M13.2,91c0,0.1-0.1,0.2-0.1,0.2
			c-0.3-0.3-0.2-0.5,0-0.6c-0.2-0.2-0.4-0.3-0.6-0.6c0.4,0.2-0.2-0.3-0.3-0.4c0.3,0.2,0.1,0,0-0.2c0-0.1,0.3,0.2,0.4,0.2
			c-0.1-0.1-0.2-0.3-0.3-0.4c0.1-0.2,0.2-0.4,0.4-0.7c0.1-0.1,0.4-0.2,0.5-0.2c0.1,0,0.2,0.2,0.2,0.3C13.3,89.5,13.4,90.2,13.2,91z
			 M13.5,34.8C13.5,34.2,14.2,34.7,13.5,34.8L13.5,34.8z M18.2,109.7c-0.4-0.2-0.4-0.2-0.6-0.4c-0.1-0.1,0.6,0.2,0.6,0.2
			C18.4,109.6,18,109.5,18.2,109.7z M20.1,111.8c-0.6-0.2,0.3,0.4-0.7,0C19.5,111.6,19.5,111.5,20.1,111.8z M19.1,110.9
			c0.4,0.1,0.1,0.1,0.5,0.3c-0.1,0-0.3-0.1-0.5-0.2L19.1,110.9z M18,110.5c0.5,0.3,0.7,0.5,1.1,0.8c-0.5-0.2-0.7-0.2-1.2-0.5
			c-0.1-0.1-0.3-0.1-0.1,0c0.3,0.2-0.4-0.2-0.5-0.3C17.6,110.6,17.5,110.5,18,110.5z M17.2,111.1l-0.4-0.2c-0.1-0.1,0.4,0.1-0.1-0.2
			c0,0,0.3,0.1,0.5,0.2C17,110.9,17.2,111.1,17.2,111.1z M17.3,110.9c0.3,0,0.8,0.3,0.9,0.2c0.3,0.1-0.1,0.1-0.1,0.1
			C17.6,111.2,17.6,111.1,17.3,110.9z M18.4,111.8c-0.3-0.1-0.2-0.2-0.5-0.3c0.2,0.1,0.5,0.1,0.8,0.3
			C18.8,111.9,18.2,111.6,18.4,111.8z M20,112.5c-0.2-0.1-1-0.4-1.2-0.4c0-0.1,1.1,0.2,1.5,0.4C20.2,112.6,19.6,112.3,20,112.5z
			 M25.1,28.2c0-0.1-0.5,0.4-0.7,0.3C24.4,28.3,24.8,28,25.1,28.2z M22.7,29.2c0.1,0.1,0,0.2,0,0.3c-0.2,0.1-0.3,0.2-0.5,0.1
			C22.3,29.4,22.6,29.2,22.7,29.2z M22.4,30L22,30.2C21.9,30,22.3,29.7,22.4,30z M21.7,30.2c0,0.1,0,0.1,0,0.2
			c-0.2-0.1-0.1,0.1-0.4,0.1C21.3,30.3,21.5,30.3,21.7,30.2z M21.1,30.3c-0.2,0-0.2,0-0.4,0.1C20.7,30.2,20.9,29.9,21.1,30.3z
			 M17.1,32.3c0.1,0,0.2,0,0.2,0.1L17,32.6C16.9,32.4,17.2,31.9,17.1,32.3z M16.5,33.8C16.5,33.8,16.6,33.8,16.5,33.8
			c0.1,0.1,0.3,0.1,0.3,0.1c0,0.1,0,0.5-0.1,0.5c-0.1,0-0.2-0.3-0.3-0.3c0,0,0,0,0,0c0,0,0,0,0,0C16.4,34.1,16.5,33.8,16.5,33.8z
			 M15.4,48.7c-0.1-0.1-0.1-0.1-0.1-0.2c0,0,0.2-0.2,0.2-0.2c0,0,0-0.1,0-0.1c0,0,0,0,0,0c0,0,0,0.1,0,0c0,0-0.1,0,0,0
			C15.6,48.4,15.6,48.7,15.4,48.7z M15.7,87.7c-0.1,0-0.1-0.2,0-0.2c0.1,0,0.2,0.1,0.2,0.1C15.8,87.6,15.8,87.7,15.7,87.7z M17,85.2
			c0,0-0.2-0.1-0.2-0.1c0,0,0.1-0.1,0.1-0.1c0,0,0.1,0.1,0.1,0.1C17,85.1,17,85.2,17,85.2z M18.1,83.2c0,0-0.2-0.1-0.2-0.1
			c0,0,0.1-0.1,0.1-0.1c0,0,0.1,0.1,0.1,0.1C18.2,83.1,18.1,83.2,18.1,83.2z M20.8,42.1c-0.1,0.1-0.6,0-0.6,0c0,0-0.1,0.1,0,0
			c0,0-0.1,0-0.1,0c0.3,0.3-0.8,1.8-1.3,1.4c0,0,0,0.1,0,0.1c0,0,0,0,0,0s0.1,0.7-0.3,0.4c0,0,0,0.1,0,0c0,0-0.1,0,0,0
			c0.3,0.4-0.5,0.7-0.7,0.5c0,0,0,0.1,0,0.1c0,0-0.1,0.1-0.1,0.1c0.2,0.1,0.1,0.9,0,1c-0.1,0.2-0.4,1-0.7,0.9c0,0,0,0.1,0,0.1
			c0,0-0.1,0-0.1,0c0.3,0.2-0.5,1.3-0.9,0.9c0,0,0,0.1,0,0.1c0,0,0,0,0,0s-0.1,0.5-0.2,0.4c-0.1-0.1,0-0.1,0-0.2
			c-0.1-0.1,0.3-0.3,0.3-0.3s0-0.1,0-0.1c0,0,0.1,0,0.1,0c-0.3-0.3,0.6-1.2,0.9-0.9c0,0,0.1-0.1,0-0.1c0,0,0.1,0,0.1-0.1
			c-0.2-0.1-0.1-0.9,0-1c0.1-0.2,0.5-1,0.7-0.9c0,0,0-0.1,0-0.1c0,0,0.1,0,0.1,0c-0.2-0.3,0.5-0.7,0.7-0.5c0,0,0,0,0,0c0,0,0,0,0,0
			c-0.3-0.2,0.3-0.4,0.3-0.4s0,0,0,0c0,0,0.1-0.1,0.1-0.1c-0.3-0.3,0.8-1.8,1.3-1.4c0,0,0.1-0.1,0.1-0.1c0,0,0.1,0,0.1,0
			c0.3-1.2,1.1-1.7,2.3-1.8c0,0,0,0,0,0c0,0,0.1,0,0,0c0,0,0-0.3,0.1-0.3c0.1,0,0.2,0.1,0.2,0.2c0,0.1-0.3,0.1-0.3,0.1
			c0,0,0,0.1,0,0s0,0,0,0c0,0,0,0.2,0,0.3c0,0.1,0,0.2-0.1,0.3C21.8,41.3,21.3,41.7,20.8,42.1z M22,109.8c-1.1-0.2-0.8-0.5-0.9-0.5
			c0,0,0,0,0.1,0l0-0.1C21.6,109.5,21.7,109.6,22,109.8C22,109.8,21.5,109.6,22,109.8z M22.1,110.1c0.4,0.1,0.5,0.3,0.6,0.3
			c0.4,0.2-0.3-0.1-0.1,0.1C22.4,110.3,22.1,110.2,22.1,110.1z M20.7,110.1c0.5,0.2,0.5,0.1,0.8,0.3
			C21.5,110.5,20.6,110.1,20.7,110.1z M20.8,112.5c-0.4-0.2,0.4,0,0.9,0.2C21.7,112.9,20.9,112.5,20.8,112.5z M23.5,113.8
			c0-0.1-0.2-0.1,0-0.1l-0.3-0.1C23,113.4,24.5,114.1,23.5,113.8z M22.5,113.2c0-0.1,0.5,0.1,0.8,0.2
			C23.1,113.4,22.9,113.3,22.5,113.2z M22.7,112.8c-0.7-0.2-1.2-0.4-1.6-0.5c-0.4-0.1-0.1-0.1-0.5-0.3c0.2-0.1,0.4-0.1,0.7-0.1
			c0.7,0.4,1.3,0.4,1.8,0.6c0.4,0.1,0.5,0.2,1.1,0.4c0,0.1-0.4-0.1-0.8-0.2c0.2,0.2,0.9,0.3,1.3,0.5
			C24.1,113.3,23.3,113.1,22.7,112.8z M24.4,28.8c0.1-0.1,0.1-0.3,0.3-0.3C24.8,28.8,24.5,28.9,24.4,28.8z M24.9,114.2
			c0.3,0,0.3,0.1,0.7,0.2C25.6,114.5,24.8,114.2,24.9,114.2z M26.9,26.5c0.1,0.2-0.2,0.2-0.4,0.3C26.4,26.6,26.7,26.4,26.9,26.5z
			 M26.5,27.4c-0.3-0.1,0.4-0.3,0.5-0.4c0-0.1-0.2,0-0.2,0c0-0.3,0.2,0,0.4,0C27.2,27.3,26.5,27.2,26.5,27.4z M50.2,116.3
			c1,0-0.6,0.3-1,0.3c0.2,0,0.1-0.1-0.2,0c-0.2,0,0,0-0.2-0.1C49.5,116.5,50,116.5,50.2,116.3z M47.3,116.7
			c-0.9,0.1-1.9,0.2-2.7,0.2C45.1,116.8,46.7,116.7,47.3,116.7z M43.4,117c0,0.1-0.5,0.1-0.7,0C42.8,117,43.2,117,43.4,117z
			 M30,115.4c-0.1-0.1,0.6,0,0.6,0.1L30,115.4z M31.8,115.7c0.1,0.1-0.6-0.1-1-0.1C30.9,115.5,31.5,115.6,31.8,115.7z M31.8,26
			c-0.2,0.1-0.4-0.2-0.4,0c-0.2,0,0.1-0.2,0.3-0.2c0-0.2-0.1-0.1-0.3-0.1c0.3-0.1,0.7-0.1,0.9,0C32.1,25.8,31.8,25.7,31.8,26z
			 M35.4,115.9c-0.4,0.1-1.7-0.2-2.6-0.3c0.1-0.1,0.6,0,1.2,0.1C34.5,115.8,35,115.8,35.4,115.9z M37.8,28.5
			C37.8,28.5,37.8,28.5,37.8,28.5c0,0.1-0.2,0.1-0.3,0.2c-0.1,0-0.5-0.1-0.4-0.3c0.1-0.1,0.2-0.1,0.4-0.1
			C37.5,28.3,37.8,28.4,37.8,28.5C37.8,28.5,37.8,28.5,37.8,28.5C37.8,28.5,37.8,28.5,37.8,28.5L37.8,28.5z M39.2,29.2
			c0,0-0.1,0.1-0.2-0.1c-0.1-0.1,0.2-0.2,0.3-0.2C39.3,28.9,39.2,29.2,39.2,29.2z M39.8,28.9c-0.1,0-0.5-0.1-0.5-0.1s0,0.1,0,0.1
			c0,0,0,0-0.1,0c0,0,0-0.1,0,0c0,0,0,0,0,0s-0.5-0.6-0.7-0.5c-0.1,0.1-0.1-0.1-0.1,0c0,0-0.1-0.1-0.1-0.1s0,0,0-0.1
			c0,0,0.1-0.1,0.1-0.1c0.4,0,0.9,0,1.2,0.1c0.3,0.1,0.4,0.2,0.4,0.5C40.3,28.9,40,28.9,39.8,28.9z M54,25.6c-0.1-0.4,0.4,0,0.6,0
			C54.6,26,54.3,25.4,54,25.6z M55.9,26.2c-0.1-0.3,0.5,0,0.7,0.1C56.5,26.6,56,26.2,55.9,26.2z M56.8,27.9c0.2-0.2,0.5,0,0.8,0.2
			C57.4,28.2,57,28.1,56.8,27.9z M57.7,28.3c0.2-0.3,0.6,0.1,0.9,0.2C58.4,28.7,58.1,28.5,57.7,28.3z M59.1,27.8
			c-0.8-0.4-1.7-0.7-2.2-1.2c0.1-0.1,0.2,0,0.4,0c-0.1-0.2-0.3-0.1-0.3-0.3c0.6,0.1,0.9,0.5,1.6,0.6c0.1,0.2-0.1,0.1-0.1,0.3
			C58.6,27.2,59.2,27.5,59.1,27.8z M59.5,27.7c0.1,0,0.1,0.1,0,0.1c0.1-0.1,0.2,0,0.4-0.1c0.2,0.1,0.2,0.4-0.1,0.5
			C59.9,28,59.3,28,59.5,27.7z M60,28.8l-0.2-0.1c0.1-0.1,0.1-0.1,0-0.2c0.1-0.1,0.1,0,0.1,0c0.1,0,0.2-0.1,0.3,0
			C60.2,28.7,60.1,28.6,60,28.8z M60.6,29.2l0.1-0.2c0.5,0.3,1.1,0.4,1.4,0.9C61.6,30,61.1,29.4,60.6,29.2z M67.3,28.3
			c-0.5-0.2-0.4-0.5-0.9-0.7C66.7,27.7,67.5,27.9,67.3,28.3z M67.4,30.2c-0.2,0.2-0.3-0.1-0.5-0.2C67,30,67.2,30.1,67.4,30.2z
			 M67.1,28.3L67,28.4c-0.2-0.2-0.2,0-0.3-0.2l0.1-0.1C67,28,66.9,28.1,67.1,28.3z M66.4,28.9c0,0.2,0.4,0.4,0.1,0.3
			c0.3,0.2,0.6,0.2,0.8,0.4c-0.1,0.2-1.3-0.3-1.2-0.9C66.4,28.7,66.2,29.2,66.4,28.9z M66.4,30.5c0-0.1,0-0.1-0.1-0.2
			c0.2-0.2,0.2,0.2,0.4,0.1c0.1,0.2-0.2,0.1-0.2,0.3l0.1,0.1c0.1,0.1,0.1-0.1,0.2-0.1c0.4,0.3-0.2,0.2-0.3,0.4
			c0-0.3-0.5-0.3-0.7-0.5c-0.1-0.2,0.1-0.3,0.1-0.6C66,30.4,66,30.2,66.4,30.5z M65.4,29c0.1,0.1,0,0.1,0,0.2
			c0.1,0.1,0.2-0.1,0.4,0.1l-0.1,0.2c-0.2-0.2-0.1-0.3-0.3-0.2c0-0.1,0-0.1-0.1-0.2C65.3,29,65.4,29.1,65.4,29z M65.3,29.5
			c0.1,0.2,0.2,0.3,0.4,0.5c-0.2,0.3-0.6-0.1-0.9-0.3C65,29.7,65.1,29.6,65.3,29.5z M65.1,30.7c-0.1,0.1-0.3-0.2-0.5-0.3l0.1-0.1
			c0,0.1,0.1,0,0.1,0c0.1,0.1,0,0.1,0,0.2C65,30.7,65,30.5,65.1,30.7z M65,29.4c-0.1,0.1-0.2,0.1-0.3,0c-0.1,0,0,0.1,0,0.1
			c-0.1-0.2-0.6-0.4-0.8-0.5c0.1-0.1,0.3-0.2,0.4-0.2C64.5,29.1,64.6,29,65,29.4z M64.4,27.2l0.2-0.2c0.2,0.2,0.2,0,0.4,0.2
			c0,0.3-0.2,0.5-0.1,0.8c-0.1,0-0.4-0.4-0.4-0.5c0.1-0.2,0.3,0.1,0.4-0.2C64.6,26.9,64.6,27.5,64.4,27.2c-0.1,0.2,0,0.5-0.3,0.6
			c-0.2-0.3,0.2-0.6,0-0.7C63.9,26.9,64.3,27,64.4,27.2z M63.5,27.5c-0.2-0.1,0.1-0.3-0.2-0.4c0-0.1,0.1-0.1,0.2-0.1
			c0.2,0.1,0.2,0.3,0.4,0.4C63.4,27.2,64,27.6,63.5,27.5z M62.8,30.5l0.2-0.2l0.3,0.2C63.1,30.5,63,30.6,62.8,30.5z M63.1,28.6
			c0.1-0.1,0.3,0.1,0.5,0c0-0.1,0-0.1-0.1-0.2c-0.1,0-0.1,0-0.2,0.1c-0.3-0.3,0.6,0,0.5-0.5c0,0.3,0.1,0.7-0.1,1
			C63.5,28.8,63.4,28.9,63.1,28.6z M63.5,30.8c0.7,0.2,1.2,0.5,1.7,1.2C64.7,31.8,63.9,31.4,63.5,30.8z M65.2,33.6
			c0.2-0.2,0.4-0.1,0.6,0.1C65.6,33.7,65.3,33.8,65.2,33.6z M65.8,111.7C65.8,111.7,65.8,111.7,65.8,111.7
			C65.8,111.6,65.8,111.6,65.8,111.7C65.8,111.6,65.8,111.6,65.8,111.7C65.8,111.6,65.8,111.7,65.8,111.7
			C65.9,111.7,65.9,111.7,65.8,111.7z M65.9,111.7C65.9,111.7,65.9,111.6,65.9,111.7c0.1-0.1,0.1-0.1,0.2-0.2c0,0,0.1,0,0.1,0
			c0,0,0,0,0,0C66.3,111.6,65.9,111.7,65.9,111.7z M65.4,32.1c0.1-0.1,0.1,0,0.2-0.1c0.3,0.6,1.3,0.6,1.2,1.2
			C66.4,32.9,65.5,32.7,65.4,32.1z M67.1,33.6c-0.1-0.1,0.1-0.2-0.1-0.4c0.1-0.1,0.2-0.1,0.1,0c0.1,0.1,0.1,0,0.2,0
			C67.5,33.4,67.3,33.6,67.1,33.6z M68.1,31.9c-0.1,0-0.2,0-0.3,0.1c0-0.4-0.7-0.1-0.9-0.7c0.1,0,0.2-0.1,0.3-0.2
			c0.7,0.3,0.9,0.6,1.5,1.2C68.5,32.3,68,32,68.1,31.9z M68.6,28.3c-0.4-0.3,0.2-0.4,0.1-0.5c0-0.1,0.1,0,0.1,0
			c0.1,0.1,0.1,0.2,0.2,0.2C68.8,28.1,68.7,28.1,68.6,28.3z M97.8,42.1C97.8,42.1,97.8,42.2,97.8,42.1c0.1,0.7,0.2,1.3,0.1,1.6
			c-0.1-0.5-0.3-1-0.3-1.6c0,0,0,0,0.1,0C97.7,42.1,97.8,42.2,97.8,42.1z M97.7,40.2L97.7,40.2c-0.1-0.2-0.2-0.3-0.2-0.3
			c-0.1-0.3-0.1-0.3-0.1-0.5c0,0,0.1,0.2,0.1,0.4C97.5,40,97.6,39.7,97.7,40.2z M96.7,37c0-0.1,0.2,0.7,0.3,0.6
			c0.1,0.3,0,0.3,0.1,0.5c0.1,0.3,0-0.2,0.1,0.1c0,0.1,0,0.2,0.1,0.4c-0.1-0.1-0.1-0.1-0.1-0.1c0.2,0.5,0.2,0.1,0.3,0.9
			c-0.1,0-0.2-0.4-0.3-0.7c0,0.1,0,0.3,0.1,0.4c-0.2-0.2-0.1-0.5-0.3-1c0,0,0,0,0,0c0,0,0-0.1,0-0.1c0,0,0,0,0-0.1c0,0,0-0.1,0-0.1
			C96.9,37.6,96.8,37.4,96.7,37C96.6,37,96.7,37.3,96.7,37z M97,41.9c0-0.1-0.1-0.2-0.1-0.3c0,0,0,0,0,0C97,41.8,97,41.9,97,41.9z
			 M96.1,35.9c0.1,0.1,0.3,0.3,0.4,0.6c0.1,0.4-0.1,0.1-0.1,0.1L96.1,35.9z M95.2,40c0,0.1,0,0.1,0,0.2c-0.1,0-0.1,0-0.1-0.1
			C95,40.1,95.1,40,95.2,40z M94.4,57.5c-0.1,0.2-0.3,0-0.4-0.3C94.2,57.1,94.4,57.1,94.4,57.5z M94.3,55.8c0.2,0,0.3,0.4,0.2,0.5
			C94.3,56.3,94.2,55.9,94.3,55.8z M93.2,51.4c0.1-0.2,0-0.6-0.2-1C93.3,50.4,93.7,51.6,93.2,51.4z M93,40.8c-0.1,0.1-0.2,0.1-0.3,0
			c0-0.1-0.1-0.2-0.1-0.2c0-0.1,0.1-0.1-0.1-0.4c0,0.1-0.1-0.1-0.2-0.3c0-0.1,0-0.2,0-0.2c0,0,0-0.2,0-0.4c0-0.2,0.3-0.3,0.5-0.2
			c0.2,0,0.3,0.1,0.1,0.3c-0.2,0.2-0.2,0.7,0.1,0.9C93.2,40.5,93.2,40.6,93,40.8z M93.1,35.9C93.1,35.9,93.1,35.9,93.1,35.9
			c-0.1-0.1-0.1-0.2-0.1-0.3C93.1,35.6,93.1,35.7,93.1,35.9z M93,37.9c0,0.1,0,0.3,0,0.4c-0.1,0.1-0.1,0.2-0.3,0.3
			c-0.1,0-0.2,0.1-0.4-0.1c-0.2-0.1-0.2-0.6-0.1-0.8c0,0.1,0.1,0.2,0.1,0.3c0-0.1,0-0.2-0.1-0.3c0.1-0.1,0.2-0.1,0.3-0.2
			c0.1,0,0.2,0,0.3,0.1C92.9,37.6,92.9,37.8,93,37.9z M92.6,36.3C92.6,36.3,92.6,36.4,92.6,36.3C92.6,36.4,92.6,36.4,92.6,36.3
			C92.6,36.4,92.6,36.4,92.6,36.3z M92.4,35.3c0.1,0.2,0.2,0.4,0.3,0.7c0,0.1,0,0.2,0,0.4c0,0,0,0,0,0c0,0,0,0,0-0.1
			c-0.1-0.3-0.1-0.4-0.3-0.7l0.1-0.1C92.3,35.4,92.3,35.3,92.4,35.3C92.3,35.3,92.3,35.3,92.4,35.3z M92.1,35.4
			C92.1,35.4,92.2,35.4,92.1,35.4c0.1,0.1,0.2,0.3,0.3,0.4c0,0.1,0,0.2-0.1,0.2c0.1,0.1,0.1,0.2,0.1,0.3c-0.1,0-0.2-0.1-0.2-0.2
			c-0.1-0.1-0.2-0.1-0.3-0.3C92,35.8,92,35.5,92.1,35.4z M91.6,58.3c0.1,0.6,0.1,1.2,0.2,1.8c-0.5,0.1,0-1-0.4-1.1
			c0.1,0,0.2-0.5-0.1-0.6c0.1,0,0.2-0.2,0-0.3c0.2-0.4-0.1-0.9-0.1-1.4c0.1,0.3,0.2,0.5,0.3,0.8C91.5,57.8,91.5,58.1,91.6,58.3z
			 M91.9,58.3c-0.3,0-0.2-0.6-0.2-0.9C92,57.5,91.8,57.9,91.9,58.3z M91.8,64.4c0.2-0.1,0.2-0.3,0.4-0.4c0.1,0.2-0.1,0.6-0.1,1.2
			C91.7,65.2,92,64.7,91.8,64.4z M91.6,60.3c0.4,0.4,0.3,1.8,0.4,2.6C91.4,62.1,92,61.6,91.6,60.3z M91,55.6c-0.3-0.8-0.6-2-0.7-2.8
			c0,0,0,0,0,0c0,0,0,0,0,0c0-0.1,0-0.1,0-0.2c-0.1-0.1-0.2-0.3-0.4-0.2c0.2-0.1,0.1-0.4,0.3-0.5c0.1,0.1,0.2,0.7,0.1,0.9
			c0,0,0,0,0,0.1c0.1,0.1,0.2,0.2,0.4,0.2c0.1,0.8,0.2,2.4,0.5,2.9c-0.1,0.3,0,0.5-0.2,0.6C91.1,56.2,90.7,55.7,91,55.6z M90.7,70.7
			c0,0.5-0.6,0.2-0.6-0.1L90.7,70.7z M90.4,66.8c0.3-0.1,0.3,0.5,0,0.4L90.4,66.8z M90.2,73c0-0.4,0.4-0.3,0.5-0.1
			C90.6,73,90.3,72.9,90.2,73z M90.2,77c0-0.2,0.2-0.3,0.2-0.6C90.5,76.8,90.6,76.8,90.2,77z M89.8,57.4c-0.1-0.2,0.2-0.4,0.1-0.4
			c0-0.3,0.2,0.1,0.3,0l0-0.2c-0.1-0.1-0.1,0.1-0.3-0.2c0.2-0.4,0.6,0.2,0.6,1c-0.1,0-0.1-0.1-0.2-0.1c-0.1,0.1,0,0.6,0,0.8
			c0.1,0.3,0.2,0.3,0.4,0.2c0.1,0.4-0.1,0.5-0.1,0.7c0,0.4,0.2-0.3,0.2,0.1c0.1,0.3-0.2,0.2-0.3,0.4c-0.1-0.7-0.5-1.3-0.3-2.1
			C90,57.2,89.9,57.4,89.8,57.4z M89.4,58.8c0,0.1,0.1,0.1,0.2,0.1c-0.4,0.3-0.1,1.1-0.2,1.5c-0.1-0.4-0.2-0.9-0.3-1.4
			c-0.1-0.5-0.1-1.1-0.3-1.7c-0.2-1.1-0.5-2.4-0.6-3.6c0.2,0.1,0.3,1.2,0.5,1.9c0.2,0.5,0.2,0.4,0.3,0.9c0,0.1,0.3,0.7,0.2,0.1
			c0.3,0.6,0.1,1.5,0.4,1.9c-0.2-0.1-0.2,0.1-0.4-0.1L89.4,58.8z M88,49.6c-0.2-0.4,0.2-0.4,0.4-0.6C88.4,49.4,88.2,49.5,88,49.6z
			 M89.5,53.2c0.2-0.4,0.2,0.6,0.2,0.7C89.2,53.8,89.6,53.3,89.5,53.2z M89.7,51.1c0.3,0,0.2,0.3,0.4,0.6
			C89.9,51.8,89.8,51.4,89.7,51.1z M89.8,52.5c0.3,0,0.3,0.6,0.3,0.8c-0.1,0-0.1-0.2-0.3-0.2C89.8,52.9,90,52.8,89.8,52.5z
			 M90.2,59.7c0.2-0.1,0.1,0.4,0.3,0.6c0.1-0.2,0-0.6,0.1-0.8c0.3,0.3,0,1,0.2,1.3c-0.3-0.2-0.4,0-0.7-0.4
			C90.2,60.2,90.3,60,90.2,59.7z M91.1,52.3c-0.2-0.2-0.3-0.6-0.4-1c0.2,0.1,0.3,0.4,0.5,0.4C91.2,52,91,52,91.1,52.3z M90.6,31.2
			c0.2,0.1,0.5,0.8,0.7,1.2c0,0-0.1,0-0.1,0c0,0,0,0,0,0C91,31.9,90.7,31.3,90.6,31.2z M91.3,46.9c-0.3-0.1-0.7-1.5-0.8-1.9
			C90.8,45.5,91.2,46.7,91.3,46.9z M90.3,49.3c0.1,0.6,0.1,0.9,0.3,1.5c-0.4-0.2-0.4-1.1-0.6-1.5C90.1,49.2,90.2,49.3,90.3,49.3z
			 M90,42c-0.2-0.3,0.1-0.3-0.1-0.6C90,41.4,90.3,42.1,90,42z M90.2,44.2c-0.4-0.3-0.5-0.9-0.8-1.5C89.8,43.1,89.8,43.7,90.2,44.2z
			 M89.4,46c-0.2,0-0.5,0.2-0.6-0.1C89,45.8,89.2,45.6,89.4,46z M88.8,31.7c0.1,0.1,0.2,0.3,0.4,0.6c0,0-0.1,0-0.1,0
			C89,32.1,88.9,31.9,88.8,31.7z M88.7,40.8c0,0.1,0,0.2,0,0.4c-0.1,0-0.2-0.1-0.3-0.2c-0.1,0.2,0.2,0.2,0.2,0.5
			c0.1,0.1,0.2,0,0.3,0c0.1,0.4,0.1,0.8,0.4,1.2c-0.1,0-0.1-0.1-0.2-0.2c-0.3,0,0.1,0.4-0.2,0.3c-0.2-0.4-0.3-1-0.6-1.4
			c-0.2-0.4-0.5-0.8-0.8-0.8c-0.1-0.2-0.3-0.5-0.2-0.6c0.3,0,0.2-0.1,0.4-0.2c-0.1-0.3-0.2-0.3-0.4-0.2c-0.1-0.1,0-0.1,0-0.1
			l-0.1-0.2C88,39.2,88.3,40.5,88.7,40.8z M87.8,43.6c0-0.4,0.2,0.2,0.3,0.1c0.1-0.3-0.4-0.6-0.4-0.3c-0.1-0.3-0.4-0.8-0.6-1.2
			c-0.2-0.4-0.4-0.8-0.4-1.1c0,0.2,0.3,0.8,0.5,0.6c0,0.4,0.4,0.5,0.2,0.7c0.2,0.4,0.4,0.5,0.7,0.4c0,0.4,0.2,0.4,0.3,0.8
			c-0.6,0,0.4,1,0.2,1.5c-0.1,0-0.2-0.1-0.2,0c-0.4-0.6-0.3-0.9-0.6-1.3C87.6,43.7,88.1,43.6,87.8,43.6z M86.4,42
			c-0.3,0,0-0.3-0.2-0.5l0.1-0.1c0.1,0.1,0.1,0.1,0.2,0.3l-0.3,0.1L86.4,42z M85.7,39.5c0.4,0.2,0.6,0.9,0.8,1.4
			C86.3,40.8,86,39.9,85.7,39.5z M85.5,41.8c-0.1-0.3,0.4,0.1,0-0.4c0.1-0.1,0.2,0.2,0.4,0.1c0.2,0.2-0.1,0.4,0.1,0.4
			c0.1,0.3-0.2,0-0.3,0.2c-0.1-0.1,0-0.1,0-0.1C85.6,41.9,85.6,41.8,85.5,41.8z M85.5,41L85.3,41c-0.1-0.3-0.3-0.2-0.3-0.5
			c0.1,0,0.2,0,0.2,0c0,0.1,0,0.3,0.2,0.3C85.5,40.9,85.5,41,85.5,41z M85.9,37.3c0.5,0.2,0.8,1.1,1,1.6
			C86.5,38.6,86.2,38,85.9,37.3z M86.9,36.4c0.3,0,0.9,1.5,1.1,1.9c-0.5-0.4-0.6-1.2-1.2-1.6C87,36.8,87.2,36.7,86.9,36.4z
			 M88.1,32.9c0-0.1-0.1-0.2-0.1-0.3C88,32.7,88.1,32.7,88.1,32.9C88.1,32.8,88.1,32.9,88.1,32.9z M87.8,31.6
			c0.1,0.2,0.1,0.3,0.2,0.7c0,0-0.2-0.3-0.2-0.3C87.7,31.8,87.7,31.7,87.8,31.6C87.7,31.6,87.8,31.6,87.8,31.6z M87.5,31.6
			c0.2,0.3,0.4,0.8,0.2,0.6c-0.1-0.2-0.1-0.3-0.1-0.4C87.6,31.8,87.5,31.7,87.5,31.6C87.5,31.6,87.5,31.6,87.5,31.6z M87.2,30.7
			c0.1,0.1,0.1,0.2,0.2,0.3c0,0-0.1,0-0.1,0C87.2,30.9,87.1,30.7,87.2,30.7z M86.8,30.1c0.2,0.3,0.3,0.6,0.2,0.6
			c0-0.1-0.2-0.4-0.3-0.6C86.7,30.1,86.8,30.1,86.8,30.1z M86.7,30.6c0-0.2,0-0.2-0.3-0.7c0-0.1,0.1,0,0.1,0c0.2,0.4,0.2,0.5,0.6,1
			c-0.2-0.2-0.2-0.3-0.1,0.1C86.9,31,86.9,30.8,86.7,30.6z M87,31.7c0.2,0.3-0.1,0.1,0.2,0.4c0.1,0,0-0.2,0.1-0.2
			c0.1,0.2,0.3,0.6,0.4,0.6c0-0.2-0.3-0.5-0.3-0.7C87.2,32,87.1,31.8,87,31.7c0.1,0,0.1,0,0.2,0c0,0,0,0.1,0.1,0.1c0,0,0-0.1,0-0.1
			c0,0,0.1,0,0.1,0c0,0,0.1,0.1,0.1,0.1c0.2,0.5,0.5,1,0.7,1.5c0,0.1-0.1,0.1-0.2,0.2c-0.2-0.2-0.2-0.1-0.2,0.1c-0.1,0-0.2,0-0.3,0
			c0,0,0,0,0.1,0c-0.1-0.3-0.3-0.5-0.2-0.6l0.2,0.4c0.1-0.1-0.3-0.9-0.4-1.1c0.1,0.2,0.1,0.3,0.1,0.4c-0.1-0.1-0.1-0.1-0.2-0.3
			c-0.2-0.4,0-0.2-0.1-0.4c0,0-0.1-0.1-0.1-0.1C86.9,31.7,86.9,31.7,87,31.7z M86.5,32.2c0-0.1,0.1-0.1,0.1-0.2
			c0.2,0.2,0.4,0.6,0.6,0.9c-0.1-0.1-0.1-0.1-0.2-0.1c-0.1-0.2-0.2-0.4-0.3-0.5c0,0.1,0.1,0.3,0.2,0.5c0,0-0.1,0-0.1,0
			C86.6,32.6,86.5,32.4,86.5,32.2C86.5,32.2,86.5,32.2,86.5,32.2z M86,35.7c0,0.3,0.2,0.4,0.4,0.6c-0.3,0.2-0.8-0.7-0.9-1
			C85.8,35.3,85.8,36.1,86,35.7z M85.4,36.1c0.2,0.3,0.1,0.4,0,0.5c-0.3,0,0-0.4-0.2-0.4C85,36,85.4,36.3,85.4,36.1z M85.5,38.3
			c-0.3-0.1-0.3-0.4-0.5-0.8C85.2,37.6,85.4,38,85.5,38.3z M85,41.6c-0.2,0.2-0.3-0.4-0.5-0.2c-0.2-0.2,0.4-0.1,0.2-0.4
			c0.1,0,0.2,0.1,0.3,0.3c0,0-0.1,0-0.1-0.1C84.9,41.3,85.1,41.5,85,41.6z M82.7,40.7c0.3,0,0.2,0.4,0.3,0.6
			C82.8,41.3,82.8,40.9,82.7,40.7z M83.2,60.2C82.9,60,83,59.6,83,59.3C83.3,59.5,83.1,59.8,83.2,60.2z M82.9,68.1
			c0.2,0,0,0.4,0,0.5C82.8,68.7,82.8,68.3,82.9,68.1z M83,103.5C83,103.5,83.1,103.4,83,103.5C83,103.5,83.1,103.4,83,103.5
			C83.1,103.4,83.1,103.5,83,103.5C83.1,103.5,83,103.5,83,103.5s0,0.1-0.1,0.1L83,103.5z M83,60.4l0.2,0c0.2,0.5,0.2,0.6,0.2,1.1
			C83,61.3,82.9,60.9,83,60.4z M83.4,61.5c0,0.2,0,0.4,0,0.5c-0.1,0-0.1-0.3-0.2-0.3C83.2,61.6,83.3,61.5,83.4,61.5z M83.2,43.2
			l0.2-0.1c0.1,0.2,0.3,0.6,0.1,0.7C83.6,43.6,83.3,43.4,83.2,43.2z M83.2,35c0.1,0,0.3,0.1,0.4,0.4C83.5,35.6,83.2,35.2,83.2,35z
			 M83.9,33.5c0.1,0.1,0.2,0.3,0.2,0.2c0.1,0.1-0.1,0.1,0,0.3c0.1,0.1,0.2,0,0.2,0.1c-0.1-0.4,0.3-0.2,0-0.7c0.1,0,0.2-0.1,0.1-0.2
			c0.3-0.1,0.2,0.4,0.4,0.4c-0.2,0.1-0.6,0.6,0,1.5c-0.4,0.1-0.7-0.6-1.2-0.9C83.5,33.6,83.7,34.1,83.9,33.5z M85,33.4
			c-0.2,0-0.6-0.7-0.8-1C84.6,32.4,85,33.3,85,33.4z M84.2,33.3c-0.2-0.2-0.1-0.5-0.3-0.4C83.9,32.5,84.6,33.2,84.2,33.3z
			 M84.2,32.1c-0.3-0.1-0.4-0.2-0.6-0.6C83.8,31.3,84,31.9,84.2,32.1z M83.8,30.6c0,0.1,0.1,0.2,0.1,0.2c0,0-0.1,0-0.1,0
			C83.7,30.7,83.7,30.6,83.8,30.6z M82.8,27.8c-0.1,0-0.3-0.4-0.6-0.7C82.2,27,82.7,27.7,82.8,27.8z M82.5,27.6
			c0.3,0.4,0.3,0.5,0.5,0.8c-0.1,0-0.3-0.4-0.3-0.5c-0.4-0.3-0.8-1-1.2-1.5c0-0.2-0.2-0.3-0.4-0.6C81.4,26.2,82.1,27.3,82.5,27.6z
			 M80.2,22.7c0.4,0.5,0.4,0.6,0.7,0.8c0.3,0.4,0.5,1-0.1,0.4c0.2,0-0.6-0.8-0.8-1C80.3,23,80.2,22.9,80.2,22.7z M80.3,23.5
			c0-0.1,0.3,0.4,0.3,0.2c0.1,0.1,0.2,0.3,0.4,0.5C80.9,24.4,80.4,23.7,80.3,23.5z M80.9,25.6c0,0-0.2,0-0.3-0.3
			c0-0.1-0.1-0.2,0-0.2C80.7,25.4,80.8,25.5,80.9,25.6z M80.3,24.9c-0.1,0.1-0.5-0.4-0.5-0.6C79.8,24.3,80.1,24.8,80.3,24.9z
			 M81.3,27.3l-1-1.2c0.1-0.1-0.1-0.3-0.4-0.6c-0.1-0.2,0.4,0.5,0.2,0.1c0.2,0.3,0.3,0.5,0.5,0.7l0,0.1c0.2,0.3,0.4,0.4,0.6,0.8
			C81.3,27.3,81.3,27.2,81.3,27.3C81.5,27.5,81.2,27.2,81.3,27.3z M81.4,28.8c0.2-0.1,0.5,0.3,0.5,0.5C81.7,29.2,81.6,29,81.4,28.8z
			 M81.7,27.8c-0.2-0.1-0.1-0.2-0.2-0.3c0.1,0,0.4,0.4,0.6,0.7C82.1,28.4,81.5,27.4,81.7,27.8z M82.8,29.5c0-0.2-0.5-0.7-0.5-0.9
			c0-0.1,0.3,0.4,0.3,0.3c-0.5-1.1-1.9-2.6-2.6-3.6c0.2,0.1,0.6,0.8,0.8,0.8c-0.2-0.4-0.6-0.8-1-1.3c0-0.1,0.2,0,0.4,0.3
			c-0.1,0.1,0.9,1.2,0.5,1c0.4,0.4,0.8,0.9,1,1.2c0.1,0.2,0.1,0,0.3,0.3c0,0.1-0.1-0.1-0.2-0.1c0.2,0.2,0.6,0.7,1,1.3
			c0.4,0.6,0.8,1.2,1.1,1.4c0,0.1,0,0.1,0.1,0.3c0,0,0.1,0,0.1,0.1c0,0-0.1,0-0.1,0.1c-0.1-0.1-0.1-0.2-0.1-0.3
			c-0.2-0.3-0.6-0.9-0.7-1c0.2,0.3,0.1,0.5,0.3,0.7C83.2,29.8,83,29.6,82.8,29.5z M83.2,30.1c0-0.1,0.1,0,0.2,0.1
			c0.2,0.3,0.3,0.5,0.2,0.6L83.2,30.1z M82.8,30.9c0.2,0.3,0.3,0.3,0.5,0.5c0,0.1-0.2,0.2,0,0.4c0.2,0.2,0-0.2,0.2,0
			c0.1,0.1,0,0.2,0.1,0.4c0-0.3,0.2,0.2,0.5,0.5c-0.1,0.1-0.3-0.1-0.4-0.4c0,0.2,0,0.4-0.2,0.3c0-0.2,0.2-0.4-0.1-0.3
			C83.5,31.7,82.5,31.1,82.8,30.9z M82.7,32.2c0.2,0.2,0.3,0.2,0.4,0.1c0.2,0.5,0.3,0.6,0.6,1.1c-0.2,0.1,0,0.3-0.2,0.3
			c-0.2-0.7-0.4-0.9-0.9-1.5C82.6,32.1,82.7,32.1,82.7,32.2z M82.3,67.8c0.1,0.2,0.1,0.6,0,0.7l-0.1,0c0-0.1-0.1-0.1,0-0.3
			C82.4,68.3,82.1,67.9,82.3,67.8z M82.1,55.4c0.2,0,0.1,0.4,0.2,0.5C82.1,55.9,82.1,55.5,82.1,55.4z M82.3,56.3
			c0.2,0.1,0.5,0.9,0.2,0.9L82.3,56.3z M82.6,60.1c0.2,0.1,0.2,0.3,0.1,0.5C82.5,60.6,82.5,60.2,82.6,60.1z M82.5,36.9
			c-0.3,0-0.4-0.6-0.6-1C82.1,36,82.4,36.6,82.5,36.9z M82.2,41.2c0,0.2,0,0.4-0.1,0.5c-0.2-0.5-0.4-0.7-0.6-1c0.1,0,0.2,0,0.3,0
			C81.9,41,82,41.2,82.2,41.2z M81,67.3c0.3,0.1,0.2,0.7,0.4,1.1c-0.3,0,0,0.4-0.2,0.4c-0.2-0.3,0.1-0.7-0.2-1
			C81.3,67.7,80.9,67.6,81,67.3z M80.8,66.8c0.2-0.5,0.6,0.4,0.1,0.3c0-0.2,0.1-0.1,0.1-0.3C81,66.6,80.9,67,80.8,66.8z M80.4,78.8
			c0.1-0.1,0.2-0.1,0.3-0.1c0,0.4-0.2,0.2-0.3,0.5c-0.1,0,0-0.2,0.1-0.2C80.5,79,80.5,78.9,80.4,78.8z M80.5,75.2
			c0.4,0.2-0.1,1.1,0,1.5C80.2,76.4,80.4,75.7,80.5,75.2z M80.4,70.1c0.3,0,0,0.6,0.4,0.6c0,0.1-0.1,0.1-0.2,0.1
			c-0.1,0-0.1,0.1-0.1,0.2C80.4,70.7,80.2,70.3,80.4,70.1z M80.7,68.6l-0.4,0c-0.1-0.1-0.1-0.2,0-0.4c0.1,0.1,0,0.5,0.3,0.4
			c-0.3-0.8,0.4-0.9-0.2-1.4c0.1,0,0.1-0.1,0.1-0.2c0.1,0.1,0.2,0.1,0.3,0.1C80.9,67.8,80.7,67.9,80.7,68.6z M78.7,43.3
			c0-0.1,0-0.2-0.1-0.3c0.2-0.1,0.5,0.2,0.5,0.4c-0.1,0-0.2-0.1-0.2-0.1C78.8,43.2,78.8,43.3,78.7,43.3z M79.1,48.9
			c-0.2,0.2-0.3-0.4-0.4-0.6C79,48.3,78.9,48.5,79.1,48.9z M79,42.1c0.2,0,0.3,0.5,0.4,0.4C79.3,42.9,79.1,42.4,79,42.1z M79.6,58.4
			c-0.2,0-0.2-0.3-0.2-0.5C79.6,57.8,79.5,58.2,79.6,58.4z M80.5,59.1c0.2,0.2,0.3,0.6,0,0.7C80.5,59.6,80.6,59.4,80.5,59.1z
			 M80.2,63.4c0.1,0.1,0.2,0.3,0.2,0.6C80,64.1,80.2,63.6,80.2,63.4z M80.2,61.1c0.1,0.2,0.2,0.5,0.1,0.7
			C80.2,61.6,80.1,61.2,80.2,61.1z M79.8,55.8c0.1,0.3,0.5,1.1,0.1,1.4C80,56.7,79.7,56.5,79.8,55.8z M79.9,60.8
			c-0.2-0.1-0.2-0.1-0.2-0.4C80,60.3,79.9,60.7,79.9,60.8z M80.1,62.7c-0.2-0.7-0.3-1.2-0.3-1.8C80.2,61.4,80.1,62.1,80.1,62.7z
			 M79.9,52c0.3-0.1,0.3,0.3,0.4,0.5C80.1,52.5,80,52.3,79.9,52z M80.4,53.2c0.2,0.2,0.4,0.3,0.4,0.6C80.4,53.9,80.3,53.5,80.4,53.2
			z M80.8,60.6c0,0.4,0,0.5,0.1,0.9c-0.4,0-0.1-0.6-0.4-0.8C80.6,60.7,80.7,60.6,80.8,60.6z M81,63c0.1,0.2,0,0.2,0.1,0.4
			c0,0.2-0.1,0-0.1-0.2c-0.2,0-0.1,0.2-0.3,0C80.8,63.1,80.8,63,81,63z M80.7,41.1c0.2,0,0.3,0.3,0.4,0.5
			C80.9,41.9,80.7,41.3,80.7,41.1z M80.7,41.9c0,0.2-0.3,0.1-0.5-0.1C80.5,41.9,80.5,41.5,80.7,41.9z M80.2,40.3
			c0.2,0,0.3,0.4,0.4,0.6C80.3,40.9,80.2,40.5,80.2,40.3z M80.3,41.5c-0.4-0.2-0.7,0-0.2-0.4L80.3,41.5z M80.3,45.4
			c0,0.1-0.6,0.4-0.7,0C79.8,45.4,80.1,45.4,80.3,45.4z M79.6,62.2c0,0.3,0.1,0.3,0.3,0.3c-0.1,0.2-0.5-0.1-0.5-0.3L79.6,62.2z
			 M80,65.8c0-0.1-0.4-0.1-0.2,0c-0.1,0.3-0.1-0.2-0.4-0.1l0-0.2C79.7,65.7,79.9,65.5,80,65.8z M79.6,73.4c0.2-0.1,0.2,0.5,0,0.4
			c0-0.1,0.1-0.1,0.1-0.2C79.5,73.6,79.5,73.5,79.6,73.4z M80,73.5c0.1,0,0.1,1.7-0.4,1.7C79.7,74.8,79.8,74.3,80,73.5z M80.1,77.4
			c0,0.5-0.1,1-0.3,1.6C79.7,78.6,79.9,78,80.1,77.4z M79.9,70.2c0-0.3,0.1-0.2,0.2-0.4c0.1,0.1,0.1,0.3,0.1,0.5
			C80.1,70.2,80,70.2,79.9,70.2z M80.3,65.3c0.2,0.4-0.2,1,0.1,1.5C79.9,66.9,80.3,65.6,80.3,65.3z M81.5,57.7
			c-0.1-0.3-0.3-0.8-0.3-1.2C81.6,56.7,81.8,57.5,81.5,57.7z M81.3,37.6c-0.1-0.4,0.6,0.3,0.2,0.3C81.3,37.8,81.4,37.5,81.3,37.6z
			 M81.6,69c-0.1-0.2-0.1-0.6,0-0.7C81.7,68.5,81.8,68.9,81.6,69z M81.2,74.8l0.2,0c-0.1,0.2,0,0.7-0.2,0.7
			C80.8,75.3,81.3,75.2,81.2,74.8z M81.4,74.6c-0.2,0-0.1-0.3,0-0.5C81.6,74,81.5,74.5,81.4,74.6z M81.7,69c0.2,0.1-0.1,0.4-0.1,0.6
			C81.3,69.6,81.5,69.1,81.7,69z M81.6,31.8c-0.1,0-0.3,0.4-0.4,0.1C81.2,31.7,81.3,31.5,81.6,31.8z M81.4,32.5
			c-0.5,0.1-0.4-0.7-0.9-0.9C80.7,31.4,81.1,32.2,81.4,32.5z M80.6,32.8c-0.2,0.1-0.4-0.2-0.6-0.4l0.2-0.2
			C80.5,32.5,80.4,32.6,80.6,32.8z M79.1,33c-0.3-0.3,0-0.1,0.1-0.2c-0.1,0-0.2,0-0.3,0c0.4-0.2-0.4-0.6-0.2-0.9
			c-0.1-0.1-0.1,0-0.2-0.1c0,0.3-0.5-0.3-0.5,0.2c-0.1-0.4,0.2-0.4,0.3-0.8c0.2,0.3,0.7,1.2,1.1,1.2c0.3-0.2-0.6-1.2-0.8-1
			c-0.2-0.4,0.1-0.3,0.3-0.4c0,0.2,0.8,1.2,1.1,1.2c-0.1,0.3-0.5,0.4-0.7,0.4c0.3,0.3,0.7,0.8,1,1.2c0.4,0.5,0.7,1,1,1.5
			c0.1,0.2,0.6,0.5,0.3,0.7c-0.5-0.5-0.8-1.1-1.2-1.6C80.2,33.7,79.7,33.2,79.1,33z M80.1,35.8c0.1,0.1,1.1,0.8,0.8,1.2
			c-0.3-0.8-0.9,0.2-1-0.7C80.1,36.3,80.5,36.3,80.1,35.8z M79.8,39.4c0.2,0.3,0.5,0.6,0.2,0.7c-0.2-0.3-0.4-0.3-0.6-0.7
			C79.5,39.2,79.6,39.5,79.8,39.4z M78.7,39.8c0,0.1,0,0.2-0.1,0.3c-0.1-0.2-0.3-0.4-0.3-0.5C78.4,39.5,78.5,39.9,78.7,39.8z
			 M78.6,40.2c0.5,0.6,0.9,1.1,1.2,1.8c-0.5-0.2-0.4-0.7-0.7-1c-0.3,0.3,0.5,0.9,0.6,1.5c-0.1,0-0.2-0.1-0.2-0.1
			c-0.1-0.1-0.1,0.1-0.3-0.1c-0.4-1-0.9-1.2-1.1-2.1C78.3,40.2,78.7,40.6,78.6,40.2z M77.6,38.9c-0.1-0.1,0-0.2-0.1-0.3
			c0.6,0.4,0.3,0.9,0.7,1.4c-0.5,0.1-0.3-0.6-0.8-1.1C77.5,38.9,77.5,39,77.6,38.9z M77.3,45.5c0.1-0.1,0.2,0,0.2,0
			c0.1,0.2,0.2,0.4,0,0.4L77.3,45.5z M77.6,48.3c0,0.2-0.4,0-0.5-0.3C77.4,47.7,77.4,48.4,77.6,48.3z M77.4,45.4
			c-0.4-0.2-0.6-0.6-0.7-1.1C77,44.5,77.5,45,77.4,45.4z M76.3,40c-0.1,0.1-0.3,0.1-0.4-0.1C75.9,39.7,76.2,39.8,76.3,40z
			 M76.2,46.3c-0.1-0.2,0-0.3-0.2-0.5C76.3,45.7,76.5,46.3,76.2,46.3z M74.9,31.9c0.1,0.1,0.3,0.3,0.3,0.4c-0.3,0.1-0.3-0.3-0.5-0.5
			C74.6,31.7,74.8,31.8,74.9,31.9z M72.9,38.4c-0.3-0.3-0.3-0.5-0.5-0.7C72.7,37.5,73.1,38.1,72.9,38.4z M71.8,38.2
			c0.5,0.4,0.7,0.8,1.2,1.2c-0.3-0.1-0.2,0.2-0.4,0.3c-0.1-0.1-0.3-0.1-0.4-0.2c0-0.1,0.2-0.2,0.2-0.4C72,38.6,71.8,38.6,71.8,38.2z
			 M71.6,35.5c0,0.1,0,0.1,0.1,0.2c-0.1,0,0,0.1,0,0.1c-0.2-0.1-0.6-0.4-0.7-0.7C71.3,34.9,71.3,35.8,71.6,35.5z M70.7,34.9
			c-0.2,0.1-0.5-0.4-0.8-0.6C70.2,34.3,70.8,34.7,70.7,34.9z M69.7,30.7c0.1-0.3,0.4,0.3,0.4,0.4C70.1,31.1,69.9,30.8,69.7,30.7z
			 M69.6,28.7c0.2,0.1,0.8,0.4,0.5,0.6c0.1,0.1,0.2-0.1,0.4,0.1c-0.3,0.2-0.7-0.4-1-0.5C69.4,28.7,69.8,28.8,69.6,28.7z M69.5,35.8
			c0.2,0,0.5,0.2,0.5,0.4C69.8,36.2,69.5,36,69.5,35.8z M69.5,34.7c0.6,0,0.7,0.7,1.2,0.8l-0.2,0.2C70.1,35.2,69.8,35.3,69.5,34.7z
			 M70.3,36.6c0.2-0.2,0.4,0.3,0.5,0.4C70.6,37.1,70.3,36.9,70.3,36.6z M70.7,36l0.2-0.1c0.5,0.6,1,1,1.2,1.4
			C71.4,37,71.3,36.5,70.7,36z M71,37.5c0.2-0.2,0.7,0.2,0.3,0.4L71,37.5z M71.6,38.5c-0.2,0.1-0.3-0.1-0.4-0.3
			C71.3,38.1,71.6,38.4,71.6,38.5z M71.3,39c0.2-0.1,0.5,0.2,0.7,0.4l-0.2,0.2C71.6,39.3,71.3,39.2,71.3,39z M72.7,40.6
			c-0.2-0.3-0.7-0.6-0.6-1c0,0,0,0,0,0c0.1,0,0.3,0.1,0.4,0.3C72.7,40.1,72.8,40.4,72.7,40.6z M72.7,39.9c0.2,0.1,0.4,0.3,0.4,0.5
			C72.9,40.3,72.7,40.1,72.7,39.9z M73.1,40.1c-0.1-0.2,0-0.3,0.2-0.4C73.5,40,73.3,40.2,73.1,40.1z M73.7,37.5
			c-0.1-0.3-0.3-0.1-0.3-0.4C73.6,37.2,74,37.3,73.7,37.5z M74.2,37.4c0.1,0.2,0.2,0.1,0.3,0.3c-0.1,0.1-0.2,0.1-0.3,0.1
			C74.1,37.7,74,37.5,74.2,37.4z M74.1,41.8c0-0.2,0.6,0.6,0.6,0.6C74.5,42.7,74.3,42,74.1,41.8z M74.5,35c0.2,0,0.4,0.4,0.6,0.6
			C74.9,35.7,74.6,35.2,74.5,35z M74.9,44.5c0.2-0.1,0.3,0.2,0.4,0.4C75.1,44.8,74.8,44.7,74.9,44.5z M75.7,44.1l-0.1,0.3
			c-0.1,0.1-0.2-0.2-0.3-0.1c0.1-0.1-0.1-0.4,0.2-0.5c0.1,0.3,0.3,0,0.4,0.4C75.9,44.2,75.8,44.1,75.7,44.1z M76,46.4
			c0.3,0,0.3,0.4,0.3,0.5C76.2,47,76.1,46.6,76,46.4z M76.3,48.6c-0.1-0.2,0.1-0.2,0-0.4C76.6,48.1,76.5,48.6,76.3,48.6z M76.5,40.6
			c-0.2,0.1-0.1-0.2-0.2-0.3l0.2-0.1l0.2,0.2c-0.1,0.1-0.2,0-0.2,0L76.5,40.6z M76.6,49.2l0.2-0.1c0.1,0.6,0.5,0.8,0.5,1.4
			C76.8,50.1,77,49.5,76.6,49.2z M77.4,50.9c-0.1-0.2-0.1-0.3-0.1-0.4C77.5,50.5,77.7,50.9,77.4,50.9z M77.7,52.1
			c-0.2,0-0.2,0.1-0.4,0c0-0.3,0.2-0.4,0.2-0.6C77.6,51.5,77.8,51.9,77.7,52.1z M77.6,45.9c0.2-0.2,0.5,0.3,0.4,0.5
			C77.8,46.6,77.7,46.1,77.6,45.9z M78,46.7c0.1-0.1,0.2,0,0.3,0c0.1,0.5,0.4,0.9,0.4,1.2C78.3,47.8,78.3,47.3,78,46.7z M78.6,75.5
			c-0.4-0.1,0-0.2,0-0.5C78.8,75.1,78.6,75.4,78.6,75.5z M78.5,79c-0.2-0.5,0.4-1.1,0.3-1.7C79.2,77.8,78.5,78.3,78.5,79z M79,78.1
			c0,0.1,0.1,0.1,0.2,0.1l0.1-0.2c0.3,0.2-0.2,0.5-0.4,0.5L79,78.1z M82.9,105.2C82.9,105.2,82.9,105.1,82.9,105.2
			c-0.5,0.1-0.9,0.2-1.3,0.6c-0.4,0.4-0.9,0.4-1.2,0.9c-0.1,0.2-0.4,0.2-0.6,0c-0.2-0.2-0.6-0.4-0.5-0.8c0.1-0.4,0.4-0.5,0.8-0.4
			c0.4,0.1,0.7,0.2,1.1-0.1c0.3-0.3,0.8-0.8,1.1-1.1c0.1-0.1,0.6-0.2,0.6-0.2s0-0.1,0-0.1s0,0,0,0c0,0,0,0.1,0,0.1c0,0,0,0,0,0
			S82.9,105.1,82.9,105.2C82.8,105.1,82.9,105.1,82.9,105.2C82.9,105.1,82.9,105.2,82.9,105.2C82.9,105.2,82.9,105.2,82.9,105.2z
			 M83.1,105.4c0,0-0.2-0.3-0.1-0.3c0,0,0.3,0.1,0.3,0.2C83.2,105.5,83.1,105.5,83.1,105.4z M83.9,106C83.9,106,84,105.9,83.9,106
			c-0.2-0.2,0.5-1.3,0.8-1.2c0,0,0.2,0,0.2,0.1c0,0,0,0.2,0,0.2C84.9,105.3,84.3,106.1,83.9,106C83.9,105.9,83.9,106,83.9,106
			C83.9,106,83.9,106,83.9,106C83.9,106,83.9,106,83.9,106z M83.8,106c0,0,0,0.3-0.1,0.3c0,0,0,0.1-0.1,0
			C83.5,106.3,83.8,106,83.8,106z M83.4,102.9C83.4,102.9,83.4,102.9,83.4,102.9C83.4,102.9,83.4,102.8,83.4,102.9
			C83.4,102.8,83.4,102.9,83.4,102.9z M83.3,62.5c0-0.2,0.1-0.3,0.1-0.5c0.2,0.1,0.1,0.1,0.1,0.4c0.1,0.1,0.2,0.1,0.2,0.3
			C83.5,62.7,83.4,62.6,83.3,62.5z M83.8,63.8l0,0.4C83.5,64.2,83.5,63.7,83.8,63.8z M83.8,51.5c0.3,0,0.3,0.7,0.5,1.1
			C84,52.3,83.8,51.9,83.8,51.5z M83.5,64.6c0-0.3,0.2,0,0.2-0.2c0.1,0.2,0.1,0.7,0.1,1.2C83.5,65.3,83.9,64.8,83.5,64.6z
			 M84.4,63.4c-0.3-0.2-0.3-0.9-0.3-1.3C84.4,62.3,84.4,62.9,84.4,63.4z M84.7,54.5c-0.2-0.1-0.2-0.5-0.3-0.6
			c0.1-0.2,0.2-0.1,0.4-0.1C84.6,54.1,84.7,54.2,84.7,54.5z M84.3,66.1c0.1-0.5-0.1-0.8,0-1.4C84.6,64.9,84.5,65.7,84.3,66.1z
			 M84.6,70.3c-0.1-0.4-0.1-1.1,0-1.7l0.2,0C84.7,69.1,84.8,69.9,84.6,70.3z M84.9,47.4c0.3,0.2,0.1,0.8,0.2,1.1
			C84.6,48.1,84.9,47.8,84.9,47.4z M84.5,43.8c-0.3-0.7-0.7-1.2-1-1.7c0.6,0,0.6,0.8,1.1,1.2c-0.4,0.5,1.1,2,0.9,2.8
			C85.1,45.2,84.8,44.5,84.5,43.8z M85.2,56.5c0.4,0.1,0.2,0.8,0.4,1.1C85.3,57.6,85.3,56.8,85.2,56.5z M85.4,49.4
			c0-0.1,0.1-0.1,0.1-0.2c0.2,0.2,0.3,0.4,0.3,0.6C85.6,49.7,85.5,49.7,85.4,49.4z M85.8,57.1c0.3-0.1,0.2,0.5,0.3,0.7
			C86,57.7,85.9,57.3,85.8,57.1z M86.1,44.4c0.1,0,0.2,0.1,0.3,0.3c0.2-0.4-0.5-0.4-0.3-0.8c-0.2-0.2,0,0.4-0.3,0.1
			c0-0.4,0-0.8-0.1-1.1c-0.1-0.3-0.4-0.7-0.7-1.2c0.3-0.1,0.2-0.4,0.1-0.7c0.2-0.2,0.3,0,0.4,0c-0.4,0.6,0.4,0.8,0.1,1.3
			c0.1,0.3,0.3,0.3,0.5,0.6c0.1-0.1,0-0.5-0.1-0.4c0-0.2,0.4,0.1,0.4,0.4c0.2-0.1-0.1-0.2,0.1-0.4c-0.1-0.2-0.2-0.3-0.3-0.2
			c0.1-0.4,0.6,0,0.8,0.2c0.2,0.2,0,0.3,0,0.5c0.3,0.1,1.1,2,0.9,2.3c0.2,0.3,0.5,0.4,0.2,0.6c0.1,0.2,0.3,0.1,0.4,0.2
			c0.1,0.3,0.2,0.7,0.3,1c0.6,0.6,0.2,2,1,2.7c-0.1,0.3,0,0.6,0.3,0.9c-0.1,0.5-0.5-0.5-0.5-0.2c-0.2,0.1,0.1-0.3-0.2-0.2
			c0.2-1-0.8-2.3-0.5-2.9c-0.6-0.4-0.6-1.2-0.9-1.9c-0.2-0.6-0.9-1-0.5-1.4c-0.3-0.1-0.3-0.2-0.6-0.6c-0.2,0-0.1,0.2,0,0.4
			c-0.2-0.2-0.4-0.2-0.6-0.6c-0.1,0.4,0.6,1,0.8,1.4c-0.2-0.2-0.5-0.1-0.2,0.3c-0.1,0-0.2,0.1-0.2,0.2
			C86.4,45.2,86.3,44.7,86.1,44.4z M87.8,49.4c-0.2,0.1-0.3-0.1-0.3-0.3C87.7,49,87.8,49.1,87.8,49.4z M86.8,45.5
			c0.4,0.1,0.1,0.6,0.4,0.6c0,0.4-0.4-0.2-0.5-0.4C86.8,45.7,86.9,45.6,86.8,45.5z M87.2,50.2c-0.1-0.2-0.2-0.5-0.1-0.6
			C87.2,49.7,87.4,50.2,87.2,50.2z M86.7,52.2c0.1,0.5-0.1,0.2-0.4,0.3C86.3,52.2,86.5,52.1,86.7,52.2z M86.3,50
			c0.2,0.1,0.2,0.7,0.4,0.9C86.4,50.7,86.3,50.2,86.3,50z M86.3,55.4c0.2-0.1,0.3,0,0.3,0.2C86.5,55.8,86.3,55.6,86.3,55.4z
			 M86.8,53.6c0-0.2-0.2-0.6-0.4-1c0.2-0.2,0.2,0.4,0.4,0.3C86.9,53.6,86.8,53.8,86.8,53.6z M86.8,54c0.2-0.2,0.2,0.4,0.3,0.6
			C86.8,54.5,86.9,54.4,86.8,54z M87,57l-0.1-0.5c0.2,0.2,0.4,0.5,0.4,0.9C87,57.4,87.2,56.9,87,57z M87.9,51.9
			c-0.5,0-0.4-0.9-0.5-1.2C87.7,51,87.7,51.5,87.9,51.9z M87.5,74.2c-0.1-0.2-0.1-0.4,0-0.6C87.8,73.5,87.6,74.1,87.5,74.2z
			 M88.3,53.6c-0.3-0.6-0.4-1.1-0.5-1.6C88.1,52.4,88.3,53,88.3,53.6z M88.2,56.2l0.2,0l0.1,0.6c-0.3-0.3,0.1,0.6-0.3,0.5
			C87.9,56.6,88.4,56.6,88.2,56.2z M88.4,60.9c-0.3,0-0.1-0.5-0.1-0.6C88.5,60.3,88.5,60.9,88.4,60.9z M88.5,59.1c0-0.5-0.1-0.6,0-1
			C88.6,58.1,88.8,59.1,88.5,59.1z M88.8,60.2c-0.1,0-0.1-0.2-0.2-0.2c0.1-0.4,0.4,0.4,0.3-0.2c0.3-0.1,0.2,0.3,0.1,0.5
			C88.9,60.3,88.8,59.9,88.8,60.2z M89,81.4c0.1-0.3,0.3,0,0.5,0.1C89.3,81.8,89.2,81.3,89,81.4z M89.5,70.5l0-0.5
			C89.8,69.9,89.7,70.7,89.5,70.5z M89.8,65.9c0,1.1-0.1,0.7-0.1-0.5C90.1,65.4,89.8,65.8,89.8,65.9z M89.6,61.3
			c0.1,0.7,0.3,1.3,0.3,1.9c0,0.6,0,1.1-0.1,1.5c-0.2-0.5-0.2-1.1-0.2-1.8c0-0.7-0.1-1.4-0.2-2c0.2,0.1,0.4,0.2,0.5,0.3
			C90,61.6,89.8,61.2,89.6,61.3z M90.1,80.8c0.1-0.2,0.3-0.2,0.4-0.2C90.4,80.9,90.3,80.9,90.1,80.8z M90.8,84
			c-0.1-0.2-0.4-0.2-0.3-0.6C90.6,83.6,90.9,83.6,90.8,84z M90.5,66.3c0-0.3,0.4-0.5,0.4,0C90.6,66.4,90.7,66.4,90.5,66.3z M90.8,65
			c0,0.1,0.1,0.1,0.1,0.2c-0.1,0.3-0.1,0.7-0.4,0.6c0-0.4,0-0.8-0.2-0.9c0.1-0.2,0.3-0.3,0.4-0.5c0.1-0.5-0.4-1,0-1.3
			c0-0.2-0.1,0-0.2,0c0.2-0.8-0.3-1.4-0.2-2.3c0.2,0.3,0.2,0.8,0.6,0.9c0.3,1.2-0.4,1.9,0.2,2.7C90.9,64.2,90.9,64.9,90.8,65z
			 M91.1,70.6c0.2,0.1,0,0.3,0,0.6C90.9,71.2,91.1,70.9,91.1,70.6z M91.4,85.5l-0.3-0.1c0.2-0.1,0.3-0.5,0.4-0.9
			c0,0.1,0.1,0.1,0.2,0.2C91.5,84.9,91.4,85,91.4,85.5z M91.3,67.1c0-0.2,0.5-0.4,0.4,0L91.3,67.1z M91.6,65.5
			c0.1-0.7,0.4,0.1,0.6-0.3c0,0.1,0,0.1-0.1,0.1c0,0.4,0.2,0.7,0,1.2c-0.3,0.1-0.3-0.6-0.2-0.8C92,65.5,91.7,65.5,91.6,65.5z
			 M92.3,82c-0.2,0,0-0.5-0.3-0.4c0.1-0.1,0.2-0.2,0.4-0.1C92.4,81.6,92.5,81.8,92.3,82z M92.1,50.7c0-0.3,0.3,0,0.2,0.3
			c0.1-0.1,0-0.3,0.1-0.3c-0.1-0.3-0.2-0.3-0.3-0.5c0,0.5-0.4,0.1-0.5-0.2c0.2,0.3,0.2-0.3,0.4,0c0.2-0.3,0-0.8-0.2-1
			c0.3-0.2,0.7,1.5,0.7,2.1c-0.1,0-0.2,0-0.2,0.2C92.1,51.2,92.2,50.8,92.1,50.7z M92.4,52.6c0.1-0.1,0.4-0.7,0.5-0.2
			c0.1-0.2-0.1-0.8-0.2-1c0.4,0,0.3,0.7,0.4,1.2c-0.1,0-0.1,0-0.2-0.1c-0.1,0.1-0.1,0.3,0,0.6c0.3,0.1-0.1-0.5,0.2-0.4
			c0,0.4,0,0.7-0.2,0.9C92.6,53.3,92.8,52.6,92.4,52.6z M92.8,65c0.1,0,0.3,0,0.3-0.1c0.1,0,0.1,0.3,0.1,0.4
			C93,65.2,92.8,65.3,92.8,65z M93.2,55c0.3,0,0.1,0.8,0.3,0.9C93.2,56.2,93.3,55.3,93.2,55z M93.6,57.8
			C93.6,57.7,93.7,57.7,93.6,57.8c0.2,0,0.2-0.2,0.3-0.2c0,0.3-0.2,0.4-0.1,0.7C93.5,58.3,93.8,57.9,93.6,57.8z M93.8,59.2
			c0.2,0.2,0.5,0.3,0.6,0.7c-0.2-0.1-0.3-0.2-0.5-0.3L93.8,59.2z M94.2,64.5c-0.4-0.3-0.1-1-0.1-1.3c0.1,0.6,0.1,0.8,0.2,1.6
			c-0.1,0.1-0.2,0.3-0.4,0.1C94,64.6,94,64.4,94.2,64.5z M94.2,66.9c-0.4-0.2,0-0.6-0.2-1.2c0.2,0,0.1,0.7,0.4,0.6
			C94.4,66.5,94.1,66.3,94.2,66.9z M94.3,55.6c-0.2,0-0.1-0.4-0.1-0.4c0.2,0,0.2,0.5,0.3,0.5C94.5,56.3,94.3,55.2,94.3,55.6z
			 M94.7,61.7l0-0.3l0.3,0C95,61.6,94.8,61.6,94.7,61.7z M94.9,63.9c0.1-0.2,0.3-0.3,0.5-0.2c0.1,0.1,0.1,0.4,0.1,0.7
			c-0.3,0,0-0.3-0.2-0.5C95,64.6,95.3,64.2,94.9,63.9z M95.4,66.1c0.2,0.2,0.1,0.6,0.1,0.9C95.3,66.9,95.4,66.4,95.4,66.1z
			 M95.1,67.9c0.1-0.1,0.1-0.2,0.1-0.3c0.1,0.2,0,0.9,0.3,0.9C95.3,68.8,95.2,68.2,95.1,67.9z M96.3,44.9
			C96.3,44.9,96.3,45,96.3,44.9c-0.1-0.3-0.2-0.7-0.3-1.1c-0.1-0.4-0.2-0.8-0.4-1.1c-0.1-0.3-0.2-0.5-0.2-0.2c0,0,0.1,0,0.1,0.1
			c0,0,0,0,0,0c-0.3-0.3-0.3-0.6-0.1-0.8c0.1-0.1,0.1-0.1,0.2-0.1c0,0.2,0,0.4,0.1,0.6c0.1,0,0-0.2,0.1,0c0.1,0.4,0.1,0.5,0.1,0.8
			c0.1,0,0.1,0.4,0.3,0.9c0,0-0.1-0.2-0.1-0.2c0.1,0.4,0.3,1.1,0.3,1.4C96.4,45.2,96.4,45,96.3,44.9z M96.5,45.3
			C96.5,45.3,96.5,45.2,96.5,45.3C96.5,45.3,96.5,45.3,96.5,45.3C96.5,45.4,96.5,45.3,96.5,45.3z M96.7,48.1c0-0.1,0-0.3,0-0.4
			c0,0,0,0,0.1,0.1C96.8,47.8,96.8,48,96.7,48.1z M97.1,48.8c0-0.3-0.1-0.5-0.2-0.7c0-0.4,0-0.7,0-0.8c0.1,0.6,0.2,1.4,0.3,1.8
			C97.2,48.9,97.1,48.9,97.1,48.8z M97.4,49c0,0,0,0.1,0.1,0.2c0,0,0,0,0,0C97.4,49.1,97.4,49.1,97.4,49z M97.5,50.8
			c0-0.1,0-0.1,0-0.2C97.5,50.7,97.5,50.8,97.5,50.8C97.5,50.9,97.5,50.8,97.5,50.8z M97.6,52.7c0-0.1,0-0.1,0-0.2
			c0-0.2,0-0.4,0-0.5C97.6,52.3,97.6,52.4,97.6,52.7z M97.5,50.6c0-0.1,0.1-0.1,0.1-0.2c0,0.2,0,0.3,0.1,0.5
			C97.6,50.9,97.6,50.8,97.5,50.6z M97.6,51.1c0.2,0.1,0.1,0.8,0.2,1.4C97.6,52.1,97.7,51.8,97.6,51.1z M97.9,49.5
			C97.9,49.5,97.8,49.4,97.9,49.5c-0.1-0.5-0.1-0.8,0-0.7C97.9,49.3,97.9,49.3,97.9,49.5z M97.9,48.6c0.1,0-0.1-1-0.1-1
			c0,0.2,0,0.1,0,0c0.3,1.2,0,1.5-0.1,0.3c0,0,0.1-0.1,0.1-0.2c-0.1-0.3-0.1-0.9-0.2-0.7c0.2,1-0.1,0.4,0,1.1c0,0.1,0.1-0.1,0.2,0.3
			c0,0.3-0.2,0-0.2,0.2c0.1,0.5,0.1,0.2,0.2,0.3c0,0.1,0,0.3,0,0.4c0,0-0.1-0.1-0.2-0.1c0,0,0,0-0.1-0.1c-0.1-0.9-0.2-1.6-0.3-2.3
			c0,0.1,0,0.2,0,0c-0.1-0.3-0.1-0.6-0.1-0.8c-0.1,0.1-0.1,0-0.1-0.3c-0.1,0,0,0.2-0.1,0.2c-0.1-0.8-0.4-1.4-0.4-1.8
			c0.2,0.4,0.1-0.2,0.1-0.4c0.3,0.8,0.4,2.1,0.5,2.6c0-0.3-0.1-0.9-0.1-1.1c0.2,0.9,0.1,1.3,0.2,1.8c0.1-0.1,0-0.7,0-1.1
			c0.1-0.3,0.2,1.1,0.4,1.3c-0.1-0.7-0.3-1.3-0.5-1.8c0-0.5-0.1-1-0.2-1.7c0,0.4,0.1,0.3-0.1,0.2c0,0.3,0.2,0.4,0.1,0.5
			c-0.1-0.1-0.2-0.6-0.3-0.7c0-0.3,0-0.4-0.2-0.8c-0.1,0,0.1,0.8-0.1,0.4c-0.1-0.5-0.1-0.2-0.2-0.7c-0.1-0.4,0.1,0,0-0.6
			c0,0.1-0.2-0.2-0.2-0.4c0,0,0,0,0,0c0.1,0,0.1,0,0.2,0c0,0.1,0,0.1,0.1,0.3c0.1-0.2,0.2,0.5,0.2,0.6c0,0,0,0,0.1,0.1
			c0,0.2-0.2-0.5-0.2-0.2c0.1,0,0.1,0.5,0.2,0.5c0-0.2,0-0.3,0-0.3l0.2,1c0-0.2,0.2,0,0.1-0.5c-0.1,0,0,0.3-0.1,0.2
			c-0.1-0.4-0.3-1.1-0.2-1.1c0,0-0.1-0.4-0.2-0.7c0.1,0,0.1-0.1,0.2-0.1c0,0,0,0,0,0.1c0.2,0.1,0.7,2,0.5,1.8
			c0.2,0.5,0.3,0.8,0.2,0.3c0.1,0.5,0.3,1.3,0.3,1.1c0,0,0.1,0.4,0,0.4c-0.1-0.1-0.1-0.8-0.2-0.6c-0.1,0.1,0.2,0.9,0.1,0.9
			c-0.1-0.3-0.1,0-0.2-0.5c0.1,0.2,0.1-0.2-0.1-0.5c0.1,0.2,0.1,0,0-0.4c0,0.4-0.1,0.3-0.2-0.2c0.2,0.7,0.3,1.5,0.4,2.2
			c0-0.3,0.1,0.4,0.2,0.3c0.2,1,0.2,1.2,0.3,2.2C98,48.4,98,49,97.9,48.6z M98.1,45.3c-0.2-0.7-0.2,0-0.3-0.5
			c-0.1-0.6,0.1-0.4-0.1-0.7c0,0.2-0.1-0.1,0,0.3c-0.1-0.2-0.3-0.6-0.2-0.9c0.1,0.2,0.1,0,0.1-0.3c0,0.3-0.1,0.2-0.2,0.1
			c-0.1-0.6-0.3-1.3-0.3-1.4c0.1,0.2,0.1,0.2,0.2,0.2c-0.1-0.5-0.1,0-0.2-0.3c0,0,0-0.1,0-0.1c0.1,0,0.1,0.1,0.2,0.1
			c0,0.1,0,0.2,0.1,0.3c0,0,0.1-0.1,0.1-0.2c0,0,0,0,0,0c0.1,0,0.1,0.1,0.2,0.1c0.2,0.8,0.3,1.3,0.4,2.2c-0.1-0.1-0.1-0.1,0,0.2
			c0,0,0.1,0,0.1,0.2c-0.1-0.1-0.1-0.1,0,0.2C97.9,44.6,98.1,45.2,98.1,45.3z M98.2,55.6c0-0.6-0.1-0.6,0-1.2
			C98.2,54.7,98.3,55.5,98.2,55.6z M98.1,54.2c0-0.3,0-0.8,0-1c0.1,0.3,0.1,1.1,0.2,1.8C98.2,54.8,98.2,54,98.1,54.2z M99.2,45.8
			c-0.2-1.1-0.2-0.7-0.4-1.2c0.1-0.1,0.1,0.2,0.2,0C99.2,45,99.3,45.7,99.2,45.8z M99.4,47c-0.1-0.2-0.1-0.9,0-0.6
			C99.5,46.7,99.4,46.7,99.4,47z"/>
		<path class="st3" d="M68.4,15.9c-0.4-0.3-2.1-1.2-2.6-1.6c0,0,0,0.1-0.1,0.1c-0.5-0.3-2-1.1-2-1.1c-0.1,0,0.1,0.1-0.1,0.1
			c-0.2-0.1-0.2-0.2-0.4-0.3c-0.6,0-1.1-0.6-1.8-0.8c0.1,0.2,0.4,0.2,0.4,0.2c0.2,0.1,0.4,0.2,0.5,0.3c-0.4-0.2,0,0,0,0.1
			c-0.2,0-0.3-0.1-0.4-0.2c0,0.2,1.1,0.5,1.5,0.7c0.5,0.2,0.2,0.3,0.8,0.6c0,0-0.1-0.1-0.2-0.2c0.4,0.2,1,0.4,1.3,0.7
			c-0.4-0.2-0.1,0.1,0.2,0.2c0.2,0,0.4,0.2,0.7,0.3c-0.3,0,0.6,0.3,0.2,0.3c0.5,0.3,0.2,0,0.5,0.2c0.2,0.3,0,0,0.4,0.2
			c0,0.1,0.3,0.2,0.1,0.2c0.5,0.3,0.9,0.4,1.2,0.7c0.1,0,0.2,0,0.3,0.1c0,0,0,0,0.1,0c0,0,0-0.1,0-0.1C68.8,16.2,68.6,16,68.4,15.9z
			 M67.5,15.6c0.1,0,0.4,0.2,0.6,0.3C68.1,16,67.8,15.8,67.5,15.6z"/>
		<path class="st3" d="M62.7,8.8C62.9,9,62.9,9,63.3,9.2C63.4,9.1,62.6,8.8,62.7,8.8z"/>
		<path class="st3" d="M63,8l0.5,0.2c0.1,0-0.2-0.1-0.1-0.2c0.2,0.1,0.6,0.3,0.5,0.1c-0.3-0.1-0.5-0.2-0.7-0.2
			C63.4,8.1,62.9,7.9,63,8z"/>
		<path class="st3" d="M64.6,12.8c-0.1-0.2-1-0.6-1.2-0.7l0,0.1C64,12.5,64.2,12.5,64.6,12.8z"/>
		<path class="st3" d="M63.4,12.1L63.4,12.1C63.4,12,63.4,12.1,63.4,12.1z"/>
		<path class="st3" d="M65.1,17.8c-0.1,0-0.1-0.1-0.2-0.1c0.1,0.1,0.2,0.2,0.4,0.3c0-0.1-0.1-0.1-0.1-0.1
			C65.1,17.9,65.1,17.9,65.1,17.8z"/>
		<path class="st3" d="M66.4,18.6c-0.3-0.2-0.2,0-0.5-0.2c0-0.1-0.1-0.2-0.3-0.2c0,0,0,0,0,0c0.1,0,0.2,0.1,0.3,0.3
			c0.2,0.1,0.4,0.3,0.6,0.4c0,0,0.1,0,0.1,0C66.6,18.8,66.4,18.8,66.4,18.6z"/>
		<path class="st3" d="M66.8,14.4c-0.1-0.1-0.4-0.4-0.7-0.5C66.6,14.1,66.3,14.2,66.8,14.4z"/>
		<path class="st3" d="M67.9,11.5c-0.3-0.2-0.2-0.2-0.6-0.4c-0.2,0,0.4,0.3,0.3,0.3c-0.3-0.1-0.5-0.3-0.6-0.3
			c0.4,0.2,0.4,0.4,0.5,0.4c0-0.1,0.1-0.1,0.3,0c0.2,0.2,0.5,0.3,0.6,0.4C68.3,11.8,67.6,11.4,67.9,11.5z"/>
		<path class="st3" d="M69.2,7.1c0.2,0.1,0.8,0.3,0.6,0.2c-0.3-0.1-0.9-0.6-0.8-0.4C69.1,6.9,69.2,7,69.2,7.1z"/>
		<path class="st3" d="M83.4,24.7c-0.1,0.1-0.2-0.3-0.4-0.5c-0.2,0-0.7-0.8-1.1-1.2c0-0.1-0.2-0.3-0.5-0.6c0.2,0-0.3-0.4-0.3-0.6
			c-0.7-0.3-1.6-1.6-1.8-1.9c0.2,0.1-0.2-0.1-0.2-0.1c-0.2-0.2-0.2-0.4-0.5-0.6c0.1,0.1,0.3,0.3,0.2,0.3c-0.3-0.3-0.6-0.6-0.7-0.7
			c-0.1,0-0.2,0-0.4-0.2c-0.3-0.3-0.4-0.5-0.4-0.5c0.1,0.1-0.6-0.6-0.4-0.3c0.9,1-2-1.6-1.7-1.5c-0.3-0.2-0.3-0.1-0.6-0.3
			c-0.1-0.2-0.6-0.5-0.6-0.7c-0.5-0.4-0.9-0.5-1.2-0.8c-0.2-0.1,0,0.1,0.1,0.2c-0.3-0.1-0.6-0.3-0.7-0.5c0.2,0.1,0.6,0.3,0.2,0
			c-0.2-0.1-1-0.7-1.1-0.8c-0.3-0.2,0,0.1,0,0.1c-0.3-0.2-0.4-0.2-0.6-0.3c-0.1-0.1-0.3-0.2-0.4-0.3c0.2,0.1,0.5,0.2,0.6,0.3
			c-0.4-0.2-0.5-0.4-0.9-0.6c-0.2,0,0.2,0.3,0,0.1c-0.5-0.3-0.5-0.4-0.9-0.6l0,0.1c0.5,0.3,0.7,0.4,1,0.6c0,0.1-0.1,0.1,0.1,0.2
			c0.3,0.1,1.1,0.6,1.1,0.8c-0.5-0.3-0.7-0.5-1.4-0.9c-0.1,0-0.4-0.1,0.1,0.2c0.1,0,0.2,0,0.5,0.2c0.4,0.3,1.2,0.8,1.7,1.1
			c-0.2-0.2-0.1-0.1-0.4-0.3c0,0,0-0.1-0.1-0.1c0.4,0.2,0.9,0.5,1.4,0.8c0.5,0.4,0.2,0.3,0.8,0.8c0.2-0.1,0.6,0.3,1.2,0.8l0,0.1
			c0.4,0.2,0.6,0.5,1.1,0.7c0,0,0,0.1,0.1,0.2c-0.2-0.1-1.7-1.3-1.5-1.2c-0.7-0.4-1.2-0.7-1.9-1.3c0.1,0.1-0.3-0.1,0,0.1
			c0.4,0.2,1,0.6,1.2,0.9c0.2,0,1.1,0.7,1.2,1c-0.2-0.2-0.5-0.4-0.5-0.3c0.5,0.5,0.7,0.6,1.2,1c-0.3-0.3-0.6-0.4-0.8-0.7
			c0.1,0,0.2,0,0.3,0.1c0.2,0.2,0.3,0.3,0.6,0.6c-0.1,0,0.3,0.4,0.4,0.5c0.2,0.1-0.1-0.2,0.2,0c0.4,0.4,0.7,0.5,1,0.9
			c-0.1-0.1-0.4-0.3-0.5-0.3c0.3,0.3,0.3,0.1,0.6,0.4c-0.1,0,0.1,0.2,0.3,0.4c0.5,0.3,1.2,1.1,1.6,1.3c0.1,0.1,0.4,0.4,0.5,0.6
			c-0.2-0.2-0.3-0.3-0.4-0.3c0.5,0.4,1.2,1.3,1.2,1.1c0.3,0.4,0.4,0.7,0.7,1c-0.1-0.1-0.2-0.2-0.1-0.2c0.1,0.2,0.2,0.2,0.3,0.3
			c0,0.2,0.8,0.9,0.9,1.3c0-0.2,0.3,0.3,0.4,0.4c-0.4-0.6-0.9-1.3-1.4-1.9c0.6,0.5,0.9,0.9,1.4,1.6c0,0.1-0.5-0.4-0.1,0
			c0.3,0.2,0.8,1,1.2,1.3C83.8,25.4,83.3,24.8,83.4,24.7z M72.9,14.8c0-0.2,0.6,0.3,0.8,0.5C73.7,15.4,73,14.9,72.9,14.8z M76.6,18
			c0-0.2,0.6,0.5,0.5,0.2c0.3,0.2,0.1,0.2,0.4,0.4C77.4,18.7,76.9,18.2,76.6,18z M78.7,19.9c0.4,0.2,0.9,0.8,1.1,1.1
			C79.6,20.8,79.1,20.3,78.7,19.9z M80.4,21.5c0-0.1,0.7,0.6,0.6,0.6C80.8,22,80.6,21.7,80.4,21.5z M81,22.3
			c0.2,0.1,0.4,0.4,0.7,0.7C81.6,23.2,81.2,22.6,81,22.3z"/>
		<path class="st3" d="M70.2,15.7l-0.5-0.3c0,0.1-0.2,0,0,0.1C69.8,15.4,70.2,15.8,70.2,15.7z"/>
		<path class="st3" d="M73.1,11.1c-0.5-0.3-0.4-0.2-0.9-0.5c0,0.1-0.6-0.3-0.7-0.3c0.6,0.2,1.4,0.9,1.8,0.9c0.4,0.2,0.5,0.5,0.8,0.6
			C74,11.7,74,11.7,74,11.7c-0.5-0.3-0.1-0.1-0.3-0.3c-0.1,0-0.1,0-0.2-0.1c0.1,0-0.5-0.4-0.7-0.5C73.1,11,73.2,11.1,73.1,11.1z"/>
		<path class="st3" d="M72,17.9l0.3,0.2l0-0.1c-0.5-0.3-0.8-0.7-1-0.8c0.1,0.2,0.6,0.5,0.8,0.7c-0.3-0.1-1.3-0.7-1.5-1
			c0.3,0.2,0.2,0.2,0.5,0.3c0-0.1-1-0.9-1.1-0.8c0.7,0.4,0.8,0.7,1.1,1c0,0,0-0.1,0.1,0c-0.1,0.1,0.3,0.2,0.4,0.4
			c-0.2-0.2-0.3-0.1-0.1,0c0.1,0,0.3,0.1,0.4,0.2c-0.2-0.2-0.1-0.2-0.2-0.3C71.8,17.9,71.9,17.9,72,17.9c0.1,0.3,0.1,0.3,0.4,0.6
			c0.1,0-0.1-0.2,0.1-0.1C72,18.1,72.2,18.1,72,17.9z"/>
		<path class="st3" d="M70.1,16.7c0.1,0.2,0.3,0.3,0.5,0.5C70.8,17.2,70.2,16.7,70.1,16.7z"/>
		<path class="st3" d="M69.7,21.1C69.7,21.2,69.7,21.2,69.7,21.1C69.7,21.2,69.7,21.1,69.7,21.1C69.7,21.1,69.7,21.1,69.7,21.1z"/>
		<path class="st3" d="M69.7,21C69.7,21,69.7,21,69.7,21C69.7,21,69.7,21,69.7,21C69.7,21,69.7,21,69.7,21z"/>
		<path class="st3" d="M72.7,15.1c-0.2-0.1-0.6-0.4-0.6-0.4c0.3,0.4,1.2,0.8,1.6,1.2c-0.2-0.4-0.9-0.6-1.3-1
			C72.5,14.9,72.8,15.3,72.7,15.1z"/>
		<path class="st3" d="M72.5,13.6c1,0.7,0.2,0.2,0-0.1L72.5,13.6z"/>
		<path class="st3" d="M72.3,15.2c0.2,0.1,0.6,0.5,0.9,0.7C73.3,15.9,72.2,15,72.3,15.2z"/>
		<path class="st3" d="M72.9,16.4c-0.4-0.3-0.7-0.5-0.5-0.2c0.6,0.4,0.8,0.7,1.5,1.1C73.8,17.2,73.3,16.7,72.9,16.4z"/>
		<path class="st3" d="M84.8,22.1c0.4,0.3,0.4,0.5,0.6,0.8c-0.3-0.5,0.3,0.2,0.3,0.2c-0.4-0.5-0.5-0.7-0.8-1c0-0.1-0.1-0.1-0.1-0.2
			C84.9,22.1,84.9,22.2,84.8,22.1z"/>
		<path class="st3" d="M74.7,12.3c0.3,0.2,1.2,0.8,1,0.8c0-0.1-0.2-0.1-0.3-0.2c-0.4-0.3-0.4-0.3-0.8-0.6c0,0.1-0.2,0-0.2-0.1
			c0.2,0.1,0,0.1,0.3,0.3c0.1-0.1,0.9,0.7,1.4,1c0.1-0.1,1.6,1,1.9,1.4c-0.4-0.3-0.7-0.6-0.9-0.7c0.2,0.1,0,0.1,0.2,0.2
			c0.2,0.1,0.7,0.5,0.6,0.4c0.2,0.2,0.5,0.4,0.7,0.6c-0.1-0.2,0.4,0.1,0.4,0.2c-0.1-0.1-0.2-0.2-0.2-0.1c0.5,0.5,1,1,1.5,1.4
			c0.5,0.5,1,0.9,1.4,1.4c0.2,0.2,0-0.2,0.2,0c0.3,0.6,1.3,1.2,1.8,2c0,0,0-0.1,0.1,0c0.1,0.2,0.8,1,0.8,0.9c-0.8-1-1.8-2-2.5-2.8
			c0-0.1-0.1-0.2,0.1-0.1c-0.4-0.3-0.9-0.7-1.2-1.1c0,0.1-0.3-0.1-0.5-0.4c0,0,0.1,0.1,0.1,0c-0.1-0.1-0.2-0.2-0.3-0.2
			c0,0,0.1,0,0.1,0c-0.3-0.2-0.4-0.5-0.6-0.5c0.1,0.1,0.2,0.2,0.3,0.3c-0.2-0.2-0.2-0.2-0.4-0.3c0.2,0-0.2-0.3-0.1-0.3
			c-0.4-0.2-0.5-0.3-1-0.8c0,0.1-0.1,0.1-0.2-0.1c0.3,0.1-0.6-0.7-0.9-0.8c0,0,0.1,0,0.1,0c-0.7-0.5-1.3-1-1.8-1.5
			c0,0.2-0.7-0.4-0.9-0.6c0.1,0,0.1,0,0.2,0.1c-0.2,0,0.4,0.4,0.4,0.3c-0.6-0.4-0.4-0.4-0.5-0.5C74.6,12.1,74.6,12,74.7,12.3z"/>
		<path class="st3" d="M84.5,21.4C84.5,21.4,84.5,21.4,84.5,21.4c0.1,0.1,0.2,0.3,0.3,0.4C84.7,21.8,84.6,21.6,84.5,21.4z"/>
		<path class="st3" d="M74,17.2c0.3,0.3,0.4,0.2,0.6,0.3C75,17.7,74,17.1,74,17.2z"/>
		<path class="st3" d="M75.2,15c0,0-0.4-0.1-0.1,0c0.4,0.2,0.8,0.6,1.2,1c0.1,0-0.1-0.2,0-0.2c0.1,0.2,0.5,0.5,0.7,0.5
			C76.2,15.8,75.8,15.5,75.2,15z"/>
		<path class="st3" d="M75.7,20.6c-0.1-0.2-0.6-0.7-0.5-0.5c0.1,0.1,0.3,0.3,0.3,0.4c-0.4-0.4-0.5-0.3-0.9-0.7
			C74.6,20,75.5,20.5,75.7,20.6z"/>
		<path class="st3" d="M79,15c0.1-0.1,0.3,0.3,0.5,0.3c-0.2-0.2-0.2-0.2-0.3-0.3c-0.2,0-1-0.9-1.3-1C78.4,14.4,78.9,14.7,79,15z"/>
		<path class="st3" d="M78.7,14.7c-0.1-0.1-0.3-0.2-0.6-0.5l0,0.1c0.3,0.2,0.7,0.6,0.7,0.5C78.5,14.6,79,14.9,78.7,14.7z"/>
		<path class="st3" d="M77.4,17.3c0.3,0.3,0.2,0.1,0.4,0.2c0.2,0.2,0.3,0.4,0.5,0.5c-0.2-0.2-0.1-0.2-0.2-0.3
			c-0.1,0-0.4-0.4-0.6-0.4C77.8,17.6,77.3,17.2,77.4,17.3z"/>
		<path class="st3" d="M77.1,21.1c0-0.1-0.3-0.4-0.4-0.5c-0.1,0,0.2,0.3,0.1,0.3L77.1,21.1z"/>
		<path class="st3" d="M79,18.6c0.1,0.2,0.7,0.7,0.6,0.8c-0.1,0-0.2-0.3-0.4-0.3c0.5,0.4,1,1,1.3,1.2c-0.1,0,0.1,0.2,0,0.2
			c0.2,0.2,0.2,0.2,0.4,0.3c0-0.3-0.2-0.4-0.1-0.5c-0.4-0.4-0.5-0.4-0.7-0.7C80,19.7,79.2,18.7,79,18.6z M80.4,20.1
			c0.2,0.3-0.5-0.3-0.6-0.6C80,19.6,80.2,20,80.4,20.1z"/>
		<path class="st3" d="M82.2,18.1c0.3,0.3,0.4,0.5,0.7,0.8c-0.1-0.2,0.5,0.6,0.6,0.6C83.3,19,82.6,18.4,82.2,18.1z"/>
		<path class="st3" d="M81.3,20.9c-0.1,0,0,0.2-0.3,0c0.4,0.4,0.3,0.2,0.6,0.5c-0.1,0-0.4-0.2,0,0.2c0.1-0.1,0.2,0,0.6,0.4
			c-0.3-0.1,0.5,0.7,0.7,0.9c0,0-0.2-0.1,0,0.2c0-0.1,0.4,0.5,0.4,0.3c-0.1-0.2-0.3-0.2-0.3-0.4c0.4,0.3,1,1.1,1.2,1.4
			c0.3,0.1-0.8-1.1-1.1-1.5l0,0c0.2,0.3,0.3,0.2,0.4,0.4c0.1,0.2,0.2,0.3,0.4,0.5c0.1,0-0.3-0.4-0.4-0.6c-0.2-0.2-0.3-0.2-0.5-0.5
			c-0.1-0.3-0.5-0.6-0.7-1c0,0.1-0.1,0-0.3-0.2c0,0,0-0.1-0.1-0.1c0.1,0.2,0.2,0.2,0.3,0.2c-0.4-0.4-0.5-0.6-0.6-0.8
			c0.1,0.2-0.3-0.3-0.3-0.2c0.1,0.2,0.7,0.6,0.5,0.6C81.5,21.1,81.5,21.1,81.3,20.9z"/>
		<path class="st3" d="M84.8,19.6c0.1,0.2,0.6,0.7,0.3,0.2c0.2,0.2,0.5,0.7,0.6,0.7C85.2,20,85,19.7,85.4,20
			c-0.1-0.2-0.8-0.9-0.7-0.9c-0.3-0.2-0.4-0.4-0.8-0.7c0.3,0.4,0.9,0.9,1.1,1.3C85.1,19.9,84.8,19.4,84.8,19.6z"/>
		<path class="st3" d="M83.7,22.5c0.2,0.1,0.4,0.5,0.7,0.9c-0.2-0.3,0-0.2-0.1-0.3C84.2,23.2,83.7,22.3,83.7,22.5z"/>
		<path class="st3" d="M88.5,17.4c0.9,0.9,1.2,1.6,1.7,2.2C89.8,19,89,17.9,88.5,17.4z"/>
		<path class="st3" d="M87.3,21.8c-0.1,0.1-0.6-0.5-0.8-0.6c0.5,0.5,0.5,0.7,0.7,1C87.2,22,87.4,22,87.3,21.8z"/>
		<path class="st3" d="M87.4,21.8c-0.2-0.3-0.8-0.8-0.6-0.7C87.2,21.5,87.3,21.8,87.4,21.8z"/>
		<path class="st3" d="M85.4,24c-0.1-0.2,0.4,0.5,0.4,0.3C85.6,24,85.1,23.6,85.4,24z"/>
		<path class="st3" d="M85.9,24.3c-0.4-0.5-0.2-0.4-0.5-0.8c-0.1,0,0.2,0.3,0.1,0.3C85.6,24,85.9,24.4,85.9,24.3z"/>
		<path class="st3" d="M86.7,22.3c-0.4-0.6-0.3,0-0.1,0.1C86.2,22,86.7,22.4,86.7,22.3z"/>
		<path class="st3" d="M87,22.3L87,22.3c0.2,0.1,0.3,0.3,0.4,0.3c-0.1-0.1-0.6-0.8-0.4-0.5C87.3,22.4,86.7,21.9,87,22.3z"/>
		<path class="st3" d="M88.9,19c0.1,0.1,0.2,0.3,0.2,0.4l0.6,0.7C89.9,20.2,88.7,18.6,88.9,19z"/>
		<path class="st3" d="M87.6,23.1c0,0.2,0.4,0.7,0.3,0.8c0,0,0.2,0.3,0.2,0.1C88,23.9,88,23.8,88,23.8c0,0.1,0.1,0.1,0,0
			C87.9,23.8,87.8,23.4,87.6,23.1z"/>
		<path class="st3" d="M38.4,5.5c0.1-0.1-0.3,0-0.3-0.1c0.4-0.1,0.5,0,0.8-0.1c0.1,0,0.4-0.1,0.1-0.1c-0.2,0.1-0.7,0.1-1.1,0.1
			c0.1,0-0.1,0.1-0.2,0.1C38.2,5.3,37.6,5.6,38.4,5.5z"/>
		<path class="st3" d="M71.7,22.1C71.7,22.2,71.7,22.2,71.7,22.1C71.7,22.2,71.7,22.2,71.7,22.1C71.7,22.2,71.7,22.2,71.7,22.1
			C71.6,22.3,71.9,22.4,71.7,22.1c0.2,0.2,0.3,0.3,0.4,0.3c0,0.1-0.2,0-0.1,0.1c0,0.1,0.1,0.1,0.1,0.1c0,0,0,0,0-0.1
			c0,0,0,0.1,0,0.1c0,0,0.1,0,0.1,0.1c0,0,0.1,0.1,0.1,0.1c0,0,0-0.1,0-0.1c0,0,0,0,0,0c0.1-0.1-0.3-0.5-0.5-0.6
			c-0.1-0.2-0.3-0.5-0.6-0.7C71.4,21.7,71.5,22,71.7,22.1C71.7,22.1,71.7,22.1,71.7,22.1z"/>
		<path class="st3" d="M69.2,20.2c0,0,0.1,0,0.1,0.1c0,0,0,0,0.1,0c0-0.2-0.1-0.4-0.3-0.3C69.1,20.1,69.2,20.1,69.2,20.2z"/>
		<path class="st3" d="M71,21.2c-0.1-0.1-0.1-0.1-0.2-0.2c0,0,0,0,0,0.1C70.8,21.1,70.9,21.2,71,21.2z"/>
		<path class="st3" d="M63.1,16.3c0.1,0,0.1,0.1,0.2,0.1c0,0,0,0,0,0C63.3,16.3,63.1,16.2,63.1,16.3z"/>
		<path class="st3" d="M72.6,22.9C72.6,22.9,72.6,22.9,72.6,22.9c-0.1,0-0.1,0-0.2,0C72.6,23,72.7,23,72.6,22.9z"/>
		<path class="st3" d="M70.6,21.4c0.1,0.1,0.2,0.2,0.3,0.3C71,21.5,70.8,21.4,70.6,21.4z"/>
		<path class="st3" d="M66.3,18.2c-0.1-0.1-0.2-0.3-0.3-0.2c0.1,0,0.1,0.1,0.2,0.1C66.2,18.1,66.3,18.2,66.3,18.2z"/>
		<path class="st3" d="M66.1,17.7c0.2,0.2,0.4,0.4,0.6,0.7c0.1,0.1,0.1-0.1,0-0.2c0.4,0,0.3,0.3,0.4,0.4c0,0,0.1,0,0.1,0.1
			c0,0,0,0,0,0.1c0.1,0-0.1-0.2,0.1-0.3c0.3,0.2,0.1,0.2,0.5,0.3c0,0.1-0.1,0.1-0.1,0.2c0.1,0.1,0.2,0.2,0.3,0.2
			c0.1,0,0.1-0.1,0.2-0.2c0.3,0.1,0.1,0.3,0.1,0.4c0,0,0.1,0.1,0.1,0.1c0.1-0.1,0.3-0.2,0.6,0.1c-0.2,0-0.1,0.1-0.1,0.2
			c0.2,0,0.3,0,0.4-0.1c-0.4-0.3-0.8-0.7-1.1-0.8c0-0.1-0.7-0.4-0.9-0.6c0,0,0,0-0.2-0.1c-0.7-0.5-1.4-0.9-2.1-1.3
			c-0.1,0-0.1-0.1-0.2-0.1c-0.3-0.2-0.6-0.3-0.9-0.5c-0.2,0-0.4-0.1-0.5-0.3c0,0,0,0,0,0c-0.1,0-0.1-0.1-0.2-0.1
			c0,0.1-0.2,0-0.4-0.1c0,0,0,0,0,0c-0.1,0-0.2-0.1-0.2-0.1c-0.1-0.1-0.2-0.1-0.3-0.1c0,0,0,0,0,0c0.2,0.1,0.4,0.2,0.5,0.4
			c0.1,0,0.2,0,0.2,0c0.1,0.1,0,0.1,0,0.1c0,0,0,0,0.1,0c0,0,0-0.1,0.1,0c0.1,0.1,0.2,0.1,0.2,0.2c0,0,0,0,0,0
			c0.1,0.1,0.1,0.2,0.2,0.2c0.5,0.2,1,0.5,1.4,0.8c0,0,0,0,0,0C65.2,17.5,65.9,17.8,66.1,17.7z"/>
		<path class="st3" d="M81.2,16.1l0.5,0.4c0.2,0.1-0.1-0.2,0.2,0c0.2,0.2,0.2,0.2,0.1,0.3c0.3,0.2,0.7,0.6,0.8,0.6
			c-0.6-0.6-0.8-0.9-1.5-1.4C81.3,16.1,81.3,16.1,81.2,16.1z"/>
		<path class="st3" d="M83,20.1c-0.1-0.1-0.2-0.2-0.2-0.2c0.6,0.6,0.3,0.5,0.7,1c0.1,0,0-0.2-0.1-0.4C83.3,20.4,83,20,83,20.1
			C83,20.1,83.1,20.2,83,20.1z"/>
		<path class="st3" d="M87.1,25.1c0.2,0.2,0.5,0.5,0.6,0.4c-0.2-0.4-0.2-0.1-0.4-0.3c-0.1-0.4-0.5-0.7-0.7-0.9
			c-0.1-0.1-0.1-0.2-0.1-0.2c0.1,0,0.4,0.5,0.3,0.3c-0.5-0.7-0.6-0.8-1-1.3c0.3,0.5-0.3-0.1-0.1,0.2c0.2,0.1,0.3,0.6,0.5,0.7
			c-0.1-0.2,0.4,0.3,0.6,0.7c0.2,0.2,0-0.2,0.1,0C87.3,25.1,87.3,25.3,87.1,25.1z"/>
		<path class="st3" d="M87.9,25c0-0.3-0.9-1.5-1.5-2.1c0.1,0.1,0.2,0.4,0,0.2c-0.3-0.5-0.9-1.1-1.3-1.6c0.4,0.6,1,1.4,1.4,1.7
			c0.1,0.2,0.2,0.4,0.5,0.6c0,0-0.1,0-0.1,0c0.3,0.4,0.7,0.9,0.9,1C87.8,24.7,87.8,24.8,87.9,25z"/>
	</g>
</g>
</svg>
