<?xml version="1.0" encoding="utf-8"?>
<!-- Generator: Adobe Illustrator 27.4.1, SVG Export Plug-In . SVG Version: 6.00 Build 0)  -->
<svg version="1.1" xmlns="http://www.w3.org/2000/svg" xmlns:xlink="http://www.w3.org/1999/xlink" x="0px" y="0px"
	 viewBox="0 0 141.6 7.5" style="enable-background:new 0 0 141.6 7.5;" xml:space="preserve">
<style type="text/css">
	.st0{display:none;}
	.st1{display:inline;fill:#F5F4EB;}
	.st2{fill:#231F33;}
	.st3{fill:#0A0931;}
	.st4{fill-rule:evenodd;clip-rule:evenodd;fill:#231F33;}
</style>
<g id="BACKGROUND_1_" class="st0">
	<rect x="-43.3" y="-35.9" class="st1" width="500" height="500"/>
</g>
<g id="OBJECTS">
	<g>
		<path class="st3" d="M156.5,31.6c-0.5,0-1.1,0.1-1.5-0.4c-0.1-0.1-0.3-0.2-0.5-0.3c0.2-0.1,0.3-0.2,0.5-0.2c0.2-0.1,0.2-0.2,0-0.3
			c-0.5-0.1-0.6-0.4-0.6-0.8c-0.1-1-0.5-1.4-1.6-1.6c0-0.2-0.2-0.3-0.4-0.4c-0.2-0.1-0.4-0.3-0.6-0.4c-0.1-0.1-0.1-0.2,0-0.3
			c0.1,0,0.1-0.1,0.2-0.1c0.2-0.1,0.5-0.1,0.7-0.2c-0.2-0.4-0.5-0.2-0.8-0.2c-0.2,0-0.4-0.1-0.5-0.1c-0.1,0-0.2-0.5,0-0.5
			c0.2-0.1,0.4-0.2,0.5-0.2c0.4,0,0.6-0.2,0.6-0.6c0-0.3,0.1-0.4,0.4-0.6c0.5-0.3,1.1-0.5,1.6-0.4c0-0.2,0.2-0.3,0.3-0.4
			c0.4-0.2,0.4-0.3,0.2-0.5c-0.3-0.2-0.5-0.4-0.9-0.4c-0.2,0-0.5-0.2-0.4-0.3c0.1-0.7-0.3-0.9-0.8-1.1c-0.4-0.2-0.3-0.9-0.8-1
			c0-0.1,0.1-0.3,0.1-0.3c0.3-0.1,0.6-0.1,1-0.1c0.3,0,0.5-0.2,0.5-0.5c0-0.4,0.1-0.8-0.2-1.1c-0.2-0.2-0.3-0.6-0.5-0.8
			c-0.2-0.3-0.1-0.5,0.1-0.7c0.1-0.1,0.1-0.2,0-0.3c0-0.1-0.5-0.1-0.5,0c-0.1,0.6-0.6,0.6-0.9,0.9c-0.2,0.2-0.3,0.1-0.5-0.1
			c-0.3-0.2-0.5-0.5-0.2-0.9c0.4-0.4,0.2-0.9,0.2-1.3c0-0.2-0.2-0.4-0.4-0.4c-0.3,0-0.5,0-0.8,0c0-0.3,0-0.5,0-0.8
			c-0.3,0-0.6,0-1-0.1c-0.2,0-0.2-0.1-0.1-0.3c0.1-0.1,0.3-0.4,0-0.4c-0.6-0.1-0.6-0.4-0.6-0.8c-0.2,0-0.4,0-0.6,0
			c-0.2,0-0.4-0.1-0.5-0.2c0.2-0.1,0.3-0.2,0.5-0.3c0.1,0,0.1-0.1,0.1-0.1c0,0,0-0.1-0.1-0.1c-0.1,0-0.2-0.1-0.4-0.1
			c-0.3,0-0.7,0-1,0c-0.2,0-0.4-0.1-0.4-0.3c-0.1-0.3,0-0.8,0.3-0.8c0.4-0.1,0.6-0.3,0.4-0.7c-0.2-0.3-0.3-0.6-0.3-0.9
			c0-0.1-0.1-0.2-0.1-0.4c-0.2,0.1-0.4,0.2-0.4,0.4c-0.1,0.3-0.2,0.6-0.2,0.9c0,0.1-0.1,0.1-0.1,0.1c0,0-0.1-0.1-0.1-0.1
			c-0.1-0.5-0.6-0.9-0.5-1.4c0-0.3-0.2-0.4-0.3-0.2c-0.4,0.4-1,0.7-0.8,1.5c0,0.1-0.2,0.3-0.3,0.5c-0.3,0.3-0.7,0.3-0.8,0
			c0-0.1,0-0.1-0.1-0.2c-0.3-0.5-0.6-1-0.1-1.6c0.2-0.3-0.1-0.2-0.3-0.3c-0.6-0.3-0.5-0.3-0.4-1.1c0.1-0.5-0.2-1-0.5-1.2
			c-0.4,0.3-0.7,0.1-0.9-0.2c-0.1-0.1-0.3-0.3-0.5-0.1c-0.2,0.2-0.3,0-0.5-0.1c-0.2-0.1-0.3,0.1-0.5,0.2c-0.2,0.1-0.4,0.1-0.5-0.1
			c-0.1-0.1-0.3-0.2-0.5,0c-0.2,0.2-0.4,0.4-0.6,0.5c-0.2,0.2-0.3,0.4-0.6,0.4c-0.6,0-1.2-0.1-1.8-0.1c-0.2,0-0.2-0.2-0.1-0.3
			c0-0.1,0.1-0.3,0.2-0.3c0.2-0.1,0.5-0.1,0.6,0c0.5,0.4,0.9,0.1,1.4-0.1c0.1,0,0.1-0.1,0.1-0.1c-0.1,0-0.1-0.1-0.2-0.1
			c-1.2-0.3-2.5,0.2-3.7-0.3c-0.4,0.5-0.8,0.2-1.2-0.1c-0.1-0.1-0.3,0-0.4,0c-0.9,0-1.7,0-2.6,0c-0.4,0-0.6-0.1-0.9-0.3
			c-0.3-0.2-0.5-0.1-0.6,0.2c-0.1,0.4-0.3,0.6-0.6,0.8c-0.1,0.1-0.3,0.1-0.4,0.1c-0.3-0.1-0.1-0.3,0-0.4c0.2-0.5,0.1-0.7-0.3-0.7
			c-0.5,0-0.9,0-1.4,0c-0.5,0-1,0.1-1.4,0c-1.1-0.4-2.2-0.8-3.4-0.8c-0.6-0.5-1.3-0.3-1.9-0.4c-0.5,0-0.9,0-1.4,0
			c-0.3,0-0.6-0.3-0.9-0.3c-0.4-0.1-0.6,0.4-1.1,0.4c-0.6-0.1-1.2,0-1.8,0c-0.3,0-0.5,0-0.7,0.2c-0.8,0.6-1.8,0.7-2.8,0.6
			c0-0.1,0-0.2,0-0.4c0.3,0,0.7,0,0.9-0.3c0.3-0.4,0.7-0.6,1.2-0.5c0.1,0,0.1-0.2,0.2-0.2c0,0-0.1-0.1-0.1-0.1
			c-0.8,0.2-1.6-0.7-2.4-0.1c-0.4-0.5-0.8-0.2-1.2,0c-0.5-0.5-1.1-0.2-1.7-0.3c-0.4-0.1-0.8,0.1-1,0.4c-0.4,0.5-0.9,0.5-1.4,0.2
			c-0.3-0.3-0.8-0.3-1.1,0c-0.4,0.4-0.7,0.1-1-0.1c-0.2-0.2-0.5-0.1-0.6,0.2c-0.1,0.4-0.4,0.6-0.7,0.3c-0.5-0.3-0.9-0.3-1.5,0
			c-0.2,0.1-0.5-0.3-0.8,0c-0.1,0.1-0.2-0.2-0.3-0.4c-0.1-0.2-0.2-0.3-0.5-0.3c-0.3,0-0.5,0-0.7,0.2c-0.2,0.2-0.5,0.2-0.7,0
			C95,2,94.5,2.2,94,2.8c-0.2,0.3-0.4,0.2-0.6,0c-0.2-0.2-0.5-0.2-0.7-0.3C92.2,2,91.5,2.5,91,2c-0.3,0.1-0.7,0.2-1,0.4
			c-0.3,0.2-0.6,0.3-0.9,0c-0.4-0.3-0.9-0.1-1.3-0.2C86.9,3,85.9,2.5,85,2.6c-0.9-0.6-1.9-0.3-2.9-0.4c-0.4-0.1-0.7,0.5-1.1,0.3
			c-0.5-0.2-0.9-0.5-1.4,0c-0.3-0.3-0.7-0.3-1.1-0.2c-0.3,0.6-0.8-0.2-1.1,0.2c-0.1,0.2-0.4,0.1-0.5,0c-0.1,0-1.4,0-1.5,0
			c-0.2,0.1-0.4,0.1-0.5,0c-0.3-0.4-0.6,0.1-0.8,0.1c-0.4,0-0.7-0.2-1.1-0.3c-0.3-0.1-0.5,0.1-0.7,0.3C72,2.7,71.8,3,71.7,3
			c-0.1,0-0.3-0.2-0.5-0.3c-0.3-0.3-0.6-0.5-1-0.1c-0.1,0.1-0.2,0.1-0.3,0c-0.3-0.3-0.4,0.1-0.7,0.1c-0.3,0-0.5-0.3-0.7-0.3
			c-0.8,0-1.7-0.3-2.5,0.3c-0.2,0.1-0.5,0-0.8,0c-0.7,0.2-1.3-0.5-2-0.1c-1.5-0.4-1.5-0.4-3.2,0.1c-0.4,0.1-0.9,0.1-1.2-0.1
			c-0.6-0.4-1.3-0.2-1.9-0.2c-0.5,0.5-1.1,0.3-1.7,0.3c-0.2,0-0.4,0.1-0.5,0.2c-0.4,0.3-0.7,0.2-0.9-0.3c-0.2-0.6-0.8-0.2-1.2-0.5
			c-0.4-0.4-1-0.3-1.5-0.1c-0.6,0.3-1.2,0.6-1.7,0.9c-0.2,0.1-0.5,0.1-0.7,0.1c0-0.2,0-0.4,0-0.6c0-0.2-0.1-0.4-0.2-0.5
			c-0.3-0.2-0.7-0.4-1.1-0.5c-0.2-0.1-0.6,0-0.7,0.2c-0.1,0.1,0.1,0.4,0.1,0.5c0,0.1,0.2,0.2,0.2,0.3c0,0.1,0,0.3-0.1,0.3
			C46.8,3,46.6,3.1,46.5,3c-0.2-0.1-0.4-0.3-0.7-0.3c-0.5-0.1-1.1,0.1-1.6-0.1c-0.6-0.2-1.1-0.4-1.7-0.4c-0.1,0-0.1-0.1-0.2-0.1
			c0,0-0.1-0.1-0.1-0.1c0-0.1,0.1-0.1,0.1-0.1c0.1,0,0.3,0,0.4-0.1c0.2-0.3-0.1-0.2-0.2-0.3c-0.1-0.1-0.2-0.1-0.3-0.2
			c-0.3-0.3-0.6-0.3-0.9,0c-0.2,0.2-0.3-0.1-0.5-0.1C40.5,1,40.1,1,39.8,1.3c-0.2,0.1-0.3,0.3-0.4,0.4C39,2,38.8,1.9,38.6,1.5
			c-0.3-0.5-0.5-0.5-0.7-0.3c-0.5,0.6-1.1,0.7-1.8,0.7c-0.3,0-0.5,0-0.8,0c-0.2,0-0.3-0.2-0.3-0.4c0-0.1-0.1-0.2-0.2-0.3
			c-0.1,0.1-0.2,0.2-0.2,0.3c0,0.3,0,0.7-0.1,1c-0.2,0.4-0.7,0.2-1.1,0.2c-0.5,0-1,0.1-1.4-0.1c-0.3-0.1-0.5-0.2-0.8,0
			c-0.2,0.2-0.6,0.2-0.6,0.6c0,0-0.1,0.1-0.1,0.1c-0.1-0.1-0.2-0.1-0.2-0.2c0-0.1,0-0.3,0-0.4c0-0.1-0.1-0.2-0.1-0.4
			c-0.1,0-0.2,0.1-0.3,0.1c-0.3,0.3-0.6,0.5-0.9,0.8c-0.1,0.1-0.2,0-0.3-0.1c0-0.1,0-0.2,0-0.2c0.2-0.3,0.4-0.5,0.6-0.8
			c0.2-0.3,0-0.3-0.2-0.4c-0.4,0-0.4-0.3-0.5-0.5c-0.1-0.3-0.3-0.1-0.3,0.1c-0.1,0.3-0.2,0.5-0.5,0.5c-0.5,0-0.9,0-1.4,0.1
			c-0.1,0-0.1,0.2,0,0.3c0.1,0.1,0,0.2,0.1,0.3c-0.1,0-0.3,0.1-0.4,0.1c-0.5-0.2-0.5-0.4-0.4-1c0-0.2,0.1-0.4,0-0.6
			c0-0.1-0.1-0.2-0.2-0.3c0,0-0.1,0.1-0.1,0.1c0,0.1,0,0.1-0.1,0.2c-0.1,0.2-0.3,0.6-0.4,0.6c-0.6,0.1-0.7,0.7-1,1.1
			c-0.2,0.2-0.2,0.2-0.6,0c-0.1,0-0.2-0.1-0.4-0.1c-0.3,0-0.4,0.4-0.7,0.2c-0.3-0.2-0.6-0.2-0.9-0.3c-0.2,0-0.4-0.2-0.3-0.4
			c0-0.2,0-0.4,0-0.6c0-0.3,0-0.5-0.4-0.6c-0.3,0-0.7-0.1-0.8,0.4c0,0.1,0,0.5-0.3,0.2C19,1.4,18.5,1.5,18,1.5
			c-0.2,0-0.3,0.2-0.3,0.4c-0.5,0-0.4-0.4-0.4-0.7c0-0.2-0.1-0.4-0.3-0.4c-0.2,0-0.4,0.1-0.5,0.2c-0.1,0.1-0.2,0.2-0.3,0.3
			c-0.1,0.6-0.5,0.7-1,0.7c-0.2,0-0.3,0.2-0.3,0.4c0,0.2,0.2,0.3,0.4,0.3c0.1,0,0.3,0,0.4,0c0.1,0,0.2,0.1,0.3,0.2
			C15.9,2.9,15.8,3,15.7,3c-0.6,0-1.2,0.1-1.8,0.1c-0.5,0.5-1.1,0.3-1.7,0.4c-0.1,0-0.3,0-0.4,0.1c-0.3,0.2-0.5,0.3-0.9,0.3
			c-0.3,0-0.7,0-0.9-0.3C9.8,3.4,9.5,4,9.2,3.6C8.9,3.3,8.6,3.7,8.4,3.7C8,3.8,7.7,3.4,7.3,3.5C7,3.6,6.9,3.8,6.8,4.1
			c-0.1,0.2-0.2,0.2-0.3,0C6.5,3.6,6.2,3.4,5.7,3.5c-0.3,0-0.5,0-0.8,0c-0.5-0.1-0.8,0.2-1,0.7C3.7,4.7,3.2,4.8,2.6,4.6
			C2.4,4.5,2.2,4.4,2.1,4.3c-0.2,0-0.4,0-0.2,0.3C2,4.8,2,5,1.8,5.1C1.3,5.1,1.1,5.4,0.9,5.8C0.6,6.2,0.4,6.7,0.2,7.2
			C0,7.5-0.3,7.6-0.7,7.3c-0.1-0.1-0.3-0.2-0.5,0C-1.6,8-1.6,8-2.3,7.7C-2.6,7.6-2.8,7.4-3,7.6c-0.3,0.2-0.6,0.3-0.9,0.4
			c-0.5,0.2-0.9,0.5-1,1.1c-0.1,0.6-0.7,0.9-0.6,1.6c0.7,0,1.3,0,1.2,1c0,0.1,0.3,0.2,0.5,0.3c0.2,0.1,0.3,0.3,0.2,0.5
			c-0.1,0.2-0.3,0.3-0.4,0.3c-0.4-0.2-0.6-0.3-1,0c-0.3,0.2-0.7,0.5-1.2,0.2c-0.6,0.5-1.4,0.2-2.1,0.3c-0.6,0-0.7,0-0.6,0.9
			c0,0.1,0.1,0.2-0.1,0.3c-0.1,0.1-0.3,0.3-0.4,0.4c-0.3,0.3-0.2,0.5,0.1,0.8c0.6,0.4,0.6,0.6,0.1,1c-0.1,0.1-0.2,0.2-0.3,0.2
			c-0.1,0-0.2-0.1-0.4-0.1c0-0.1,0-0.2,0.1-0.3c0-0.1,0.1-0.1,0.1-0.2c-0.2-0.2-0.4-0.4-0.6-0.6c-0.1,0.2-0.1,0.4-0.2,0.5
			c-0.2,0.3-0.5,0.3-0.7-0.1c-0.1-0.2-0.2-0.4-0.3-0.4c-0.2-0.1-0.4-0.1-0.6,0c-0.5,0.1-0.7,0.6-0.7,1.1c0,0.4,0.3,0.5,0.7,0.6
			c0.8,0.2,1.6,0.7,2.4,0c0.4,0.4,0.8,0.3,1.2,0c0,0,0.1,0.1,0.1,0.1c0.1,0.8,0.5,0.6,1,0.3c0.2-0.1,0.6,0.2,0.8,0.3
			c0.1,0,0.1,0.1,0.1,0.1c0,0-0.1,0.1-0.1,0.1c-0.4,0.1-0.8,0.2-1.3,0.4c-0.4-0.5-1-0.3-1.5-0.3c-0.6,0.1-1-0.3-1.5-0.4
			c-0.1,0-0.2,0.1-0.3,0.2c0.3,0.3,0.2,0.5,0,0.8c-0.1,0.1,0,0.4,0.2,0.5c0.1,0,0.1,0,0.2,0c0.1,0,0.3,0,0.4,0
			c0.1,0,0.2,0.1,0.3,0.2c-0.1,0.1-0.2,0.2-0.3,0.2c-0.3,0-0.5,0.2-0.4,0.5c0,0.2,0.3,0.3,0.5,0.3c0.2,0,0.4,0,0.6,0
			c0.2,0,0.4,0,0.4,0.3c0,0.1-0.2,0.1-0.3,0.2c-0.2,0.1-0.4,0.1-0.1,0.4c0.3,0.3,0.6,0.6,1,0.2c0.1-0.1,0.2-0.2,0.3-0.1
			c0.3,0.4,0.7,0.2,1.1,0.3c0.3,0,0.5,0.1,0.6,0.4c0,0.3,0.1,0.6-0.2,0.7c-0.7,0.2-0.7,0.8-1,1.3c0.2,0.1,0.3,0.2,0.5,0.3
			c0.1,0.1,0.2,0.1,0.3-0.1c0.1-0.4,0.2-0.6,0.6-0.2c0.3-0.2,0.5-0.4,0.8-0.6c0,0,0.1,0,0.2-0.1c0,0.1,0.1,0.3,0.1,0.4
			c-0.1,0.4-0.3,0.7-0.5,1c-0.2,0.4-0.5,0.5-0.9,0.2C-7.2,25-7.7,25-7.9,25.3c-0.2,0.4,0.2,0.4,0.4,0.7c0.4,0.4,0.7,1,1.1,1.5
			c0.3,0,0.5,0,0.8,0c-0.1,0.2-0.2,0.3-0.2,0.5c-0.1,0.5,0.3,0.3,0.5,0.4c0.3,0.2,0.6,0.3,0.8,0.5c0.1,0.1,0.1,0.2,0.1,0.3
			c0,0.1-0.1,0.2-0.2,0.3c0,0-0.1,0-0.2,0c-0.3,0-0.6,0-0.7,0.2c-0.1,0.4,0.2,0.6,0.4,0.8c0.2,0.2,0.4,0.5,0.8,0.6
			c0.5,0.2,0.8,0.6,1.1,1c-0.1,0.7,0.4,1.1,0.8,1.5c0.4,0.3,0.5,0.8,0.4,1.2c-0.1,0.8,0.4,1.3,0.5,2c0,0.4,0.6,0.7,1.1,0.6
			c0.2-0.6,0.6-1.1,1.1-1.1c1-0.2,1.8-0.8,2.8-0.8c0,0.2,0,0.4,0.1,0.5c0.1,0.1,0.3,0.2,0.5,0.2c0.4,0,0.8,0,1.2,0
			c0.1,0,0.3,0,0.4,0c0.1,0,0.1,0.1,0.2,0.1c-0.1,0.1-0.2,0.2-0.2,0.2c-0.8-0.1-1.5,0.4-2.3,0.5c-0.3,0-0.2,1-0.9,0.4
			c-0.6,0.4-1.3,0.6-2,0.8c-0.3,0.1-0.6,0.4-0.6,0.7c0,0.1,0,0.3,0,0.4c-0.2,0.6-0.6,0.9-1.1,0.6c-0.6-0.3-1.4,0.1-1.9-0.5
			C-3,39.8-3.1,39.9-3.1,40c0,0.2-0.2,0.4-0.4,0.4c-0.3,0-0.5,0-0.8,0c-0.7-0.1-1.3,0-1.3,1c0,0.1-0.3,0.2-0.5,0.3
			c-0.2,0.1-0.2,0.2-0.1,0.3c0,0,0.1,0.1,0.2,0.1c0.3,0,0.5,0.1,0.8-0.1c0.2-0.2,0.5-0.4,0.8-0.6c0.2-0.1,0.5,0.1,0.5,0.4
			c0,0.1,0,0.3,0,0.4c-0.3,0.1-0.6,0.3-0.8,0.4c-0.4,0.2-0.4,0.2-0.2,0.8c0.1,0.2,0.3,0.6,0,0.7c-0.5,0.2-0.5,0.8-0.9,0.9
			C-6.5,45-7,45.5-7.2,46.2c-0.1,0.1-0.2,0.1-0.3-0.1c-0.3-0.4-0.4-0.4-0.7-0.1c-0.2,0.2-0.2,0.6,0.1,0.7c0.7,0.1,0.6,0.6,0.5,1
			c0,0.2-0.4,0.3-0.1,0.7c0.3,0.4,0.2,0.7-0.3,0.8c-0.2,0-0.2,0.2-0.1,0.2c0.4,0.1,0.8,0.3,0.6,0.8c-0.2,0.8,0.4,0.8,0.8,1.1
			c0.3,0.2,0.3,0,0.5-0.1c0.1,0,0.3-0.1,0.4-0.1c0.4,0.4,1,0.2,1.4,0.6c0.1,0.1,0.1,0.5,0.2,0.7c0,0.1,0.1,0.1,0.1,0.2
			c0.1-0.1,0.2-0.1,0.2-0.2c0-0.1,0-0.3,0-0.4c0.1-0.3,0.3-0.6,0.5-0.4c0.7,0.4,1.5,0.4,2.1,0.8c0.1,0.1,0.1,0.2,0.1,0.3
			c-0.1,0-0.2,0.1-0.3,0.1c-0.4,0.5-0.9,0.8-1.5,0.7c-0.3,0-0.5,0.1-0.7,0.3c-0.1,0.1-0.1,0.2-0.1,0.3c0,0,0.1,0.1,0.2,0.1
			c0.3,0,0.7,0,1,0c0.7,0,1.3,0,2,0c0.1,0,0.3,0.1,0.3,0.2c0,0.2,0,0.4-0.1,0.5c-0.2,0.2-0.4,0.4-0.6,0.5c-0.3,0.1-0.5,0.4-0.7,0.6
			c-0.1,0.1,0,0.5,0.1,0.5c0.1,0,0.2,0.1,0.4,0.1c0.2,0,0.4,0,0.5,0.1c0.7,0.6,1-0.3,1.6-0.2c0-0.1,0-0.2-0.1-0.3
			c-0.1-0.2-0.3-0.3-0.4-0.4c-0.1-0.1-0.1-0.2,0-0.3c0.1,0,0.3-0.1,0.4,0c0.3,0.2,0.6,0.6,0.9,0.7c0.5,0.1,0.7-0.5,1.1-0.7
			c0,0,0.1,0,0.2,0c0.1,0.6-0.2,1-0.8,1.2c-0.4,0.1-0.3,0.2-0.2,0.5c0.2,0.5,0.4,0.7,1,0.7c0.3,0,0.4,0.3,0.4,0.6
			c0,0.1,0,0.3,0.1,0.4c0.1,0.1,0.2,0.2,0.3,0.2c0.1,0,0.3-0.1,0.3-0.1c0.4-0.5,0.4-0.5,0.7-0.2c0.4,0.5,0.9,0.5,1.4,0.1
			c0.3-0.3,0.6-0.2,0.9,0.1c0.3,0.2,0.6,0.2,0.9,0c0.2-0.1,0.4-0.2,0.7-0.1c0.7,0.4,1.5,0,2.3,0.5c0.3,0.2,0.6-0.3,0.8-0.5
			c0.3-0.3,0.6-0.3,0.9-0.1c0.1,0.1,0.2,0.1,0.3,0c0.8-0.3,1.5-0.5,2.2,0.1c0.2,0.1,0.4,0.1,0.5-0.1c0.3-0.3,1-0.2,1-0.9
			c0.4-0.3,0.9-0.3,1.3-0.1c0.5,0.3,1.1,0.4,1.5,0.9c0.2,0.3,0.6,0.2,0.9,0.1c0.1,0,0.2-0.2,0.3-0.2c1-0.5,1.9-0.8,3-0.2
			c0.3,0.2,0.9,0.2,1.3-0.1c0.4-0.4,0.7-0.1,1,0.2c0.2,0.3,0.4,0.4,0.8,0.1c0.2-0.2,0.6-0.1,1-0.1c0.1,0,0.2-0.1,0.4-0.1
			c0.2-0.1,0-0.6,0.4-0.5c0.2,0.1,0.4,0.3,0.6,0.5c0.1,0.1,0.3,0.2,0.4,0.1c0.4-0.2,0.8-0.2,1.2,0c0.1,0,0.3-0.1,0.3-0.2
			c0.1-0.2,0.1-0.8,0.6-0.3c0.3,0.4,0.7,0.5,1.2,0.5c1.4,0,2.8-0.1,4.2,0c0.5,0,0.9-0.1,1.2-0.5c0.3-0.3,0.7-0.4,1.1-0.2
			c0.4,0.2,0.7,0.3,1.1,0.3c1.5,0,2.9,0,4.4,0c0.2,0,0.4,0,0.6-0.1c0.4-0.3,0.7-0.3,1.1,0c0.2,0.1,0.6,0.2,0.8,0.1
			c0.4-0.2,0.8-0.5,1.2-0.1c1.4-0.5,2.9-0.2,4.3-0.3c0.5,0,1.1,0.1,1.6-0.1c0.8-0.3,1.5-0.6,2.2,0c0,0,0.1-0.1,0.2-0.1
			c0.3-0.2,0.6-0.3,0.9,0c0.2,0.2,0.5,0.2,0.7,0c0.2-0.1,0.5-0.2,0.7-0.2c0.4,0,0.8,0,1.2,0c0.5,0,0.9,0,1.4,0c0.4,0,0.9,0.2,1.2,0
			c0.5-0.4,0.8,0,1.2,0c0.4,0.1,0.6-0.1,0.9-0.3c0.3-0.2,0.6,0.3,0.9,0.2c0.6-0.4,1.2-0.2,1.7-0.3c0.5,0,1,0.1,1.4-0.1
			c0.5-0.2,0.8-0.3,1.2,0c0.5,0.3,1,0.5,1.5-0.1c0.1-0.2,0.5-0.2,0.7-0.1c0.4,0.2,0.8,0,1.2,0c0.4,0,0.8,0.1,1.2,0
			c0.4-0.1,0.9,0.1,1.3-0.3c0.4,0.1,0.6,0.4,1.1,0.3c0.5-0.1,0.3-0.8,0.8-0.8c0.3,0,0.7-0.1,0.9-0.3c0.1-0.1,0.2,0,0.3,0.1
			c0,0.1,0,0.3-0.1,0.4c-0.1,0.1-0.2,0.1-0.3,0.2c-0.1,0.1-0.2,0.1-0.2,0.2c0.1,0.1,0.2,0.1,0.3,0.2c0.4,0.1,0.7-0.3,1.1-0.3
			c0.3,0,0.6,0.2,0.9,0.3c0.4,0,0.2-0.6,0.6-0.6c0.2,0,0.3,0.3,0.5,0.1c0.3-0.2,0.6-0.4,0.9-0.1c0.2,0.2,0.5,0.2,0.7,0.2
			c0.8,0,1.6-0.3,2.3,0.3c0.1,0.1,0.3,0,0.4,0c0.4-0.2,0.8-0.4,1.2-0.7c0.4,0.4,0.8,0.4,1.3,0.3c0.2,0,0.5,0.1,0.6,0
			c0.5-0.4,0.9-0.4,1.4,0c0.1,0.1,0.4-0.1,0.5-0.2c0.2-0.1,0.5-0.3,0.7,0c0.4,0.3,0.7,0.2,1-0.1c0.2-0.2,0.5-0.6,0.8-0.4
			c0.3,0.2,0.5,0.3,0.8,0c0.3-0.3,0.6-0.6,0.9-0.8c0.1-0.1,0.4,0,0.6,0c0.2,0,0.3,0.2,0.4,0.4c0.2,0,0.5,0,0.6,0.1
			c0.4,0.4,0.7,0.2,0.9-0.1c0.1-0.1,0.2-0.2,0.3-0.2c0.1,0.2,0.1,0.3,0.2,0.5c0.1,0.2,0.1,0.4,0.2,0.6c0.1-0.1,0.2-0.1,0.3-0.2
			c0.4-0.5,0.8-0.7,1.3-0.2c0.2,0.1,0.5,0.1,0.8,0.1c0.4,0,0.6-0.1,0.7-0.5c0-0.2,0.2-0.2,0.2-0.1c0.1,0.1,0.1,0.3,0.2,0.4
			c1,1,2.2,0.7,3.4,0.6c0.1,0,0.2-0.1,0.3-0.2c0.2-0.2,0.5-0.5,0.7-0.7c0.2-0.2,0.3-0.1,0.4,0.2c0.2,0.8,0.4,1,1,0.7
			c0.3-0.1,0.5-0.2,0.9,0c0.2,0.1,0.5,0,0.6-0.3c0.1-0.3,0.4-0.5,0.6-0.3c0.3,0.2,0.5,0.3,0.8,0c0.1-0.1,0.4,0,0.5,0.1
			c0.5,0.4,1,0.3,1.4-0.1c0.5-0.4,0.5-0.4,1.1,0.2c0.2,0.2,0.5,0.2,0.7,0.2c0.4,0,0.4-0.2,0.2-0.5c-0.1-0.1-0.1-0.2,0.1-0.3
			c0.1,0,0.1,0,0.2,0c0.1,0.1,0.2,0.1,0.3,0.2c0.4,0.5,0.4,0.6,0.8,0.4c0.2-0.1,0.4-0.2,0.7-0.1c1.3,0.5,2.3,0.5,3.4-0.1
			c0.7-0.4,1.1-0.3,1.5,0.2c0.1,0.1,0.3,0.1,0.3,0.1c0.4-0.3,0.7-0.2,1.1,0.1c0.5-0.4,1.1-0.3,1.7-0.3c2.1,0,4.3-0.1,6.4,0
			c0.7,0,1.3-0.1,1.9-0.5c0.4-0.2,0.6-0.4,0.8,0.2c0,0.2,0.2,0.1,0.3,0c0.4-0.6,0.4-0.6,0.8-0.4c0.4,0.3,0.8,0.2,1.1,0.2
			c0.5,0.1,1.1-0.1,1.5,0.3c0.1,0.1,0.4,0,0.5-0.1c0.1,0,0.1-0.1,0.2-0.1c0.3-0.3,0.5-0.6,0.9-0.2c0.7-0.2,1.6-0.3,1.8-1.3
			c0.1-0.2,0.4-0.4,0.5-0.2c0.4,0.5,0.8,0,1.2,0c0.9,0,1.6-0.4,2.3-1c0.3-0.3,0.7-0.4,1-0.7c0.4-0.5,0.7-0.1,1-0.1
			c0.5,0,1.2-0.8,1.2-1.3c0-0.3-0.1-0.6-0.4-0.6c-0.3,0-0.7,0-1-0.1c-0.2,0-0.2-0.1-0.1-0.3c0.6-0.6-0.1-1.6,0.6-2.2
			c-0.2-0.2-0.3-0.4-0.5-0.6c-0.2-0.3-0.3-0.3,0.2-0.5c0.5-0.1,0.2-0.3,0.1-0.5c-0.1-0.3,0.4-0.6,0.6-0.5c0.4,0.3,0.9,0.2,1.3,0.2
			c0.1,0,0.2-0.1,0.2-0.2c0,0-0.1-0.1-0.1-0.2c-0.2-0.3-0.5-0.4-0.9-0.4c-0.5-0.1-0.8-0.7-0.5-1c0.5-0.5,0.9-1.2,1.6-1.5
			c0.4-0.1,0.4-0.6,0.1-0.7c-0.3-0.1-0.6-0.3-0.9-0.4c-0.4-0.1-0.4-0.2-0.2-0.5c0-0.1,0.1-0.1,0.1-0.2c-0.1-1,0.2-1.8,0.8-2.5
			c0.3-0.4,0.6-0.9,0.4-1.5c-0.1-0.3-0.3-0.7-0.2-0.8c0.1-0.2,0.5-0.4,0.8-0.5c0.8-0.3,1.5-0.9,2.4-0.9c0.2,0,0.2-0.3,0.2-0.5
			c0-0.1-0.1-0.1-0.1-0.2c-0.1-0.2-0.2-0.3,0.1-0.4c0.5-0.1,1.1,0.1,1.6-0.2c0.2-0.1,0.1-0.6,0.4-0.5c0.2,0,0.5,0.2,0.7,0.3
			c0.4,0,0.8,0.1,1.1-0.3c0.1-0.1,0.2-0.2,0.2-0.3C156.7,31.7,156.6,31.6,156.5,31.6z M151.4,20c0.1,0,0.1,0,0.2,0.1
			c0.2,0.1,0.3,0.2,0.5,0.3c0,0,0,0,0,0l0,0c0,0,0,0,0,0c0,0.2-0.1,0.3-0.3,0.4c-0.2,0-0.4-0.1-0.4-0.3
			C151.3,20.3,151.4,20.1,151.4,20z M-8.2,16.6c0,0-0.1-0.1-0.1-0.1c0,0,0-0.1,0.1-0.1c0,0,0.1,0,0.1,0C-8,16.5-8,16.6-8.2,16.6z
			 M-9,20.3c-0.1-0.2-0.1-0.3-0.2-0.5c0,0,0.1-0.1,0.1-0.1c0,0,0.1,0,0.1,0c0,0,0.1,0.1,0.1,0.1c0,0.1,0,0.1,0,0.2
			C-8.8,20.1-8.9,20.2-9,20.3z M-7.5,20.3c-0.2,0-0.4,0-0.6,0c-0.1,0-0.1-0.1-0.2-0.2c0,0,0.1-0.1,0.1-0.1c0.1,0,0.2,0,0.3,0
			c0.1,0,0.2,0,0.3,0c0.1,0,0.2,0.1,0.3,0.2C-7.3,20.2-7.4,20.3-7.5,20.3z M-5.1,14.3c0.6-0.1,0.9,0.4,1.4,0.5c0,0,0.1,0.1,0.1,0.1
			c0,0.1,0.1,0.1,0.1,0.1c0,0,0,0,0,0c0,0-0.1-0.1-0.2,0.1c-0.1,0.1-0.3,0.4-0.4,0.4c-0.4-0.2-0.8-0.4-1.1-0.7
			c-0.1-0.1-0.1-0.2-0.2-0.3C-5.4,14.4-5.3,14.4-5.1,14.3z M-4.1,16.2c-0.1,0.1-0.2,0.1-0.2-0.1c0,0,0.1-0.1,0.1-0.1
			c0,0,0.1,0,0.1,0.1C-4,16.1-4,16.1-4.1,16.2z M-5,27.5c-0.2,0-0.4,0-0.5,0c0,0,0,0,0,0l0,0c0,0,0,0,0,0c0-0.3,0.2-0.4,0.5-0.3
			c0.1,0,0.1,0.1,0.2,0.2C-4.9,27.4-4.9,27.5-5,27.5z M-4.1,23.4c-0.1,0.2-0.3,0.1-0.5,0.1c-0.1,0-0.1-0.1-0.1-0.1
			c0,0,0.1-0.1,0.1-0.1c0.2-0.1,0.3-0.1,0.5,0.1C-4.1,23.3-4.1,23.4-4.1,23.4z M-3.2,17.6c0,0.1-0.1,0.2-0.2,0.3
			c-0.1,0.1-0.3,0-0.4,0.1c-0.6,0.2-0.9-0.3-1.4-0.4c-0.2,0-0.3-0.2-0.1-0.4c0.1-0.1,0.4-0.3,0.4-0.3c0.4,0.4,1,0.2,1.5,0.3
			C-3.2,17.2-3.1,17.3-3.2,17.6z M-2.9,16.6c-0.1,0-0.1-0.1-0.2-0.1c0,0,0.1-0.1,0.1-0.1c0,0,0.1,0.1,0.1,0.1
			C-2.8,16.5-2.9,16.6-2.9,16.6z M-2.9,15.4c0,0-0.1-0.1-0.1-0.1c0,0,0-0.1,0.1-0.1c0,0,0.1,0,0.1,0C-2.8,15.3-2.8,15.4-2.9,15.4z
			 M-2.5,29.8c-0.1,0-0.1-0.1-0.2-0.1c0,0,0.1-0.1,0.1-0.1c0,0,0.1,0.1,0.1,0.1C-2.4,29.8-2.5,29.8-2.5,29.8z M-1.5,9.9
			C-1.5,9.9-1.5,9.9-1.5,9.9C-1.5,9.9-1.5,9.9-1.5,9.9c0,0.2-0.2,0.4-0.4,0.4c-0.3,0-0.6,0-0.9,0.2c-0.3,0.2-0.3,0-0.4-0.2
			c-0.1-0.2-0.1-0.4-0.3-0.5c-0.1-0.1-0.1-0.2,0.1-0.3c0.4-0.1,0.8-0.1,1.1-0.3C-2,9.1-2,9.4-1.9,9.6C-1.9,9.8-1.7,9.9-1.5,9.9
			C-1.6,9.9-1.6,9.9-1.5,9.9C-1.5,9.9-1.5,9.9-1.5,9.9C-1.3,9.3-1,9-0.4,9.1c0.1,0,0.2,0.1,0.3,0.2c0,0,0,0.1-0.1,0.1
			C-0.6,9.5-0.9,10-1.5,9.9z M-1,12.8c0,0,0.1,0,0.1,0c0.1,0.1,0.1,0.2-0.1,0.2c0,0-0.1-0.1-0.1-0.1C-1.1,12.9-1,12.8-1,12.8z
			 M-0.5,34.3c-0.1,0.1-0.2,0.1-0.3,0.1c0,0,0,0-0.1-0.1C-1,34.2-1,34.1-1,34.1c0.1-0.1,0.2-0.3,0.4-0.4c0,0,0.1-0.1,0.2-0.1
			c0,0.1,0.1,0.2,0.1,0.3C-0.4,34.1-0.4,34.2-0.5,34.3z M-0.1,12.2c0,0-0.1-0.1-0.1-0.1c0,0,0-0.1,0.1-0.1c0,0,0.1,0,0.1,0
			C0,12.1,0,12.2-0.1,12.2z M2.5,6.5c0-0.1,0.1-0.1,0.1-0.1C3.2,6.8,3.8,6,4.4,6.3c0.1,0,0.1,0,0.2,0c0.1,0,0.2,0.1,0.2,0.1
			c0,0.1,0,0.2-0.1,0.3C4.5,6.8,4.4,7,4.2,7c-0.3,0.1-0.6,0-1.3,0c0.1,0-0.2,0.1-0.3-0.2C2.5,6.8,2.5,6.6,2.5,6.5z M1.1,10.8
			c0.6-0.2,1-0.6,1.7-0.5c0.2,0,0.4,0,0.6,0c0,0,0,0,0,0c0.2,0,0.4,0,0.6,0c0.7,0,0.9,0.1,0.9,0.4c0,0.5-0.5,0.3-0.7,0.5
			c-0.2,0.2-0.5,0.2-0.7,0.2c-0.3,0-0.7,0-1,0c-0.6,0.1-1.2,0-1.4-0.1C0.8,11.3,0.8,10.8,1.1,10.8z M3.2,13.4
			c-0.1,0.1-0.2,0.1-0.2-0.1c0,0,0.1-0.1,0.1-0.1c0,0,0.1,0,0.1,0C3.2,13.3,3.2,13.3,3.2,13.4z M2.8,14.5c0,0-0.1,0.1-0.1,0.1
			c0,0-0.1-0.1-0.1-0.1c0,0,0.1-0.1,0.1-0.1C2.7,14.4,2.8,14.5,2.8,14.5z M0.3,11c-0.1,0-0.1-0.1-0.2-0.1c0,0,0.1-0.1,0.1-0.1
			c0,0,0.1,0.1,0.1,0.1C0.4,10.9,0.4,10.9,0.3,11z M1.3,33.5c-0.2,0-0.4,0-0.6,0c-0.1,0-0.1-0.1-0.2-0.2c0,0,0.1-0.1,0.1-0.1
			c0.1,0,0.2,0,0.4,0c0.1,0,0.1,0,0.2,0c0.1,0,0.2,0.1,0.3,0.2C1.5,33.4,1.4,33.5,1.3,33.5z M1.3,13.3c0.2-0.1,0.4-0.1,0.5-0.1
			c0,0,0.1,0.2,0.1,0.2c-0.1,0-0.2,0.1-0.3,0.1C1.5,13.5,1.4,13.4,1.3,13.3z M1.8,29.7c0,0,0.1-0.1,0.1-0.1c0.1,0,0.2-0.1,0.4-0.1
			c0.4,0,0.6-0.2,0.6-0.6c0,0,0.2-0.1,0.3-0.1c0,0,0.1,0.1,0.1,0.1c0.1,0.7-0.1,0.9-1,0.9c-0.1,0-0.2,0-0.4-0.1
			C1.8,29.8,1.8,29.8,1.8,29.7z M4.1,35.3c-0.1,0.1-0.3,0.2-0.5,0.2c0,0,0,0,0,0.1l0,0c0,0,0,0,0,0c0-0.3,0.1-0.6-0.3-0.8
			c-0.4-0.1-0.7-0.3-1-0.5c-0.3-0.1-0.2-0.4-0.2-0.7c0-0.2,0.1-0.4,0.3-0.4c0.4,0,0.8,0,1.2,0c0.6,0,0.4,0.3,0.2,0.6
			c-0.1,0.2-0.1,0.4,0.1,0.5c0.1,0.1,0.3,0.3,0.4,0.4C4.5,34.9,4.4,35.1,4.1,35.3z M4.9,14.3c-0.1,0-0.2-0.1-0.3-0.1
			c0,0,0-0.1,0-0.1c0.1,0,0.2-0.1,0.3-0.1C5,14,5.1,14,5.2,14.1C5.1,14.2,5,14.3,4.9,14.3z M-2.6,41.7C-2.6,41.7-2.6,41.7-2.6,41.7
			c0.1,0,0.1,0,0.1,0c0.1,0.1,0.1,0.2-0.1,0.2c0,0-0.1-0.1-0.1-0.1C-2.7,41.8-2.6,41.7-2.6,41.7z M-3.9,42C-3.9,42-3.9,42-3.9,42
			c0.1,0.1,0.2,0.1,0.3,0.2c0.1,0.1,0,0.2-0.1,0.1C-3.9,42.2-3.9,42.1-3.9,42C-3.9,42-3.9,42-3.9,42L-3.9,42z M-4.5,46
			c0.2,0,0.3,0.1,0.5,0.2c-0.1,0.1-0.2,0.1-0.3,0.2c-0.1,0-0.2-0.1-0.3-0.1C-4.6,46.2-4.5,46-4.5,46z M-2.3,49.4
			c0,0,0.1-0.1,0.1-0.1c0,0,0.1,0.1,0.1,0.1C-2.1,49.6-2.2,49.6-2.3,49.4z M-2.1,47.5c-0.1,0.1-0.2,0.3-0.3,0.5
			c-0.1,0.4-0.5,0.3-0.8,0.3c0,0,0,0,0,0c0,0,0,0,0,0c0,0.4,0,0.8-0.6,0.9c-0.2,0-0.4,0.2-0.6,0.3c0,0,0,0,0,0c0,0,0,0,0,0
			c-0.1,0.4-0.2,0.6-0.5,0.7c-0.1,0-0.2,0.1-0.3,0.1c-0.1,0-0.1,0-0.2-0.1c0,0-0.1-0.1,0-0.1c0.2-0.4,0.6-0.6,1.1-0.6c0,0,0,0,0,0
			l0,0c0,0,0,0,0,0c0,0,0,0,0,0c0-0.4-0.1-0.7,0.5-0.8c0.2,0,0.3-0.2,0.3-0.4c0,0,0,0,0,0c0,0,0,0,0,0c-0.1,0-0.2,0-0.2-0.1
			c0,0,0,0,0,0C-3.9,48-3.7,48-3.6,48c0,0,0,0,0,0c0,0,0,0,0,0c-0.1-0.1-0.1-0.2-0.2-0.3c-0.1-0.1-0.1-0.2-0.2-0.3
			c0.1,0,0.3-0.2,0.3-0.1c0.4,0.2,0.8,0.2,1.2,0c0,0,0.1,0,0.2,0C-2,47.3-2,47.4-2.1,47.5z M-0.5,44.1c0.3-0.1,0.6-0.1,0.9,0.1
			c-0.1,0.1-0.1,0.2-0.2,0.2c-0.2,0-0.5,0-0.7-0.1c0,0-0.1-0.1-0.1-0.1C-0.6,44.1-0.6,44.1-0.5,44.1z M0,46.1c0,0,0,0.1,0,0.1
			c-0.1,0-0.2,0-0.2-0.1c0,0,0.1-0.1,0.1-0.1C-0.1,46.1-0.1,46.1,0,46.1z M-0.1,53.1c-0.3,0.2-0.6,0.2-0.9,0c-0.1,0-0.1-0.2-0.1-0.3
			c0,0,0,0,0,0l0,0c0,0,0,0,0,0c0.3,0,0.6-0.1,0.8-0.3c0.3-0.2,0.7-0.2,0.7,0C0.3,52.7,0.1,53-0.1,53.1z M6.7,4.8
			c0,0,0.1,0.1,0.1,0.1c0,0-0.1,0.1-0.1,0.1c0,0-0.1,0-0.1-0.1C6.6,4.9,6.7,4.8,6.7,4.8z M5.9,8C6,7.9,6.2,7.9,6.4,8
			c0,0.1-0.1,0.2-0.2,0.2c-0.2,0-0.3-0.1-0.5-0.2C5.8,8,5.8,8,5.9,8z M5.8,9.3c-0.1-0.1,0-0.2,0.2-0.1C6,9.2,6,9.4,6.1,9.5
			c0,0,0,0,0,0c0,0,0,0,0,0c0.1,0,0.3,0,0.3,0.3c0,0-0.1,0-0.1,0c0-0.1-0.1-0.2-0.1-0.3c0,0,0,0,0,0c0,0,0,0,0,0
			C6,9.4,5.8,9.4,5.8,9.3z M5.5,37.2c0.1,0,0.2,0,0.4,0c0.1,0,0.2,0,0.4,0.1c0,0,0.1,0,0.1,0c0,0,0,0,0.1,0.1c0,0-0.1,0.1-0.1,0.1
			c0,0-0.1,0.1-0.1,0.1c-0.2,0-0.4,0-0.6,0c-0.1,0-0.1-0.1-0.2-0.2C5.4,37.3,5.5,37.2,5.5,37.2z M3,50.1c0-0.1,0.2-0.1,0.3-0.1
			c0,0,0,0,0,0c0,0,0,0,0,0c0-0.2,0.1-0.3,0.3-0.4c0.1,0,0.1,0,0.2,0c0.1,0,0.1,0.1,0.2,0.2c0,0-0.1,0.1-0.1,0.1c-0.2,0-0.4,0-0.5,0
			c0,0,0,0,0,0l0,0l0,0c0,0,0,0,0,0c0,0.1-0.1,0.2-0.1,0.3C3,50.4,2.9,50.3,3,50.1z M3,50.8c0,0,0.1,0.2,0.2,0.2
			c-0.1,0.2-0.3,0.1-0.5,0.1c-0.1,0-0.1-0.1-0.1-0.1C2.7,50.9,2.9,50.9,3,50.8z M2.9,55.6C2.9,55.6,2.9,55.6,2.9,55.6L2.9,55.6
			C2.9,55.6,2.9,55.6,2.9,55.6c-0.1-0.3-0.3-0.4-0.5-0.4c-0.2,0.1-0.5,0.2-0.7,0.3c0,0-0.1,0-0.2,0c0,0-0.1-0.1-0.1-0.1
			c0.4-0.5,0.8-1,1.4-1.3c0.3,0.4,0.5,0,0.8,0c0.1,0,0.1,0.2,0.1,0.3C3.7,55.1,3.5,55.5,2.9,55.6z M4,57.5c-0.1,0.1-0.2,0.1-0.2-0.1
			c0,0,0.1-0.1,0.1-0.1c0,0,0.1,0,0.1,0.1C4,57.4,4,57.5,4,57.5z M4.2,53.5c-0.1,0-0.1-0.2-0.1-0.3c0,0,0,0-0.1,0c0,0,0,0,0,0
			c-0.3,0.1-0.5,0.3-0.8,0.3c-0.1,0-0.2-0.1-0.3-0.2c0-0.1,0-0.3,0.1-0.4c0.3-0.3,0.7-0.2,1.1,0.2c0,0,0,0,0,0c0,0,0,0,0,0.1
			c0.1,0,0.2,0,0.3,0.1C4.4,53.5,4.3,53.6,4.2,53.5z M4.7,57.1C4.7,57,4.5,57,4.5,56.9c0-0.2,0.1-0.3,0.2-0.5
			c0.1,0.1,0.1,0.2,0.2,0.3C4.8,56.9,4.8,57,4.7,57.1z M6.8,55.8c-0.5,0.4-0.1,1.1-0.6,1.5c-0.2,0.2-0.4,0.3-0.4,0.1
			c0-0.1-0.1-0.3-0.1-0.4c0.5-0.3,0.2-1,0.6-1.4c0.1-0.1,0.3-0.1,0.4-0.1C6.8,55.8,6.8,55.5,6.8,55.8z M7,48.2
			c-0.2-0.1-0.3-0.3-0.5,0C6.2,48.6,6,49,5.7,49.3c-0.2,0.2-0.4,0.3-0.7,0.2c-0.2-0.1-0.5-0.2-0.7-0.3c-0.4-0.2-0.7-0.7-0.6-0.9
			C3.9,47.9,4.3,48,4.6,48c0.5,0.1,0.6-0.3,0.8-0.7C5.5,47,5.8,47,6.3,47.1c0.2,0.1,0.4,0,0.6,0.1c0.4,0.1,0.4,0.2,0.4,0.8
			C7.2,48.1,7.3,48.4,7,48.2z M7.5,56.7c0,0-0.1-0.1-0.1-0.1c0,0,0-0.1,0.1-0.1c0,0,0.1,0,0.1,0C7.6,56.6,7.6,56.7,7.5,56.7z
			 M8.7,55.7c-0.1,0.1-0.2,0.3-0.5,0.2c-0.2-0.1-0.3-0.2-0.5-0.3c0,0,0,0,0,0c0,0,0,0-0.1,0c0,0.1-0.1,0.2-0.1,0.3
			c-0.1,0.1-0.2,0-0.1-0.1c0,0,0.1-0.1,0.1-0.1c0,0,0.1,0,0.1,0c0,0,0,0,0-0.1c0,0,0,0,0,0c0-0.2,0.1-0.3,0.3-0.4c0.1,0,0.3,0,0.5,0
			c0.1,0,0.2,0.1,0.4,0.1C8.7,55.4,8.7,55.6,8.7,55.7z M9.1,14.2c0,0-0.1-0.1-0.1-0.1C9,14.1,9,14,9.1,14c0,0,0.1,0.1,0.1,0.1
			C9.2,14.2,9.1,14.2,9.1,14.2z M9,10.5c0,0,0-0.1,0-0.1c0,0,0.1,0,0.1,0c0,0.1,0,0.2-0.1,0.2C9.1,10.6,9,10.6,9,10.5z M8.3,6.6
			C8.2,6.5,8.1,6.5,8,6.4C7.9,6.3,7.8,6.2,7.8,6c0,0,0.1-0.1,0.2-0.1c0.4,0,0.9,0,1.3,0c0,0,0,0,0,0c0,0,0,0,0.1,0
			c0-0.1,0-0.2,0.1-0.3c0.1-0.1,0.2,0,0.1,0.1c0,0.1-0.2,0.1-0.3,0.1c0,0,0,0,0,0.1c0,0,0,0-0.1,0C9.1,6.4,8.5,6.3,8.3,6.6z
			 M9.6,8.6C9.5,8.6,9.5,8.6,9.6,8.6c-0.3,0-0.2-0.1,0-0.2c0,0,0,0,0.1,0C9.6,8.4,9.6,8.5,9.6,8.6C9.6,8.5,9.6,8.5,9.6,8.6z M9.8,7
			C9.7,7,9.6,7,9.6,7c-0.1,0-0.1-0.1-0.2-0.1l0,0l0,0c0,0,0,0,0.1-0.1c0,0,0,0,0.1,0C9.7,6.7,9.8,6.6,10,6.8C9.9,6.9,9.8,7,9.8,7z
			 M10.7,53.7c0,0,0.1,0.1,0.1,0.1c0,0-0.1,0.1-0.1,0.1C10.5,53.8,10.5,53.7,10.7,53.7z M11.2,55.5c0,0.1-0.1,0.1-0.2,0.1
			c0,0,0,0,0,0.1c0,0,0,0-0.1,0c0,0.1-0.1,0.2-0.1,0.3c0,0-0.1,0-0.1,0c0-0.2,0.1-0.2,0.2-0.2c0,0,0,0,0,0c0,0,0,0,0.1,0
			c0-0.1,0-0.2,0.1-0.2C11.2,55.3,11.3,55.4,11.2,55.5z M14.3,4.2c0,0-0.1-0.1-0.1-0.1c0,0,0-0.1,0.1-0.1c0,0,0.1,0,0.1,0
			C14.5,4.1,14.5,4.2,14.3,4.2z M14.8,58.3c-0.1,0.1-0.2,0.1-0.2-0.1c0,0,0.1-0.1,0.1-0.1c0,0,0.1,0,0.1,0.1
			C14.8,58.2,14.8,58.3,14.8,58.3z M14.8,5.7c-0.1,0.1-0.2,0.1-0.2-0.1c0,0,0.1-0.1,0.1-0.1c0,0,0.1,0,0.1,0.1
			C14.8,5.7,14.8,5.7,14.8,5.7z M15.5,14.6c0,0-0.1-0.1-0.1-0.1c0,0,0-0.1,0.1-0.1c0,0,0.1,0,0.1,0C15.7,14.5,15.7,14.6,15.5,14.6z
			 M15.9,5.6c0,0,0.1,0,0.1,0c0,0.1,0,0.2-0.1,0.2c0,0-0.1-0.1-0.1-0.1C15.8,5.7,15.8,5.6,15.9,5.6z M18.4,55.5
			c-0.1,0-0.1-0.1-0.2-0.1c0,0,0.1-0.1,0.1-0.1c0,0,0.1,0.1,0.1,0.1C18.4,55.4,18.4,55.5,18.4,55.5z M18.1,12.3c-0.1,0-0.3,0-0.4,0
			c0,0,0,0,0,0c0,0,0,0,0,0c0,0.1,0,0.3,0,0.4c0,0,0,0,0,0c0,0,0,0,0,0c0.1,0,0.2,0,0.3,0c0.1,0,0.2,0.1,0.3,0.1
			c0.1,0.1-0.2,0.3-0.4,0.2c-0.2,0-0.3-0.2-0.3-0.4c0,0,0,0,0,0c0,0,0,0,0,0c-0.1,0.1-0.2,0.1-0.3,0.2c-0.2,0.2,0,0.7-0.6,0.4
			c-0.3-0.2-0.6-0.2-0.9-0.2c-0.2,0-0.1-0.1,0-0.3c0.2-0.3,0.4-0.5,0.8-0.1c0.3-0.2,0.6-0.4,1-0.3c0,0,0,0,0,0c0,0,0,0,0,0
			c-0.1-0.2-0.2-0.3-0.3-0.5c-0.1-0.2-0.1-0.4,0-0.5c0.1-0.2,0.4-0.2,0.7,0c0.1,0.1,0.2,0.2,0.3,0.3C18.6,11.9,18.5,12.2,18.1,12.3z
			 M18.8,6.6c-0.1,0-0.1-0.1-0.2-0.1c0,0,0.1-0.1,0.1-0.1c0,0,0.1,0.1,0.1,0.1C18.8,6.5,18.8,6.5,18.8,6.6z M20.7,3.8
			c-0.1,0-0.1,0-0.2,0c-0.2,0-0.3-0.2-0.4-0.4c0-0.2-0.2-0.3-0.4-0.3c-0.2,0-0.3,0.1-0.4,0.3c0,0.1,0,0.3,0,0.4
			c-0.1,0.4-0.1,0.4-0.5,0.2c-0.1-0.1-0.2-0.1-0.3-0.1c0,0,0,0,0,0c0,0,0,0-0.1,0c0,0.1,0,0.2-0.1,0.2c-0.1,0.1-0.2,0-0.1-0.1
			c0-0.1,0.2-0.1,0.2-0.1c0,0,0,0,0,0c0,0,0,0,0,0c-0.2-0.5-0.7-0.9-1.2-1.2c0,0,0,0,0,0c0,0,0,0,0,0c0,0.3-0.2,0.4-0.5,0.4
			c-0.2,0-0.3-0.2-0.3-0.4c0-0.1,0-0.1,0-0.2c0.1-0.2,0.1-0.2,0.3,0c0.1,0.1,0.3,0.2,0.4,0.2c0,0,0,0,0,0c0,0,0,0,0,0
			c0.1-0.3,0.3-0.5,0.4-0.8c0,0,0,0,0,0l0,0c0,0,0,0,0,0c0.5,0.3,1,0.4,1.6,0.4c0.6-0.1,1,0.2,1.2,0.8c0.1,0.2,0.2,0.4,0.3,0.7
			C20.8,3.7,20.7,3.8,20.7,3.8z M21.9,5c0,0-0.1-0.1-0.1-0.1c0-0.1,0.1-0.1,0.1-0.1c0,0.1,0.1,0.1,0.1,0.1C22,4.9,22,5,21.9,5z
			 M21.9,4.2c0,0-0.1-0.1-0.1-0.1c-0.1-0.3,0.2-0.6,0.5-0.6c0.1,0,0.1,0.1,0.1,0.1C22.4,3.8,22.1,4.2,21.9,4.2z M24.9,3.1
			c-0.1,0.1-0.1,0.2-0.2,0.3c-0.1-0.1-0.2-0.2-0.2-0.3c0-0.2,0-0.4,0-0.6c0-0.1,0.1-0.1,0.2-0.1c0,0,0.1,0.1,0.1,0.1
			c0,0.1,0,0.2,0,0.4c0,0,0,0,0,0C24.9,3,24.9,3.1,24.9,3.1z M28,2.3c0,0,0.1,0.1,0.1,0.1c0,0-0.1,0.1-0.1,0.1c0,0-0.1,0-0.1-0.1
			C27.9,2.5,27.9,2.4,28,2.3z M28,3.7c-0.4,0.3-1,0-1.3,0.5C26.6,4.1,26.6,4,26.6,4c0-0.1,0-0.2,0-0.2c0.4-0.3,0.8-0.6,1.3-0.7
			c0.1,0,0.2,0.1,0.2,0.2C28.1,3.5,28.1,3.7,28,3.7z M28.4,57.1c-0.1,0.1-0.2,0.1-0.2-0.1c0,0,0.1-0.1,0.1-0.1c0,0,0,0,0.1,0
			s0,0,0.1,0C28.4,57,28.4,57,28.4,57.1C28.4,57.1,28.4,57.1,28.4,57.1z M31.6,3.4L31.6,3.4L31.6,3.4c-0.1,0-0.1-0.1-0.2-0.1
			c0,0,0.1-0.1,0.1-0.1c0,0,0.1,0.1,0.1,0.1C31.6,3.3,31.6,3.3,31.6,3.4z M37.2,3.3c-0.1,0.1-0.4,0.1-0.5,0.1
			c-0.2-0.1-0.3-0.4-0.5-0.6c0.2-0.1,0.3-0.2,0.4-0.2c0.2,0,0.3,0,0.4,0.1C37.3,2.8,37.4,3.2,37.2,3.3z M41.5,57.6
			c-0.3,0.1-0.6,0-0.9,0c0,0,0,0,0,0c0,0,0,0,0,0c0,0.1-0.1,0.2-0.1,0.3c-0.2,0.1-0.2-0.1-0.2-0.3c0,0,0,0,0,0c0,0,0,0,0-0.1
			c-0.1,0-0.2-0.1-0.3-0.1c-0.1-0.1,0-0.2,0.2-0.1c0.1,0,0.1,0.2,0.1,0.3c0,0,0,0,0.1,0c0,0,0,0,0,0c0.1,0,0.2,0,0.4,0c0,0,0,0,0,0
			c0,0,0,0,0,0c0.1-0.4,0.4-0.6,0.7-0.7c0.2-0.1,0.4,0.1,0.4,0.3C41.7,57.3,41.6,57.6,41.5,57.6z M42.1,3.3c-0.1,0-0.1,0.1-0.2,0.1
			c0,0-0.1-0.1-0.1-0.1c0,0,0.1-0.1,0.1-0.1C42,3.2,42.1,3.2,42.1,3.3L42.1,3.3L42.1,3.3z M43.2,3.4c-0.1,0.1-0.2,0.1-0.3,0.1
			c0,0-0.1-0.1-0.1-0.1s-0.1-0.1-0.1-0.1c0.1-0.1,0.2-0.3,0.4-0.4c0,0,0.1-0.1,0.2-0.1c0,0.1,0.1,0.2,0.1,0.3
			C43.4,3.2,43.3,3.3,43.2,3.4z M46.7,4.4c0.1,0,0.3-0.1,0.4-0.1c0.1,0,0.1,0.1,0.2,0.2c-0.1,0-0.2,0.1-0.4,0.1
			C46.8,4.6,46.8,4.5,46.7,4.4z M47.3,5.7c-0.1,0.1-0.2,0.1-0.2-0.1c0,0,0.1-0.1,0.1-0.1c0,0,0.1,0,0.1,0.1
			C47.3,5.7,47.3,5.7,47.3,5.7z M47.6,3c0,0-0.1,0-0.1-0.1c0-0.1,0.1-0.1,0.1-0.2c0,0,0.1,0.1,0.1,0.1C47.7,2.9,47.7,3,47.6,3z
			 M48.4,3.4c0,0-0.1,0-0.1,0c0-0.2,0.1-0.2,0.2-0.2c0,0,0,0,0,0l0,0c0,0,0,0-0.1,0C48.5,3.2,48.5,3.3,48.4,3.4z M50.7,4.3
			c-0.6,0-1.2,0-1.7,0.4c-0.1,0-0.2-0.1-0.3-0.1c0.1-0.1,0.1-0.2,0.2-0.3c0.1-0.1,0.3-0.3,0.5-0.3c0.3-0.1,0.5,0,0.8,0c0,0,0,0,0,0
			c0.2,0,0.4,0,0.6,0c0.1,0,0.2,0.1,0.1,0.1C50.8,4.1,50.8,4.3,50.7,4.3z M50.8,3.3c-0.1,0-0.2-0.1-0.2-0.2c0-0.2,0.1-0.3,0.2-0.5
			c0,0,0.1,0.1,0.1,0.1C51,3,51,3.2,50.8,3.3z M53.6,5c0,0-0.1-0.1-0.1-0.1c0,0,0-0.1,0.1-0.1c0,0,0.1,0,0.1,0
			C53.8,4.9,53.7,4.9,53.6,5z M55.3,4.9C55.3,5,55.2,5,55,4.9c-0.1-0.1-0.2-0.2-0.3-0.3c0,0,0-0.1-0.1-0.2c0.1,0,0.1,0,0.2-0.1
			c0.1,0,0.1,0,0.2,0c0.2,0,0.4,0.2,0.3,0.4C55.4,4.8,55.4,4.8,55.3,4.9z M57.7,55.5c0,0-0.1,0-0.1-0.1c0-0.1,0.1-0.1,0.1-0.2
			c0,0,0.1,0.1,0.1,0.1C57.7,55.5,57.7,55.5,57.7,55.5z M66,55.5c-0.3,0.1-0.5,0-0.6-0.3c0-0.1,0-0.2,0.1-0.3c0,0,0.2,0,0.3,0.1
			c0.1,0.1,0.2,0.2,0.2,0.3C66.2,55.4,66.2,55.5,66,55.5z M70.3,5.1C70.3,5.1,70.3,5.1,70.3,5.1C70.3,5.1,70.2,5.1,70.3,5.1
			c-0.1,0.3-0.2,0.4-0.4,0.4c0,0,0,0,0,0c0,0,0,0,0,0c0,0.3-0.2,0.4-0.5,0.4c-0.2,0-0.4-0.1-0.5-0.1c0,0,0-0.1,0-0.1
			c0-0.1,0.1-0.1,0.1-0.1c0.3,0,0.6,0,0.9,0c0,0,0,0,0,0c0,0,0,0,0,0C69.9,5.2,70,5.1,70.3,5.1C70.2,5.1,70.2,5.1,70.3,5.1
			C70.3,5.1,70.3,5.1,70.3,5.1c0-0.1,0.1-0.2,0.1-0.3c0,0,0.1,0,0.1,0C70.6,5,70.4,5,70.3,5.1z M78.5,54.3c-0.1,0-0.1-0.1-0.2-0.1
			c0,0,0.1-0.1,0.1-0.1c0,0,0.1,0.1,0.1,0.1C78.6,54.2,78.5,54.3,78.5,54.3z M84.1,55.9c-0.2-0.1-0.2-0.2,0-0.3c0,0,0.1,0.1,0.1,0.1
			C84.2,55.9,84.1,56,84.1,55.9z M89.7,49.7c0,0,0.1,0.1,0.1,0.1c-0.1,0.2-0.2,0.2-0.3,0C89.6,49.8,89.7,49.7,89.7,49.7z M89.8,53.4
			c-0.2,0.1-0.3-0.1-0.4-0.2c-0.1-0.1-0.2-0.3-0.2-0.4c0,0,0,0-0.1,0c0,0,0,0,0,0c-0.3,0-0.7,0.1-0.8-0.3c-0.1-0.3-0.2-0.4-0.5-0.4
			c-0.1,0-0.3,0-0.4,0c-0.3-0.1-0.7-0.6-0.5-0.7c0.2-0.1,0.6-0.2,0.7-0.1c0.6,0.4,1.4,0.4,2,0.8c0.1,0.1,0.1,0.2,0.2,0.2
			c-0.1,0-0.2,0.1-0.3,0.1c-0.2,0.1-0.3,0.2-0.3,0.4c0,0,0,0,0,0c0,0,0,0,0,0c0.1,0,0.2,0,0.3,0c0.3,0,0.4,0.2,0.4,0.5
			C89.9,53.3,89.8,53.4,89.8,53.4z M92.7,54.5C92.7,54.5,92.7,54.5,92.7,54.5c0,0.3,0,0.5,0,0.8c0,0.1-0.1,0.1-0.2,0.2
			c0,0-0.1-0.1-0.1-0.1c0-0.6,0-1.3,0-1.9c0-0.1,0.1-0.1,0.1-0.2c0.1,0.1,0.2,0.2,0.2,0.3C92.7,53.9,92.7,54.2,92.7,54.5z
			 M93.8,54.7L93.8,54.7L93.8,54.7c-0.1,0-0.1-0.1-0.2-0.1c0,0,0.1-0.1,0.1-0.1c0,0,0.1,0.1,0.1,0.1C93.8,54.6,93.8,54.7,93.8,54.7z
			 M94.9,54.3c-0.2-0.1-0.2-0.2,0-0.3c0,0,0.1,0.1,0.1,0.1C95,54.3,94.9,54.3,94.9,54.3z M100.4,54.6c0,0,0.1-0.1,0.1-0.1
			c0,0,0.1,0.1,0.1,0.1C100.6,54.8,100.5,54.8,100.4,54.6z M102.2,54.3c-0.1,0.1-0.2,0.1-0.2-0.1c0,0,0.1-0.1,0.1-0.1
			c0,0,0.1,0,0.1,0C102.2,54.2,102.2,54.2,102.2,54.3z M105.4,3c-0.1,0-0.1-0.1-0.2-0.1c0,0,0.1-0.1,0.1-0.1c0,0,0.1,0.1,0.1,0.1
			C105.4,2.9,105.4,2.9,105.4,3z M106.6,53.9L106.6,53.9L106.6,53.9c-0.1,0-0.1-0.1-0.2-0.1c0,0,0.1-0.1,0.1-0.1
			c0,0,0.1,0.1,0.1,0.1C106.6,53.8,106.6,53.9,106.6,53.9z M109,3.2c0.1,0.1,0.1,0.2,0.1,0.3c0,0,0,0,0,0l0,0c0,0,0,0,0,0
			c-0.1,0-0.2-0.1-0.3-0.1C108.8,3.2,108.9,3.1,109,3.2z M109.1,3.9c0,0.1-0.1,0.2-0.1,0.3c-0.1,0.1-0.2,0-0.1-0.1
			C108.9,4,109,3.9,109.1,3.9C109.1,3.9,109.1,3.9,109.1,3.9L109.1,3.9C109.2,3.9,109.1,3.9,109.1,3.9z M111.4,49.5
			c0,0-0.1-0.1-0.1-0.1l0,0h0c0.1,0,0.1-0.1,0.1-0.1c0,0,0.1,0.1,0.1,0.1C111.4,49.4,111.4,49.5,111.4,49.5z M113.2,3.9
			c-0.1,0-0.2-0.1-0.3-0.1c0.1-0.1,0.1-0.2,0.2-0.2c0.2,0,0.3,0.1,0.5,0.2C113.4,3.7,113.3,3.8,113.2,3.9z M114.7,50.3
			c-0.2,0.1-0.4,0.1-0.5,0c-0.2-0.1-0.2-0.3-0.1-0.5c0-0.1,0.1-0.1,0.1-0.2c0.2,0.2,0.4,0.4,0.5,0.6
			C114.7,50.2,114.7,50.3,114.7,50.3z M115.4,52.4c0,0-0.1-0.1-0.1-0.1c0,0,0-0.1,0-0.1c0,0,0.1,0,0.1,0h0
			C115.4,52.2,115.4,52.3,115.4,52.4z M115.7,7.1c-0.1,0-0.3,0-0.4,0c-0.1-0.2-0.2-0.5-0.4-0.7c-0.2-0.3,0.1-0.4,0.1-0.7
			c0.1-0.3,0.2-0.6,0.5-0.8c0.1-0.1,0.4-0.2,0.5-0.1c0.2,0,0.6,0.6,0.6,0.7C116.5,6,116.4,6.7,115.7,7.1z M117.8,54.3
			c-0.1,0-0.1,0.1-0.2,0.1c-0.1,0-0.2-0.1-0.3-0.1c0,0,0-0.1,0.1-0.1c0.1-0.1,0.3-0.3,0.4-0.4c0,0,0.1,0,0.2,0.1c0,0,0.1,0,0.1,0
			c0,0.1,0,0.2,0,0.3C117.9,54.2,117.9,54.3,117.8,54.3z M119,54.4c0,0-0.1-0.1-0.1-0.1c0,0,0-0.1,0.1-0.1c0,0,0.1,0,0.1,0
			C119.1,54.2,119.1,54.3,119,54.4z M119.8,54c0,0-0.1-0.1-0.1-0.1c0,0,0-0.1,0-0.1c0,0,0.1,0,0.1,0C119.9,53.8,119.9,53.9,119.8,54
			z M120,51.6c-0.1,0-0.1,0-0.3,0c-0.1,0-0.2,0-0.3,0c-0.1,0-0.1-0.1-0.1-0.1c0.1-0.1,0.1-0.2,0.2-0.3c0.2,0,0.4,0,0.6,0
			c0.1,0,0.2,0.1,0.3,0.2C120.2,51.5,120.1,51.5,120,51.6z M121.7,52.4c-0.3,0.1-0.5-0.1-0.5-0.4c0-0.2,0.1-0.3,0.3-0.3
			c0.2,0,0.3,0.1,0.4,0.3C122,52.1,121.9,52.3,121.7,52.4z M122,51.2c-0.1,0.1-0.3,0-0.3-0.1c0-0.1,0.1-0.2,0.2-0.2
			c0.1,0,0.2,0.1,0.4,0.1C122.2,51,122.1,51.1,122,51.2z M123.8,4.7c0.1,0,0.1,0.1,0.2,0.1c0.1,0.1,0.3,0.2,0.5,0.3
			c-0.1,0.1-0.2,0.3-0.3,0.3c-0.3,0-0.5,0-0.5-0.4C123.6,4.9,123.7,4.8,123.8,4.7z M126.5,48.9c-0.3,0.5-0.9,0.1-1.2,0.5
			c-0.2,0.3-0.3,0.7-0.7,0.9c-0.3,0.1-0.6,0.1-0.8,0.1c-0.8,0-0.5-0.3-0.3-0.6c-0.2-0.1-0.3-0.2-0.5-0.2c-0.2-0.1-0.2-0.2-0.1-0.3
			c0.1-0.1,0.3-0.4,0.4-0.4c0.4-0.1,0.9-0.1,1.4-0.1c0.4,0,0.7-0.6,1.3-0.4c0.1,0,0.3,0,0.4,0c0.1,0,0.2,0.1,0.4,0.1
			C126.7,48.7,126.6,48.8,126.5,48.9z M128.5,5.3c0,0,0.1-0.1,0.1-0.1c0,0,0.1,0,0.1,0.1c0,0,0,0.1,0,0.1
			C128.6,5.4,128.5,5.4,128.5,5.3z M129.2,6.9c-0.2-0.1-0.4-0.1-0.5-0.2c-0.1,0-0.1-0.2-0.2-0.2c0.1,0,0.2-0.1,0.3-0.1
			c0.1,0,0.1,0,0.2,0c0.2,0,0.3,0.1,0.4,0.1c0.2,0.1,0.2,0.2,0.2,0.3C129.6,6.9,129.4,7,129.2,6.9z M129.8,49.9c0,0-0.1,0-0.1-0.1
			c0-0.1,0.1-0.1,0.1-0.2c0,0,0.1,0.1,0.1,0.1C129.9,49.8,129.9,49.9,129.8,49.9z M133.2,6.7C133.2,6.7,133.2,6.7,133.2,6.7
			L133.2,6.7c-0.1-0.1-0.2-0.1-0.3-0.2c0.2-0.1,0.3-0.1,0.5-0.2c0,0,0.1,0.2,0.1,0.2C133.4,6.6,133.3,6.6,133.2,6.7z M137.3,6.5
			C137.3,6.5,137.3,6.5,137.3,6.5c0-0.3,0.6-0.6,0.8-0.6c0,0,0.1,0.1,0.1,0.1c0,0,0,0.1,0,0.1c-0.1,0.2-0.2,0.3-0.3,0.4
			c-0.1,0.1-0.2,0.1-0.4,0.2C137.5,6.6,137.4,6.6,137.3,6.5z M139.7,54c-0.6,0.1-1.2-0.1-1.7,0.2c-0.1,0-0.1,0.1-0.2,0.1
			c-0.1-0.1-0.2-0.1-0.2-0.2c0-0.1,0-0.3,0.1-0.3c0.5-0.2,1-0.2,1.4-0.5c0.2-0.1,0.4,0.2,0.6,0.4c0,0,0.1,0.1,0.1,0.2
			C139.9,53.8,139.8,54,139.7,54z M141.4,52.3c-0.2-0.1-0.2-0.2,0-0.3c0,0,0.1,0.1,0.1,0.1C141.5,52.3,141.5,52.3,141.4,52.3z
			 M150.7,22.8c0.2-0.1,0.3-0.1,0.5,0.1c0,0.1-0.1,0.2-0.1,0.2c-0.2,0-0.3-0.1-0.5-0.2C150.6,22.9,150.6,22.8,150.7,22.8z M149.9,15
			c-0.1,0.1-0.2,0-0.1-0.1c0-0.1,0.2-0.1,0.2-0.1c0,0,0,0,0-0.1l0,0c0,0,0,0-0.1,0C150,14.8,150,14.9,149.9,15z M150.3,31.4
			c0,0-0.2-0.2-0.2-0.2c0-0.1,0-0.2,0.1-0.4c0.1-0.2,0.2-0.3,0.3-0.5c0,0,0,0,0,0c0,0,0,0,0-0.1c-0.1,0-0.2,0-0.2-0.1
			c-0.1-0.1,0-0.2,0.1-0.1c0.1,0,0.1,0.1,0.1,0.2c0,0,0,0,0.1,0c0,0,0,0,0,0c0.2,0,0.4,0.1,0.4,0.3
			C150.9,31.1,150.6,31.3,150.3,31.4z M151.5,30.6L151.5,30.6L151.5,30.6c-0.1,0-0.1-0.1-0.2-0.1c0,0,0.1-0.1,0.1-0.1
			c0,0,0.1,0.1,0.1,0.1C151.6,30.6,151.5,30.6,151.5,30.6z M151.6,29.3c-0.2,0.2-0.8,0.3-1,0c-0.1-0.1-0.2-0.4,0-0.5
			c0.2-0.2,0.3-0.3,0.6-0.4c0.1-0.1,0.5,0.5,0.5,0.7C151.6,29.2,151.6,29.3,151.6,29.3z M152.7,28.2c-0.1,0.1-0.2,0-0.1-0.1
			c0-0.1,0.2-0.1,0.3-0.1c0,0,0,0,0,0l0,0c0,0,0,0,0,0C152.8,28.1,152.8,28.2,152.7,28.2z M153.8,31.5c-0.3,0.1-0.5-0.1-0.5-0.4
			c0-0.2,0.1-0.3,0.3-0.3c0.2,0,0.3,0.1,0.4,0.3C154.1,31.3,154,31.4,153.8,31.5z"/>
		<path class="st3" d="M10.9,1.1c-0.1,0.1-0.3,0.1-0.3,0.2c-0.2,0.6,0.1,1.1,0.7,1.4c0.1,0,0.2-0.1,0.3-0.1c-0.4-0.4-0.2-1-0.6-1.4
			C11,1.1,10.9,1.1,10.9,1.1z"/>
		<path class="st3" d="M29.9,1.2c-0.1,0.1-0.1,0.2-0.1,0.3c0,0.1,0.1,0.2,0.2,0.3c0.3,0.1,0.9-0.3,0.9-0.6c0,0-0.1-0.1-0.1-0.1
			C30.5,1.1,30.1,1,29.9,1.2z"/>
		<path class="st3" d="M44.7,2.1c0,0,0.1,0.1,0.1,0.1c0.1,0,0.2,0,0.2,0c0.3,0,0.5,0,0.7,0c0.1,0,0.2-0.1,0.3-0.2
			C46,2,45.9,1.9,45.8,1.9c-0.3,0-0.6,0-1,0C44.8,1.9,44.8,2,44.7,2.1z"/>
		<path class="st3" d="M9.2,3c0.3,0,0.5-0.1,0.5-0.4c-0.2,0-0.4,0-0.5,0c0,0-0.1,0.1-0.1,0.1C9.1,2.9,9.1,3,9.2,3z"/>
		<path class="st3" d="M9.7,2.7C9.7,2.7,9.7,2.7,9.7,2.7C9.7,2.7,9.7,2.7,9.7,2.7L9.7,2.7z"/>
		<path class="st3" d="M32.1,1.5C32.2,1.5,32.2,1.5,32.1,1.5C32.2,1.5,32.2,1.5,32.1,1.5L32.1,1.5z"/>
		<path class="st3" d="M32.3,1.8c0.1,0.1,0.2,0,0.1-0.1c0-0.1-0.2-0.1-0.3-0.1C32.2,1.6,32.2,1.7,32.3,1.8z"/>
		<path class="st3" d="M9.8,2.4c-0.1,0-0.1,0.2-0.1,0.3c0.1,0,0.2-0.1,0.3-0.1C10.1,2.4,9.9,2.3,9.8,2.4z"/>
		<path class="st3" d="M9.7,2.6C9.7,2.6,9.7,2.7,9.7,2.6L9.7,2.6C9.7,2.7,9.7,2.7,9.7,2.6z"/>
	</g>
</g>
</svg>
