<?xml version="1.0" encoding="UTF-8"?><svg id="b" xmlns="http://www.w3.org/2000/svg" width="456.42" height="112.92" viewBox="0 0 456.42 112.92"><g id="c"><path d="m120.73,105.56l6.64,5.63v.86h-38.84v-.86l6.79-5.63v-45.35c0-7.22-3.62-9.38-7.94-9.38-3.76,0-6.5,2.16-8.67,5.05.14.87.14,1.73.14,2.6l-.29,47.08,6.79,5.63v.86h-38.85v-.86l6.64-5.63v-45.35c0-7.22-3.46-9.38-7.8-9.38-3.76,0-6.5,2.02-8.52,4.91v49.82l6.64,5.63v.86H4.62v-.86l6.79-5.63v-54.01L.58,56.89l-.58-.72c8.81-12.28,15.02-22.82,23.83-22.82,6.93,0,12.28,4.19,10.98,20.65h.14c9.68-13.29,17.19-20.8,21.81-20.8,13.58,0,19.93,8.08,21.67,18.92,8.95-11.99,16.03-18.92,20.36-18.92,16.17,0,22.09,11.41,22.09,25.27l-.14,47.08Z" style="fill:#121130;"/><path d="m138.13,42.17l-6.64-6.07v-.86h32.2v6.93l-.29,63.4,6.64,5.63v.86h-38.84v-.86l6.78-5.63.15-63.4Zm-.44-27.59c0-6.93,5.2-11.55,12.85-11.55s12.28,4.62,12.28,11.55-4.91,11.84-12.28,11.84-12.85-4.76-12.85-11.84Z" style="fill:#121130;"/><path d="m232.16,64.98l22.68,46.21v.86h-35.09v-.86l4.77-5.49-15.6-31.77-2.02,1.73v29.9l6.78,5.63v.86h-38.84v-.86l6.64-5.63V14.29l-9.1-3.17v-.87L206.03,0h.86v72.63l3.32-3.17c14.59-11.55,13-28.3,8.08-33.36v-.86h36.25v.72l-44.48,37.11,22.09-8.08Z" style="fill:#121130;"/><path d="m296.47,111.2v.86h-38.84v-.86l6.64-5.63V14.29l-9.1-3.17v-.87L288.82,0h.86v105.56l6.78,5.63Z" style="fill:#121130;"/><path d="m308.76,42.17l-6.64-6.07v-.86h32.2v6.93l-.29,63.4,6.64,5.63v.86h-38.84v-.86l6.78-5.63.15-63.4Zm-.44-27.59c0-6.93,5.2-11.55,12.85-11.55s12.28,4.62,12.28,11.55-4.91,11.84-12.28,11.84-12.85-4.76-12.85-11.84Z" style="fill:#121130;"/><path d="m402.79,64.98l22.68,46.21v.86h-35.09v-.86l4.77-5.49-15.6-31.77-2.02,1.73v29.9l6.78,5.63v.86h-38.84v-.86l6.64-5.63V14.29l-9.1-3.17v-.87L376.66,0h.86v72.63l3.32-3.17c14.59-11.55,13-28.3,8.08-33.36v-.86h36.25v.72l-44.48,37.11,22.09-8.08Z" style="fill:#121130;"/><path d="m431.29,101.08c0-6.93,5.2-11.69,12.85-11.69s12.28,4.76,12.28,11.69-4.91,11.84-12.28,11.84-12.85-4.76-12.85-11.84Z" style="fill:#ad2a29;"/></g></svg>